RobotoCondensed-Regular.ufo
<glyph name="exclam" format="1">
  <advance width="504"/>
  <unicode hex="0021"/>
  <outline>
    <contour>
      <point x="346" y="1456" type="line"/>
      <point x="160" y="1456" type="line"/>
      <point x="174" y="411" type="line"/>
      <point x="333" y="411" type="line"/>
    </contour>
    <contour>
      <point x="157" y="93" type="curve" smooth="yes"/>
      <point x="157" y="35"/>
      <point x="191" y="-12"/>
      <point x="257" y="-12" type="curve" smooth="yes"/>
      <point x="324" y="-12"/>
      <point x="358" y="35"/>
      <point x="358" y="93" type="curve" smooth="yes"/>
      <point x="358" y="153"/>
      <point x="324" y="200"/>
      <point x="257" y="200" type="curve" smooth="yes"/>
      <point x="191" y="200"/>
      <point x="157" y="153"/>
    </contour>
  </outline>
</glyph>
<glyph name="numbersign" format="1">
  <advance width="1122"/>
  <unicode hex="0023"/>
  <outline>
    <contour>
      <point x="259" y="0" type="line"/>
      <point x="393" y="0" type="line"/>
      <point x="635" y="1456" type="line"/>
      <point x="500" y="1456" type="line"/>
    </contour>
    <contour>
      <point x="599" y="0" type="line"/>
      <point x="734" y="0" type="line"/>
      <point x="975" y="1456" type="line"/>
      <point x="841" y="1456" type="line"/>
    </contour>
    <contour>
      <point x="1069" y="901" type="line"/>
      <point x="1069" y="1040" type="line"/>
      <point x="195" y="1040" type="line"/>
      <point x="195" y="901" type="line"/>
    </contour>
    <contour>
      <point x="1006" y="410" type="line"/>
      <point x="1006" y="548" type="line"/>
      <point x="131" y="548" type="line"/>
      <point x="131" y="410" type="line"/>
    </contour>
  </outline>
</glyph>
<glyph name="percent" format="2">
  <advance width="1296"/>
  <unicode hex="0025"/>
  <outline>
    <contour>
      <point x="107" y="1099" type="line"/>
      <point x="107" y="936"/>
      <point x="203" y="800"/>
      <point x="363" y="800" type="curve" smooth="yes"/>
      <point x="523" y="800"/>
      <point x="617" y="936"/>
      <point x="617" y="1099" type="curve" smooth="yes"/>
      <point x="617" y="1176" type="line" smooth="yes"/>
      <point x="617" y="1341"/>
      <point x="523" y="1477"/>
      <point x="361" y="1477" type="curve" smooth="yes"/>
      <point x="203" y="1477"/>
      <point x="107" y="1341"/>
      <point x="107" y="1176" type="curve" smooth="yes"/>
    </contour>
    <contour>
      <point x="237" y="1176" type="line"/>
      <point x="237" y="1270"/>
      <point x="277" y="1357"/>
      <point x="361" y="1357" type="curve" smooth="yes"/>
      <point x="446" y="1357"/>
      <point x="487" y="1270"/>
      <point x="487" y="1176" type="curve" smooth="yes"/>
      <point x="487" y="1099" type="line" smooth="yes"/>
      <point x="487" y="1006"/>
      <point x="447" y="920"/>
      <point x="363" y="920" type="curve" smooth="yes"/>
      <point x="277" y="920"/>
      <point x="237" y="1007"/>
      <point x="237" y="1099" type="curve" smooth="yes"/>
    </contour>
    <contour>
      <point x="695" y="279" type="line"/>
      <point x="695" y="115"/>
      <point x="791" y="-21"/>
      <point x="951" y="-21" type="curve" smooth="yes"/>
      <point x="1110" y="-21"/>
      <point x="1205" y="115"/>
      <point x="1205" y="279" type="curve" smooth="yes"/>
      <point x="1205" y="357" type="line" smooth="yes"/>
      <point x="1205" y="521"/>
      <point x="1110" y="657"/>
      <point x="950" y="657" type="curve" smooth="yes"/>
      <point x="791" y="657"/>
      <point x="695" y="521"/>
      <point x="695" y="357" type="curve" smooth="yes"/>
    </contour>
    <contour>
      <point x="825" y="357" type="line"/>
      <point x="825" y="451"/>
      <point x="866" y="537"/>
      <point x="950" y="537" type="curve" smooth="yes"/>
      <point x="1034" y="537"/>
      <point x="1075" y="451"/>
      <point x="1075" y="357" type="curve" smooth="yes"/>
      <point x="1075" y="279" type="line" smooth="yes"/>
      <point x="1075" y="185"/>
      <point x="1035" y="99"/>
      <point x="951" y="99" type="curve" smooth="yes"/>
      <point x="866" y="99"/>
      <point x="825" y="186"/>
      <point x="825" y="279" type="curve" smooth="yes"/>
    </contour>
    <contour>
      <point x="997" y="1249" type="line"/>
      <point x="900" y="1315" type="line"/>
      <point x="302" y="177" type="line"/>
      <point x="400" y="111" type="line"/>
    </contour>
  </outline>
</glyph>
<glyph name="ampersand" format="2">
  <advance width="1114"/>
  <unicode hex="0026"/>
  <outline>
    <contour>
      <point x="370" y="808" type="line"/>
      <point x="213" y="683"/>
      <point x="103" y="575"/>
      <point x="103" y="392" type="curve"/>
      <point x="103" y="152"/>
      <point x="257" y="-20"/>
      <point x="505" y="-20" type="curve"/>
      <point x="622" y="-20"/>
      <point x="757" y="34"/>
      <point x="840" y="142" type="curve" smooth="yes"/>
      <point x="850" y="154"/>
      <point x="855" y="172"/>
      <point x="865" y="184" type="curve" smooth="yes"/>
      <point x="973" y="307"/>
      <point x="1020" y="474"/>
      <point x="1020" y="672" type="curve"/>
      <point x="862" y="672" type="line"/>
      <point x="862" y="349"/>
      <point x="683" y="132"/>
      <point x="505" y="132" type="curve" smooth="yes"/>
      <point x="353" y="132"/>
      <point x="280" y="250"/>
      <point x="280" y="392" type="curve"/>
      <point x="280" y="435"/>
      <point x="288" y="531"/>
      <point x="400" y="637" type="curve" smooth="yes"/>
      <point x="650" y="852" type="line" smooth="yes"/>
      <point x="754" y="939"/>
      <point x="817" y="1028"/>
      <point x="817" y="1169" type="curve"/>
      <point x="817" y="1334"/>
      <point x="700" y="1476"/>
      <point x="515" y="1476" type="curve" smooth="yes"/>
      <point x="325" y="1476"/>
      <point x="199" y="1350"/>
      <point x="199" y="1123" type="curve" smooth="yes"/>
      <point x="199" y="974"/>
      <point x="295" y="852"/>
      <point x="422" y="676" type="curve" smooth="yes"/>
      <point x="885" y="0" type="line"/>
      <point x="1096" y="0" type="line"/>
      <point x="523" y="826" type="line" smooth="yes"/>
      <point x="439" y="941"/>
      <point x="376" y="1038"/>
      <point x="376" y="1129" type="curve" smooth="yes"/>
      <point x="376" y="1234"/>
      <point x="423" y="1325"/>
      <point x="514" y="1325" type="curve" smooth="yes"/>
      <point x="603" y="1325"/>
      <point x="654" y="1248"/>
      <point x="654" y="1169" type="curve"/>
      <point x="654" y="1068"/>
      <point x="619" y="1020"/>
      <point x="549" y="963" type="curve"/>
    </contour>
  </outline>
</glyph>
<glyph name="parenleft" format="1">
  <advance width="643"/>
  <unicode hex="0028"/>
  <outline>
    <contour>
      <point x="130" y="582" type="line"/>
      <point x="130" y="-2"/>
      <point x="399" y="-365"/>
      <point x="553" y="-470" type="curve"/>
      <point x="589" y="-358" type="line"/>
      <point x="464" y="-230"/>
      <point x="307" y="73"/>
      <point x="307" y="580" type="curve"/>
      <point x="307" y="594" type="line" smooth="yes"/>
      <point x="307" y="1100"/>
      <point x="464" y="1402"/>
      <point x="589" y="1521" type="curve"/>
      <point x="553" y="1643" type="line"/>
      <point x="399" y="1538"/>
      <point x="130" y="1173"/>
      <point x="130" y="592" type="curve"/>
    </contour>
  </outline>
</glyph>
<glyph name="parenright" format="1">
  <advance width="653"/>
  <unicode hex="0029"/>
  <outline>
    <contour>
      <point x="513" y="592" type="line"/>
      <point x="513" y="1173"/>
      <point x="244" y="1538"/>
      <point x="90" y="1643" type="curve"/>
      <point x="54" y="1530" type="line"/>
      <point x="165" y="1413"/>
      <point x="337" y="1100"/>
      <point x="337" y="594" type="curve" smooth="yes"/>
      <point x="337" y="580" type="line"/>
      <point x="337" y="73"/>
      <point x="179" y="-239"/>
      <point x="54" y="-358" type="curve"/>
      <point x="90" y="-470" type="line"/>
      <point x="244" y="-365"/>
      <point x="513" y="-2"/>
      <point x="513" y="582" type="curve"/>
    </contour>
  </outline>
</glyph>
<glyph name="asterisk" format="2">
  <advance width="882"/>
  <unicode hex="002A"/>
  <guideline x="0.0" y="901.0" angle="0.0" identifier="Uj3blS1xCh"/>
  <guideline x="0.0" y="555.0" angle="0.0" identifier="gNvTurIJLx"/>
  <outline>
    <contour>
      <point x="129" y="708" type="line"/>
      <point x="254" y="617" type="line"/>
      <point x="435" y="898" type="line"/>
      <point x="620" y="610" type="line"/>
      <point x="744" y="703" type="line"/>
      <point x="547" y="974" type="line"/>
      <point x="854" y="1065" type="line"/>
      <point x="808" y="1218" type="line"/>
      <point x="510" y="1107" type="line"/>
      <point x="520" y="1457" type="line"/>
      <point x="368" y="1457" type="line"/>
      <point x="377" y="1113" type="line"/>
      <point x="75" y="1224" type="line"/>
      <point x="28" y="1074" type="line"/>
      <point x="330" y="984" type="line"/>
    </contour>
  </outline>
</glyph>
<glyph name="comma" format="2">
  <advance width="403"/>
  <unicode hex="002C"/>
  <guideline x="0.0" y="901.0" angle="0.0" identifier="5L6t7Q58Gk"/>
  <guideline x="0.0" y="555.0" angle="0.0" identifier="tD3XQfoRsX"/>
  <outline>
    <contour>
      <point x="309" y="220" type="line"/>
      <point x="128" y="220" type="line"/>
      <point x="128" y="68" type="line"/>
      <point x="128" y="-40"/>
      <point x="92" y="-130"/>
      <point x="29" y="-218" type="curve"/>
      <point x="134" y="-291" type="line"/>
      <point x="245" y="-200"/>
      <point x="309" y="-50"/>
      <point x="309" y="71" type="curve"/>
    </contour>
  </outline>
</glyph>
<glyph name="slash" format="2">
  <advance width="760"/>
  <unicode hex="002F"/>
  <guideline x="0.0" y="901.0" angle="0.0" identifier="tDOL9UjDYn"/>
  <guideline x="0.0" y="555.0" angle="0.0" identifier="nYvhmibZqr"/>
  <outline>
    <contour>
      <point x="691" y="1456" type="line"/>
      <point x="543" y="1456" type="line"/>
      <point x="32" y="-125" type="line"/>
      <point x="181" y="-125" type="line"/>
    </contour>
  </outline>
</glyph>
<glyph name="two" format="1">
  <advance width="1011"/>
  <unicode hex="0032"/>
  <outline>
    <contour>
      <point x="931" y="152" type="line"/>
      <point x="329" y="152" type="line"/>
      <point x="652" y="575" type="line" smooth="yes"/>
      <point x="777" y="737"/>
      <point x="877" y="915"/>
      <point x="877" y="1087" type="curve" smooth="yes"/>
      <point x="877" y="1320"/>
      <point x="738" y="1476"/>
      <point x="504" y="1476" type="curve" smooth="yes"/>
      <point x="232" y="1476"/>
      <point x="95" y="1274"/>
      <point x="95" y="1028" type="curve"/>
      <point x="272" y="1028" type="line"/>
      <point x="272" y="1202"/>
      <point x="341" y="1324"/>
      <point x="504" y="1324" type="curve" smooth="yes"/>
      <point x="628" y="1324"/>
      <point x="700" y="1208"/>
      <point x="700" y="1065" type="curve" smooth="yes"/>
      <point x="700" y="951"/>
      <point x="665" y="860"/>
      <point x="518" y="664" type="curve" smooth="yes"/>
      <point x="117" y="133" type="line"/>
      <point x="117" y="0" type="line"/>
      <point x="931" y="0" type="line"/>
    </contour>
  </outline>
</glyph>
<glyph name="four" format="1">
  <advance width="1011"/>
  <unicode hex="0034"/>
  <outline>
    <contour>
      <point x="950" y="490" type="line"/>
      <point x="257" y="490" type="line"/>
      <point x="601" y="1164" type="line"/>
      <point x="743" y="1456" type="line"/>
      <point x="601" y="1456" type="line"/>
      <point x="60" y="447" type="line"/>
      <point x="60" y="338" type="line"/>
      <point x="950" y="338" type="line"/>
    </contour>
    <contour>
      <point x="788" y="1456" type="line"/>
      <point x="611" y="1456" type="line"/>
      <point x="611" y="0" type="line"/>
      <point x="788" y="0" type="line"/>
    </contour>
  </outline>
</glyph>
<glyph name="five" format="1">
  <advance width="1011"/>
  <unicode hex="0035"/>
  <outline>
    <contour>
      <point x="331" y="693" type="line"/>
      <point x="385" y="750"/>
      <point x="418" y="786"/>
      <point x="518" y="786" type="curve"/>
      <point x="666" y="786"/>
      <point x="749" y="645"/>
      <point x="749" y="462" type="curve" smooth="yes"/>
      <point x="749" y="259"/>
      <point x="667" y="132"/>
      <point x="530" y="132" type="curve" smooth="yes"/>
      <point x="410" y="132"/>
      <point x="331" y="218"/>
      <point x="312" y="383" type="curve"/>
      <point x="145" y="383" type="line"/>
      <point x="167" y="111"/>
      <point x="332" y="-20"/>
      <point x="530" y="-20" type="curve" smooth="yes"/>
      <point x="794" y="-20"/>
      <point x="926" y="185"/>
      <point x="926" y="464" type="curve" smooth="yes"/>
      <point x="926" y="761"/>
      <point x="789" y="952"/>
      <point x="561" y="952" type="curve"/>
      <point x="476" y="952"/>
      <point x="412" y="920"/>
      <point x="367" y="889" type="curve"/>
      <point x="401" y="1285" type="line"/>
      <point x="886" y="1285" type="line"/>
      <point x="886" y="1456" type="line"/>
      <point x="252" y="1456" type="line"/>
      <point x="190" y="731" type="line"/>
    </contour>
  </outline>
</glyph>
<glyph name="six" format="2">
  <advance width="1011"/>
  <unicode hex="0036"/>
  <outline>
    <contour>
      <point x="720" y="1458" type="line" name="hr00"/>
      <point x="218" y="1458"/>
      <point x="132" y="1036"/>
      <point x="132" y="626" type="curve" smooth="yes"/>
      <point x="132" y="539" type="line" smooth="yes"/>
      <point x="132" y="268"/>
      <point x="253" y="-20"/>
      <point x="525" y="-20" type="curve" smooth="yes"/>
      <point x="781" y="-20"/>
      <point x="911" y="199"/>
      <point x="911" y="475" type="curve" smooth="yes"/>
      <point x="911" y="714"/>
      <point x="808" y="955"/>
      <point x="560" y="955" type="curve" smooth="yes"/>
      <point x="390" y="955"/>
      <point x="242" y="834"/>
      <point x="205" y="536" type="curve"/>
      <point x="296" y="535" type="line"/>
      <point x="307" y="676"/>
      <point x="410" y="802"/>
      <point x="531" y="802" type="curve" smooth="yes"/>
      <point x="671" y="802"/>
      <point x="736" y="640"/>
      <point x="736" y="466" type="curve" smooth="yes"/>
      <point x="736" y="272"/>
      <point x="661" y="133"/>
      <point x="525" y="133" type="curve" smooth="yes"/>
      <point x="418" y="133"/>
      <point x="310" y="274"/>
      <point x="310" y="533" type="curve"/>
      <point x="310" y="747" type="line" smooth="yes"/>
      <point x="310" y="1020"/>
      <point x="383" y="1301"/>
      <point x="720" y="1301" type="curve" smooth="yes"/>
      <point x="733" y="1301" type="line"/>
      <point x="733" y="1458" type="line"/>
    </contour>
  </outline>
</glyph>
<glyph name="seven" format="2">
  <advance width="1011"/>
  <unicode hex="0037"/>
  <outline>
    <contour>
      <point x="921" y="1456" type="line"/>
      <point x="86" y="1456" type="line"/>
      <point x="86" y="1304" type="line"/>
      <point x="735" y="1304" type="line"/>
      <point x="234" y="0" type="line"/>
      <point x="420" y="0" type="line"/>
      <point x="921" y="1352" type="line"/>
    </contour>
  </outline>
</glyph>
<glyph name="nine" format="1">
  <advance width="1011"/>
  <unicode hex="0039"/>
  <outline>
    <contour>
      <point x="277" y="155" type="line"/>
      <point x="278" y="-2" type="line"/>
      <point x="291" y="-2" type="line" smooth="yes"/>
      <point x="824" y="-2"/>
      <point x="878" y="442"/>
      <point x="878" y="820" type="curve" smooth="yes"/>
      <point x="878" y="887" type="line" smooth="yes"/>
      <point x="878" y="1182"/>
      <point x="773" y="1476"/>
      <point x="487" y="1476" type="curve" smooth="yes"/>
      <point x="231" y="1476"/>
      <point x="104" y="1250"/>
      <point x="104" y="973" type="curve" smooth="yes"/>
      <point x="104" y="735"/>
      <point x="205" y="487"/>
      <point x="452" y="487" type="curve" smooth="yes"/>
      <point x="656" y="487"/>
      <point x="808" y="721"/>
      <point x="808" y="942" type="curve"/>
      <point x="725" y="942" type="line"/>
      <point x="714" y="785"/>
      <point x="599" y="641"/>
      <point x="482" y="641" type="curve" smooth="yes"/>
      <point x="341" y="641"/>
      <point x="277" y="810"/>
      <point x="277" y="983" type="curve" smooth="yes"/>
      <point x="277" y="1177"/>
      <point x="352" y="1323"/>
      <point x="487" y="1323" type="curve" smooth="yes"/>
      <point x="594" y="1323"/>
      <point x="702" y="1177"/>
      <point x="702" y="912" type="curve"/>
      <point x="702" y="689" type="line"/>
      <point x="702" y="420"/>
      <point x="651" y="155"/>
      <point x="291" y="155" type="curve" smooth="yes"/>
    </contour>
  </outline>
</glyph>
<glyph name="less" format="1">
  <advance width="913"/>
  <unicode hex="003C"/>
  <outline>
    <contour>
      <point x="200" y="672" type="line"/>
      <point x="79" y="690" type="line"/>
      <point x="79" y="575" type="line"/>
      <point x="763" y="196" type="line"/>
      <point x="763" y="392" type="line"/>
    </contour>
    <contour>
      <point x="763" y="902" type="line"/>
      <point x="763" y="1098" type="line"/>
      <point x="79" y="720" type="line"/>
      <point x="79" y="604" type="line"/>
      <point x="201" y="618" type="line"/>
    </contour>
  </outline>
</glyph>
<glyph name="greater" format="1">
  <advance width="943"/>
  <unicode hex="003E"/>
  <outline>
    <contour>
      <point x="720" y="632" type="line"/>
      <point x="857" y="605" type="line"/>
      <point x="857" y="722" type="line"/>
      <point x="136" y="1100" type="line"/>
      <point x="136" y="909" type="line"/>
    </contour>
    <contour>
      <point x="136" y="388" type="line"/>
      <point x="136" y="197" type="line"/>
      <point x="857" y="576" type="line"/>
      <point x="857" y="692" type="line"/>
      <point x="721" y="671" type="line"/>
    </contour>
  </outline>
</glyph>
<glyph name="question" format="2">
  <advance width="865"/>
  <unicode hex="003F"/>
  <guideline x="0.0" y="1658.0" angle="0.0" identifier="1OdPNIddan"/>
  <guideline x="0.0" y="555.0" angle="0.0" identifier="ss2wpdso6D"/>
  <outline>
    <contour>
      <point x="491" y="410" type="line"/>
      <point x="491" y="509"/>
      <point x="506" y="595"/>
      <point x="563" y="663" type="curve" smooth="yes"/>
      <point x="666" y="782"/>
      <point x="778" y="917"/>
      <point x="778" y="1096" type="curve" smooth="yes"/>
      <point x="778" y="1330"/>
      <point x="652" y="1476"/>
      <point x="434" y="1476" type="curve" smooth="yes"/>
      <point x="234" y="1476"/>
      <point x="83" y="1341"/>
      <point x="80" y="1115" type="curve"/>
      <point x="257" y="1115" type="line"/>
      <point x="257" y="1254"/>
      <point x="348" y="1314"/>
      <point x="434" y="1314" type="curve" smooth="yes"/>
      <point x="542" y="1314"/>
      <point x="602" y="1229"/>
      <point x="602" y="1091" type="curve" smooth="yes"/>
      <point x="602" y="955"/>
      <point x="533" y="890"/>
      <point x="461" y="796" type="curve" smooth="yes"/>
      <point x="353" y="666"/>
      <point x="316" y="602"/>
      <point x="314" y="410" type="curve"/>
    </contour>
    <contour>
      <point x="310" y="93" type="curve" smooth="yes"/>
      <point x="310" y="35"/>
      <point x="344" y="-12"/>
      <point x="410" y="-12" type="curve" smooth="yes"/>
      <point x="477" y="-12"/>
      <point x="511" y="35"/>
      <point x="511" y="93" type="curve" smooth="yes"/>
      <point x="511" y="153"/>
      <point x="477" y="200"/>
      <point x="410" y="200" type="curve" smooth="yes"/>
      <point x="344" y="200"/>
      <point x="310" y="153"/>
    </contour>
  </outline>
</glyph>
<glyph name="A" format="1">
  <advance width="1181"/>
  <unicode hex="0041"/>
  <outline>
    <contour>
      <point x="594" y="1601" type="move" name="top"/>
    </contour>
    <contour>
      <point x="604" y="0" type="move" name="bottom"/>
    </contour>
    <contour>
      <point x="1136" y="0" type="move" name="right"/>
    </contour>
    <contour>
      <point x="336" y="1454" type="move" name="tonos"/>
    </contour>
    <contour>
      <point x="1102" y="0" type="move" name="ogonek"/>
    </contour>
    <contour>
      <point x="1161" y="1600" type="move" name="top_dd"/>
    </contour>
    <contour>
      <point x="1161" y="-407" type="move" name="bottom_dd"/>
    </contour>
    <contour>
      <point x="1161" y="1601" type="move" name="top0315"/>
    </contour>
    <contour>
      <point x="629" y="1327" type="line"/>
      <point x="630" y="1456" type="line"/>
      <point x="512" y="1456" type="line"/>
      <point x="43" y="0" type="line"/>
      <point x="231" y="0" type="line"/>
    </contour>
    <contour>
      <point x="951" y="0" type="line"/>
      <point x="1139" y="0" type="line"/>
      <point x="670" y="1456" type="line"/>
      <point x="551" y="1456" type="line"/>
      <point x="553" y="1327" type="line"/>
    </contour>
    <contour>
      <point x="951" y="539" type="line"/>
      <point x="249" y="539" type="line"/>
      <point x="249" y="381" type="line"/>
      <point x="951" y="381" type="line"/>
    </contour>
  </outline>
</glyph>
<glyph name="B" format="1">
  <advance width="1118"/>
  <unicode hex="0042"/>
  <outline>
    <contour>
      <point x="598" y="681" type="line"/>
      <point x="653" y="728" type="line"/>
      <point x="841" y="753"/>
      <point x="972" y="888"/>
      <point x="972" y="1068" type="curve"/>
      <point x="972" y="1339"/>
      <point x="823" y="1456"/>
      <point x="573" y="1456" type="curve"/>
      <point x="157" y="1456" type="line"/>
      <point x="157" y="0" type="line"/>
      <point x="341" y="0" type="line"/>
      <point x="341" y="1298" type="line"/>
      <point x="573" y="1298" type="line"/>
      <point x="719" y="1298"/>
      <point x="788" y="1230"/>
      <point x="788" y="1070" type="curve"/>
      <point x="788" y="923"/>
      <point x="699" y="836"/>
      <point x="575" y="836" type="curve"/>
      <point x="300" y="836" type="line"/>
      <point x="302" y="681" type="line"/>
    </contour>
    <contour>
      <point x="591" y="0" type="line"/>
      <point x="839" y="0"/>
      <point x="1000" y="148"/>
      <point x="1000" y="420" type="curve" smooth="yes"/>
      <point x="1000" y="608"/>
      <point x="904" y="761"/>
      <point x="724" y="780" type="curve"/>
      <point x="683" y="836" type="line"/>
      <point x="363" y="836" type="line"/>
      <point x="361" y="681" type="line"/>
      <point x="598" y="681" type="line" smooth="yes"/>
      <point x="753" y="681"/>
      <point x="816" y="580"/>
      <point x="816" y="418" type="curve" smooth="yes"/>
      <point x="816" y="258"/>
      <point x="734" y="157"/>
      <point x="591" y="157" type="curve" smooth="yes"/>
      <point x="333" y="157" type="line"/>
      <point x="226" y="0" type="line"/>
    </contour>
    <contour>
      <point x="536" y="1612" type="move" name="top"/>
    </contour>
    <contour>
      <point x="544" y="10" type="move" name="bottom"/>
    </contour>
    <contour>
      <point x="1098" y="1600" type="move" name="top_dd"/>
    </contour>
    <contour>
      <point x="1098" y="-407" type="move" name="bottom_dd"/>
    </contour>
    <contour>
      <point x="1098" y="1612" type="move" name="top0315"/>
    </contour>
  </outline>
</glyph>
<glyph name="C" format="1">
  <advance width="1161"/>
  <unicode hex="0043"/>
  <outline>
    <contour>
      <point x="886" y="463" type="line"/>
      <point x="867" y="231"/>
      <point x="803" y="137"/>
      <point x="601" y="137" type="curve" smooth="yes"/>
      <point x="387" y="137"/>
      <point x="309" y="339"/>
      <point x="309" y="594" type="curve" smooth="yes"/>
      <point x="309" y="865" type="line" smooth="yes"/>
      <point x="309" y="1139"/>
      <point x="405" y="1318"/>
      <point x="618" y="1318" type="curve" smooth="yes"/>
      <point x="798" y="1318"/>
      <point x="871" y="1218"/>
      <point x="886" y="989" type="curve"/>
      <point x="1070" y="989" type="line"/>
      <point x="1057" y="1302"/>
      <point x="901" y="1476"/>
      <point x="618" y="1476" type="curve" smooth="yes"/>
      <point x="309" y="1476"/>
      <point x="125" y="1236"/>
      <point x="125" y="863" type="curve"/>
      <point x="125" y="594" type="line"/>
      <point x="125" y="219"/>
      <point x="309" y="-20"/>
      <point x="601" y="-20" type="curve" smooth="yes"/>
      <point x="904" y="-20"/>
      <point x="1056" y="163"/>
      <point x="1070" y="463" type="curve"/>
    </contour>
    <contour>
      <point x="591" y="1633" type="move" name="top"/>
    </contour>
    <contour>
      <point x="591" y="-10" type="move" name="bottom"/>
    </contour>
    <contour>
      <point x="1141" y="1600" type="move" name="top_dd"/>
    </contour>
    <contour>
      <point x="1141" y="-407" type="move" name="bottom_dd"/>
    </contour>
    <contour>
      <point x="1141" y="1633" type="move" name="top0315"/>
    </contour>
  </outline>
</glyph>
<glyph name="D" format="1">
  <advance width="1169"/>
  <unicode hex="0044"/>
  <outline>
    <contour>
      <point x="487" y="0" type="line"/>
      <point x="835" y="0"/>
      <point x="1042" y="207"/>
      <point x="1042" y="604" type="curve"/>
      <point x="1042" y="851" type="line"/>
      <point x="1042" y="1248"/>
      <point x="832" y="1456"/>
      <point x="504" y="1456" type="curve"/>
      <point x="234" y="1456" type="line"/>
      <point x="234" y="1298" type="line"/>
      <point x="504" y="1298" type="line"/>
      <point x="744" y="1298"/>
      <point x="860" y="1161"/>
      <point x="860" y="853" type="curve"/>
      <point x="860" y="604" type="line" smooth="yes"/>
      <point x="860" y="309"/>
      <point x="748" y="157"/>
      <point x="487" y="157" type="curve"/>
      <point x="241" y="157" type="line"/>
      <point x="239" y="0" type="line"/>
    </contour>
    <contour>
      <point x="341" y="1456" type="line"/>
      <point x="157" y="1456" type="line"/>
      <point x="157" y="0" type="line"/>
      <point x="341" y="0" type="line"/>
    </contour>
    <contour>
      <point x="534" y="1612" type="move" name="top"/>
    </contour>
    <contour>
      <point x="285" y="738" type="move" name="cross"/>
    </contour>
    <contour>
      <point x="538" y="10" type="move" name="bottom"/>
    </contour>
    <contour>
      <point x="1149" y="1600" type="move" name="top_dd"/>
    </contour>
    <contour>
      <point x="1149" y="-407" type="move" name="bottom_dd"/>
    </contour>
    <contour>
      <point x="1149" y="1612" type="move" name="top0315"/>
    </contour>
  </outline>
</glyph>
<glyph name="E" format="1">
  <advance width="1018"/>
  <unicode hex="0045"/>
  <outline>
    <contour>
      <point x="940" y="157" type="line"/>
      <point x="308" y="157" type="line"/>
      <point x="308" y="0" type="line"/>
      <point x="940" y="0" type="line"/>
    </contour>
    <contour>
      <point x="341" y="1456" type="line"/>
      <point x="157" y="1456" type="line"/>
      <point x="157" y="0" type="line"/>
      <point x="341" y="0" type="line"/>
    </contour>
    <contour>
      <point x="855" y="830" type="line"/>
      <point x="308" y="830" type="line"/>
      <point x="308" y="673" type="line"/>
      <point x="855" y="673" type="line"/>
    </contour>
    <contour>
      <point x="930" y="1456" type="line"/>
      <point x="308" y="1456" type="line"/>
      <point x="308" y="1298" type="line"/>
      <point x="930" y="1298" type="line"/>
    </contour>
    <contour>
      <point x="540" y="1612" type="move" name="top"/>
    </contour>
    <contour>
      <point x="540" y="10" type="move" name="bottom"/>
    </contour>
    <contour>
      <point x="-11" y="1455" type="move" name="tonos"/>
    </contour>
    <contour>
      <point x="877" y="0" type="move" name="ogonek"/>
    </contour>
    <contour>
      <point x="998" y="1600" type="move" name="top_dd"/>
    </contour>
    <contour>
      <point x="998" y="-407" type="move" name="bottom_dd"/>
    </contour>
    <contour>
      <point x="998" y="1612" type="move" name="top0315"/>
    </contour>
  </outline>
</glyph>
<glyph name="F" format="1">
  <advance width="985"/>
  <unicode hex="0046"/>
  <outline>
    <contour>
      <point x="341" y="1456" type="line"/>
      <point x="157" y="1456" type="line"/>
      <point x="157" y="0" type="line"/>
      <point x="341" y="0" type="line"/>
    </contour>
    <contour>
      <point x="832" y="801" type="line"/>
      <point x="306" y="801" type="line"/>
      <point x="306" y="643" type="line"/>
      <point x="832" y="643" type="line"/>
    </contour>
    <contour>
      <point x="915" y="1456" type="line"/>
      <point x="306" y="1456" type="line"/>
      <point x="306" y="1298" type="line"/>
      <point x="915" y="1298" type="line"/>
    </contour>
    <contour>
      <point x="540" y="1612" type="move" name="top"/>
    </contour>
    <contour>
      <point x="466" y="10" type="move" name="bottom"/>
    </contour>
    <contour>
      <point x="965" y="1600" type="move" name="top_dd"/>
    </contour>
    <contour>
      <point x="965" y="-407" type="move" name="bottom_dd"/>
    </contour>
    <contour>
      <point x="965" y="1612" type="move" name="top0315"/>
    </contour>
    <contour>
      <point x="540" y="1612" type="move" name="parent_top"/>
    </contour>
  </outline>
</glyph>
<glyph name="G" format="1">
  <advance width="1210"/>
  <unicode hex="0047"/>
  <outline>
    <contour>
      <point x="579" y="1633" type="move" name="top"/>
    </contour>
    <contour>
      <point x="633" y="-9" type="move" name="bottom"/>
    </contour>
    <contour>
      <point x="1190" y="1600" type="move" name="top_dd"/>
    </contour>
    <contour>
      <point x="1190" y="-407" type="move" name="bottom_dd"/>
    </contour>
    <contour>
      <point x="1190" y="1633" type="move" name="top0315"/>
    </contour>
    <contour>
      <point x="1069" y="725" type="line"/>
      <point x="619" y="725" type="line"/>
      <point x="619" y="569" type="line"/>
      <point x="886" y="569" type="line"/>
      <point x="886" y="233" type="line"/>
      <point x="854" y="205"/>
      <point x="803" y="137"/>
      <point x="634" y="137" type="curve" smooth="yes"/>
      <point x="435" y="137"/>
      <point x="308" y="282"/>
      <point x="308" y="592" type="curve" smooth="yes"/>
      <point x="308" y="867" type="line" smooth="yes"/>
      <point x="308" y="1169"/>
      <point x="391" y="1318"/>
      <point x="614" y="1318" type="curve" smooth="yes"/>
      <point x="789" y="1318"/>
      <point x="870" y="1210"/>
      <point x="885" y="1030" type="curve"/>
      <point x="1069" y="1030" type="line"/>
      <point x="1054" y="1310"/>
      <point x="896" y="1476"/>
      <point x="614" y="1476" type="curve" smooth="yes"/>
      <point x="289" y="1476"/>
      <point x="124" y="1274"/>
      <point x="124" y="865" type="curve" smooth="yes"/>
      <point x="124" y="592" type="line" smooth="yes"/>
      <point x="124" y="182"/>
      <point x="332" y="-20"/>
      <point x="633" y="-20" type="curve" smooth="yes"/>
      <point x="914" y="-20"/>
      <point x="1021" y="117"/>
      <point x="1069" y="182" type="curve"/>
    </contour>
  </outline>
</glyph>
<glyph name="H" format="1">
  <advance width="1270"/>
  <unicode hex="0048"/>
  <outline>
    <contour>
      <point x="947" y="830" type="line"/>
      <point x="316" y="830" type="line"/>
      <point x="316" y="673" type="line"/>
      <point x="947" y="673" type="line"/>
    </contour>
    <contour>
      <point x="341" y="1456" type="line"/>
      <point x="157" y="1456" type="line"/>
      <point x="157" y="0" type="line"/>
      <point x="341" y="0" type="line"/>
    </contour>
    <contour>
      <point x="1110" y="1456" type="line"/>
      <point x="926" y="1456" type="line"/>
      <point x="926" y="0" type="line"/>
      <point x="1110" y="0" type="line"/>
    </contour>
    <contour>
      <point x="618" y="1612" type="move" name="top"/>
    </contour>
    <contour>
      <point x="620" y="10" type="move" name="bottom"/>
    </contour>
    <contour>
      <point x="1250" y="1600" type="move" name="top_dd"/>
    </contour>
    <contour>
      <point x="1250" y="-407" type="move" name="bottom_dd"/>
    </contour>
    <contour>
      <point x="1250" y="1612" type="move" name="top0315"/>
    </contour>
    <contour>
      <point x="618" y="1612" type="move" name="parent_top"/>
    </contour>
  </outline>
</glyph>
<glyph name="I" format="2">
  <advance width="512"/>
  <unicode hex="0049"/>
  <guideline x="0.0" y="901.0" angle="0.0" identifier="1BeO3the3v"/>
  <guideline x="0.0" y="555.0" angle="0.0" identifier="eZyOrWmG9S"/>
  <anchor x="256" y="1612" name="top"/>
  <anchor x="256" y="9" name="bottom"/>
  <anchor x="492" y="1600" name="top_dd"/>
  <anchor x="492" y="-407" name="bottom_dd"/>
  <anchor x="492" y="1612" name="top0315"/>
  <anchor x="256" y="1612" name="parent_top"/>
  <outline>
    <contour>
      <point x="349" y="1456" type="line"/>
      <point x="165" y="1456" type="line"/>
      <point x="165" y="0" type="line"/>
      <point x="349" y="0" type="line"/>
    </contour>
  </outline>
</glyph>
<glyph name="J" format="1">
  <advance width="990"/>
  <unicode hex="004A"/>
  <outline>
    <contour>
      <point x="727" y="1599" type="move" name="top"/>
    </contour>
    <contour>
      <point x="450" y="-10" type="move" name="bottom"/>
    </contour>
    <contour>
      <point x="970" y="1600" type="move" name="top_dd"/>
    </contour>
    <contour>
      <point x="970" y="-407" type="move" name="bottom_dd"/>
    </contour>
    <contour>
      <point x="970" y="1599" type="move" name="top0315"/>
    </contour>
    <contour>
      <point x="660" y="425" type="line"/>
      <point x="660" y="236"/>
      <point x="571" y="137"/>
      <point x="451" y="137" type="curve" smooth="yes"/>
      <point x="333" y="137"/>
      <point x="243" y="219"/>
      <point x="243" y="403" type="curve"/>
      <point x="59" y="403" type="line"/>
      <point x="59" y="116"/>
      <point x="224" y="-20"/>
      <point x="451" y="-20" type="curve" smooth="yes"/>
      <point x="681" y="-20"/>
      <point x="843" y="137"/>
      <point x="843" y="425" type="curve"/>
      <point x="843" y="1456" type="line"/>
      <point x="660" y="1456" type="line"/>
    </contour>
  </outline>
</glyph>
<glyph name="K" format="1">
  <advance width="1117"/>
  <unicode hex="004B"/>
  <outline>
    <contour>
      <point x="580" y="90" type="move" name="bottom"/>
    </contour>
    <contour>
      <point x="1054" y="-2" type="move" name="right"/>
    </contour>
    <contour>
      <point x="252" y="1229" type="move" name="cross"/>
    </contour>
    <contour>
      <point x="528" y="1595" type="move" name="top"/>
    </contour>
    <contour>
      <point x="1097" y="1600" type="move" name="top_dd"/>
    </contour>
    <contour>
      <point x="1097" y="-407" type="move" name="bottom_dd"/>
    </contour>
    <contour>
      <point x="1097" y="1595" type="move" name="top0315"/>
    </contour>
    <contour>
      <point x="341" y="1456" type="line"/>
      <point x="157" y="1456" type="line"/>
      <point x="157" y="0" type="line"/>
      <point x="341" y="0" type="line"/>
    </contour>
    <contour>
      <point x="1073" y="1456" type="line"/>
      <point x="853" y="1456" type="line"/>
      <point x="461" y="912" type="line"/>
      <point x="246" y="630" type="line"/>
      <point x="279" y="424" type="line"/>
      <point x="572" y="777" type="line"/>
    </contour>
    <contour>
      <point x="890" y="0" type="line"/>
      <point x="1109" y="0" type="line"/>
      <point x="570" y="863" type="line"/>
      <point x="461" y="710" type="line"/>
    </contour>
  </outline>
</glyph>
<glyph name="L" format="1">
  <advance width="974"/>
  <unicode hex="004C"/>
  <outline>
    <contour>
      <point x="912" y="157" type="line"/>
      <point x="308" y="157" type="line"/>
      <point x="308" y="0" type="line"/>
      <point x="912" y="0" type="line"/>
    </contour>
    <contour>
      <point x="341" y="1456" type="line"/>
      <point x="157" y="1456" type="line"/>
      <point x="157" y="0" type="line"/>
      <point x="341" y="0" type="line"/>
    </contour>
    <contour>
      <point x="246" y="1596" type="move" name="top"/>
    </contour>
    <contour>
      <point x="540" y="10" type="move" name="bottom"/>
    </contour>
    <contour>
      <point x="954" y="1600" type="move" name="top_dd"/>
    </contour>
    <contour>
      <point x="954" y="-407" type="move" name="bottom_dd"/>
    </contour>
    <contour>
      <point x="954" y="1596" type="move" name="top0315"/>
    </contour>
    <contour>
      <point x="246" y="1596" type="move" name="parent_top"/>
    </contour>
  </outline>
</glyph>
<glyph name="M" format="1">
  <advance width="1547"/>
  <unicode hex="004D"/>
  <outline>
    <contour>
      <point x="215" y="1456" type="line"/>
      <point x="703" y="0" type="line"/>
      <point x="843" y="0" type="line"/>
      <point x="1332" y="1456" type="line"/>
      <point x="1154" y="1456" type="line"/>
      <point x="774" y="269" type="line"/>
      <point x="393" y="1456" type="line"/>
    </contour>
    <contour>
      <point x="157" y="1456" type="line"/>
      <point x="157" y="0" type="line"/>
      <point x="340" y="0" type="line"/>
      <point x="340" y="568" type="line"/>
      <point x="313" y="1456" type="line"/>
    </contour>
    <contour>
      <point x="1233" y="1456" type="line"/>
      <point x="1206" y="568" type="line"/>
      <point x="1206" y="0" type="line"/>
      <point x="1389" y="0" type="line"/>
      <point x="1389" y="1456" type="line"/>
    </contour>
    <contour>
      <point x="768" y="1601" type="move" name="top"/>
    </contour>
    <contour>
      <point x="1376" y="0" type="move" name="right"/>
    </contour>
    <contour>
      <point x="773" y="10" type="move" name="bottom"/>
    </contour>
    <contour>
      <point x="1527" y="1600" type="move" name="top_dd"/>
    </contour>
    <contour>
      <point x="1527" y="-407" type="move" name="bottom_dd"/>
    </contour>
    <contour>
      <point x="1527" y="1601" type="move" name="top0315"/>
    </contour>
  </outline>
</glyph>
<glyph name="N" format="2">
  <advance width="1269"/>
  <unicode hex="004E"/>
  <anchor x="630" y="1601" name="top"/>
  <anchor x="624" y="10" name="bottom"/>
  <anchor x="1249" y="1600" name="top_dd"/>
  <anchor x="1249" y="-407" name="bottom_dd"/>
  <anchor x="1249" y="1601" name="top0315"/>
  <anchor x="630" y="1601" name="parent_top"/>
  <outline>
    <contour>
      <point x="1109" y="1456" type="line"/>
      <point x="927" y="1456" type="line"/>
      <point x="927" y="330" type="line"/>
      <point x="341" y="1456" type="line"/>
      <point x="157" y="1456" type="line"/>
      <point x="157" y="0" type="line"/>
      <point x="341" y="0" type="line"/>
      <point x="341" y="1123" type="line"/>
      <point x="924" y="0" type="line"/>
      <point x="1109" y="0" type="line"/>
    </contour>
  </outline>
</glyph>
<glyph name="O" format="1">
  <advance width="1231"/>
  <unicode hex="004F"/>
  <outline>
    <contour>
      <point x="1104" y="854" type="line"/>
      <point x="1104" y="1265"/>
      <point x="916" y="1476"/>
      <point x="615" y="1476" type="curve" smooth="yes"/>
      <point x="323" y="1476"/>
      <point x="126" y="1265"/>
      <point x="126" y="854" type="curve"/>
      <point x="126" y="601" type="line"/>
      <point x="126" y="189"/>
      <point x="325" y="-20"/>
      <point x="616" y="-20" type="curve" smooth="yes"/>
      <point x="917" y="-20"/>
      <point x="1104" y="189"/>
      <point x="1104" y="601" type="curve"/>
    </contour>
    <contour>
      <point x="922" y="601" type="line"/>
      <point x="922" y="279"/>
      <point x="817" y="143"/>
      <point x="616" y="143" type="curve" smooth="yes"/>
      <point x="428" y="143"/>
      <point x="308" y="279"/>
      <point x="308" y="601" type="curve" smooth="yes"/>
      <point x="308" y="856" type="line" smooth="yes"/>
      <point x="308" y="1176"/>
      <point x="426" y="1312"/>
      <point x="615" y="1312" type="curve" smooth="yes"/>
      <point x="814" y="1312"/>
      <point x="922" y="1176"/>
      <point x="922" y="856" type="curve"/>
    </contour>
    <contour>
      <point x="618" y="1603" type="move" name="top"/>
    </contour>
    <contour>
      <point x="618" y="0" type="move" name="bottom"/>
    </contour>
    <contour>
      <point x="1211" y="1600" type="move" name="top_dd"/>
    </contour>
    <contour>
      <point x="1211" y="-407" type="move" name="bottom_dd"/>
    </contour>
    <contour>
      <point x="1211" y="1603" type="move" name="top0315"/>
    </contour>
    <contour>
      <point x="618" y="1603" type="move" name="parent_top"/>
    </contour>
  </outline>
</glyph>
<glyph name="P" format="1">
  <advance width="1135"/>
  <unicode hex="0050"/>
  <outline>
    <contour>
      <point x="43" y="1454" type="move" name="tonos"/>
    </contour>
    <contour>
      <point x="536" y="1612" type="move" name="top"/>
    </contour>
    <contour>
      <point x="465" y="10" type="move" name="bottom"/>
    </contour>
    <contour>
      <point x="1115" y="1600" type="move" name="top_dd"/>
    </contour>
    <contour>
      <point x="1115" y="-407" type="move" name="bottom_dd"/>
    </contour>
    <contour>
      <point x="1115" y="1612" type="move" name="top0315"/>
    </contour>
    <contour>
      <point x="621" y="571" type="line"/>
      <point x="902" y="571"/>
      <point x="1057" y="731"/>
      <point x="1057" y="1012" type="curve"/>
      <point x="1057" y="1270"/>
      <point x="902" y="1456"/>
      <point x="621" y="1456" type="curve"/>
      <point x="157" y="1456" type="line"/>
      <point x="157" y="0" type="line"/>
      <point x="341" y="0" type="line"/>
      <point x="341" y="1298" type="line"/>
      <point x="621" y="1298" type="line"/>
      <point x="800" y="1298"/>
      <point x="873" y="1160"/>
      <point x="873" y="1010" type="curve"/>
      <point x="873" y="845"/>
      <point x="800" y="728"/>
      <point x="621" y="728" type="curve"/>
      <point x="303" y="728" type="line"/>
      <point x="303" y="571" type="line"/>
    </contour>
  </outline>
</glyph>
<glyph name="Q" format="1">
  <advance width="1231"/>
  <unicode hex="0051"/>
  <outline>
    <contour>
      <point x="608" y="1600" type="move" name="top"/>
    </contour>
    <contour>
      <point x="606" y="-10" type="move" name="bottom"/>
    </contour>
    <contour>
      <point x="1211" y="1600" type="move" name="top_dd"/>
    </contour>
    <contour>
      <point x="1211" y="-407" type="move" name="bottom_dd"/>
    </contour>
    <contour>
      <point x="1211" y="1600" type="move" name="top0315"/>
    </contour>
    <contour>
      <point x="793" y="167" type="line"/>
      <point x="675" y="43" type="line"/>
      <point x="991" y="-246" type="line"/>
      <point x="1116" y="-126" type="line"/>
    </contour>
    <contour>
      <point x="1096" y="854" type="line"/>
      <point x="1096" y="1266"/>
      <point x="908" y="1476"/>
      <point x="606" y="1476" type="curve" smooth="yes"/>
      <point x="314" y="1476"/>
      <point x="117" y="1266"/>
      <point x="117" y="854" type="curve"/>
      <point x="117" y="602" type="line"/>
      <point x="117" y="189"/>
      <point x="316" y="-20"/>
      <point x="607" y="-20" type="curve" smooth="yes"/>
      <point x="909" y="-20"/>
      <point x="1096" y="189"/>
      <point x="1096" y="602" type="curve"/>
    </contour>
    <contour>
      <point x="914" y="602" type="line"/>
      <point x="914" y="279"/>
      <point x="808" y="143"/>
      <point x="607" y="143" type="curve" smooth="yes"/>
      <point x="420" y="143"/>
      <point x="300" y="279"/>
      <point x="300" y="602" type="curve" smooth="yes"/>
      <point x="300" y="856" type="line" smooth="yes"/>
      <point x="300" y="1176"/>
      <point x="418" y="1312"/>
      <point x="606" y="1312" type="curve" smooth="yes"/>
      <point x="805" y="1312"/>
      <point x="914" y="1176"/>
      <point x="914" y="856" type="curve"/>
    </contour>
  </outline>
</glyph>
<glyph name="R" format="1">
  <advance width="1087"/>
  <unicode hex="0052"/>
  <outline>
    <contour>
      <point x="533" y="1601" type="move" name="top"/>
    </contour>
    <contour>
      <point x="534" y="10" type="move" name="bottom"/>
    </contour>
    <contour>
      <point x="1067" y="1600" type="move" name="top_dd"/>
    </contour>
    <contour>
      <point x="1067" y="-407" type="move" name="bottom_dd"/>
    </contour>
    <contour>
      <point x="1067" y="1601" type="move" name="top0315"/>
    </contour>
    <contour>
      <point x="158" y="1456" type="line"/>
      <point x="158" y="0" type="line"/>
      <point x="342" y="0" type="line"/>
      <point x="342" y="1298" type="line"/>
      <point x="565" y="1298" type="line" smooth="yes"/>
      <point x="746" y="1298"/>
      <point x="815" y="1187"/>
      <point x="815" y="1019" type="curve" smooth="yes"/>
      <point x="815" y="868"/>
      <point x="731" y="747"/>
      <point x="563" y="747" type="curve" smooth="yes"/>
      <point x="302" y="747" type="line"/>
      <point x="304" y="590" type="line"/>
      <point x="667" y="590" type="line"/>
      <point x="717" y="611" type="line"/>
      <point x="896" y="666"/>
      <point x="999" y="818"/>
      <point x="999" y="1019" type="curve" smooth="yes"/>
      <point x="999" y="1303"/>
      <point x="848" y="1456"/>
      <point x="565" y="1456" type="curve" smooth="yes"/>
    </contour>
    <contour>
      <point x="857" y="0" type="line"/>
      <point x="1054" y="0" type="line"/>
      <point x="1054" y="12" type="line"/>
      <point x="758" y="661" type="line"/>
      <point x="567" y="660" type="line"/>
    </contour>
  </outline>
</glyph>
<glyph name="S" format="1">
  <advance width="1062"/>
  <unicode hex="0053"/>
  <outline>
    <contour>
      <point x="541" y="1603" type="move" name="top"/>
    </contour>
    <contour>
      <point x="547" y="-1" type="move" name="bottom"/>
    </contour>
    <contour>
      <point x="1042" y="1600" type="move" name="top_dd"/>
    </contour>
    <contour>
      <point x="1042" y="-407" type="move" name="bottom_dd"/>
    </contour>
    <contour>
      <point x="1042" y="1603" type="move" name="top0315"/>
    </contour>
    <contour>
      <point x="794" y="368" type="curve" smooth="yes"/>
      <point x="794" y="226"/>
      <point x="710" y="137"/>
      <point x="550" y="137" type="curve" smooth="yes"/>
      <point x="396" y="137"/>
      <point x="269" y="223"/>
      <point x="269" y="422" type="curve"/>
      <point x="85" y="422" type="line"/>
      <point x="85" y="132"/>
      <point x="321" y="-20"/>
      <point x="550" y="-20" type="curve" smooth="yes"/>
      <point x="813" y="-20"/>
      <point x="978" y="133"/>
      <point x="978" y="370" type="curve"/>
      <point x="978" y="596"/>
      <point x="863" y="724"/>
      <point x="578" y="818" type="curve"/>
      <point x="394" y="884"/>
      <point x="309" y="960"/>
      <point x="309" y="1082" type="curve"/>
      <point x="309" y="1217"/>
      <point x="380" y="1318"/>
      <point x="541" y="1318" type="curve" smooth="yes"/>
      <point x="718" y="1318"/>
      <point x="794" y="1199"/>
      <point x="794" y="1036" type="curve"/>
      <point x="978" y="1036" type="line"/>
      <point x="978" y="1263"/>
      <point x="825" y="1476"/>
      <point x="541" y="1476" type="curve" smooth="yes"/>
      <point x="287" y="1476"/>
      <point x="124" y="1306"/>
      <point x="124" y="1080" type="curve"/>
      <point x="124" y="854"/>
      <point x="279" y="734"/>
      <point x="519" y="650" type="curve"/>
      <point x="741" y="570"/>
      <point x="794" y="504"/>
    </contour>
  </outline>
</glyph>
<glyph name="T" format="1">
  <advance width="1066"/>
  <unicode hex="0054"/>
  <outline>
    <contour>
      <point x="625" y="1456" type="line"/>
      <point x="443" y="1456" type="line"/>
      <point x="443" y="0" type="line"/>
      <point x="625" y="0" type="line"/>
    </contour>
    <contour>
      <point x="1008" y="1456" type="line"/>
      <point x="61" y="1456" type="line"/>
      <point x="61" y="1298" type="line"/>
      <point x="1008" y="1298" type="line"/>
    </contour>
    <contour>
      <point x="534" y="1600" type="move" name="top"/>
    </contour>
    <contour>
      <point x="536" y="0" type="move" name="bottom"/>
    </contour>
    <contour>
      <point x="1046" y="1600" type="move" name="top_dd"/>
    </contour>
    <contour>
      <point x="1046" y="-407" type="move" name="bottom_dd"/>
    </contour>
    <contour>
      <point x="1046" y="1600" type="move" name="top0315"/>
    </contour>
    <contour>
      <point x="534" y="1600" type="move" name="parent_top"/>
    </contour>
  </outline>
</glyph>
<glyph name="U" format="1">
  <advance width="1150"/>
  <unicode hex="0055"/>
  <outline>
    <contour>
      <point x="576" y="1601" type="move" name="top"/>
    </contour>
    <contour>
      <point x="577" y="0" type="move" name="bottom"/>
    </contour>
    <contour>
      <point x="726" y="0" type="move" name="right"/>
    </contour>
    <contour>
      <point x="811" y="44" type="move" name="ogonek"/>
    </contour>
    <contour>
      <point x="1130" y="1600" type="move" name="top_dd"/>
    </contour>
    <contour>
      <point x="1130" y="-407" type="move" name="bottom_dd"/>
    </contour>
    <contour>
      <point x="1130" y="1601" type="move" name="top0315"/>
    </contour>
    <contour>
      <point x="842" y="1456" type="line"/>
      <point x="842" y="431" type="line" smooth="yes"/>
      <point x="842" y="203"/>
      <point x="738" y="137"/>
      <point x="577" y="137" type="curve" smooth="yes"/>
      <point x="417" y="137"/>
      <point x="313" y="203"/>
      <point x="313" y="431" type="curve" smooth="yes"/>
      <point x="313" y="1456" type="line"/>
      <point x="130" y="1456" type="line"/>
      <point x="130" y="431" type="line"/>
      <point x="130" y="103"/>
      <point x="325" y="-20"/>
      <point x="577" y="-20" type="curve" smooth="yes"/>
      <point x="813" y="-20"/>
      <point x="1026" y="103"/>
      <point x="1026" y="431" type="curve"/>
      <point x="1026" y="1456" type="line"/>
    </contour>
  </outline>
</glyph>
<glyph name="V" format="1">
  <advance width="1148"/>
  <unicode hex="0056"/>
  <outline>
    <contour>
      <point x="577" y="1612" type="move" name="top"/>
    </contour>
    <contour>
      <point x="577" y="10" type="move" name="bottom"/>
    </contour>
    <contour>
      <point x="1128" y="1600" type="move" name="top_dd"/>
    </contour>
    <contour>
      <point x="1128" y="-407" type="move" name="bottom_dd"/>
    </contour>
    <contour>
      <point x="1128" y="1612" type="move" name="top0315"/>
    </contour>
    <contour>
      <point x="557" y="221" type="line"/>
      <point x="514" y="0" type="line"/>
      <point x="655" y="0" type="line"/>
      <point x="1107" y="1456" type="line"/>
      <point x="907" y="1456" type="line"/>
    </contour>
    <contour>
      <point x="243" y="1456" type="line"/>
      <point x="43" y="1456" type="line"/>
      <point x="495" y="0" type="line"/>
      <point x="636" y="0" type="line"/>
      <point x="590" y="221" type="line"/>
    </contour>
  </outline>
</glyph>
<glyph name="W" format="1">
  <advance width="1560"/>
  <unicode hex="0057"/>
  <outline>
    <contour>
      <point x="484" y="440" type="line"/>
      <point x="395" y="0" type="line"/>
      <point x="526" y="0" type="line"/>
      <point x="779" y="1061" type="line"/>
      <point x="848" y="1456" type="line"/>
      <point x="717" y="1456" type="line"/>
    </contour>
    <contour>
      <point x="254" y="1456" type="line"/>
      <point x="71" y="1456" type="line"/>
      <point x="361" y="0" type="line"/>
      <point x="490" y="0" type="line"/>
      <point x="436" y="460" type="line"/>
    </contour>
    <contour>
      <point x="1145" y="461" type="line"/>
      <point x="1088" y="0" type="line"/>
      <point x="1217" y="0" type="line"/>
      <point x="1506" y="1456" type="line"/>
      <point x="1323" y="1456" type="line"/>
    </contour>
    <contour>
      <point x="869" y="1456" type="line"/>
      <point x="740" y="1456" type="line"/>
      <point x="809" y="1061" type="line"/>
      <point x="1051" y="0" type="line"/>
      <point x="1182" y="0" type="line"/>
      <point x="1095" y="440" type="line"/>
    </contour>
    <contour>
      <point x="796" y="1601" type="move" name="top"/>
    </contour>
    <contour>
      <point x="794" y="10" type="move" name="bottom"/>
    </contour>
    <contour>
      <point x="1540" y="1600" type="move" name="top_dd"/>
    </contour>
    <contour>
      <point x="1540" y="-407" type="move" name="bottom_dd"/>
    </contour>
    <contour>
      <point x="1540" y="1601" type="move" name="top0315"/>
    </contour>
  </outline>
</glyph>
<glyph name="X" format="1">
  <advance width="1129"/>
  <unicode hex="0058"/>
  <outline>
    <contour>
      <point x="560" y="10" type="move" name="bottom"/>
    </contour>
    <contour>
      <point x="951" y="0" type="move" name="right"/>
    </contour>
    <contour>
      <point x="566" y="742" type="move" name="cross"/>
    </contour>
    <contour>
      <point x="567" y="1612" type="move" name="top"/>
    </contour>
    <contour>
      <point x="1109" y="1600" type="move" name="top_dd"/>
    </contour>
    <contour>
      <point x="1109" y="-407" type="move" name="bottom_dd"/>
    </contour>
    <contour>
      <point x="1109" y="1612" type="move" name="top0315"/>
    </contour>
    <contour>
      <point x="291" y="1456" type="line"/>
      <point x="77" y="1456" type="line"/>
      <point x="457" y="735" type="line"/>
      <point x="69" y="0" type="line"/>
      <point x="286" y="0" type="line"/>
      <point x="567" y="569" type="line"/>
      <point x="847" y="0" type="line"/>
      <point x="1063" y="0" type="line"/>
      <point x="676" y="735" type="line"/>
      <point x="1055" y="1456" type="line"/>
      <point x="841" y="1456" type="line"/>
      <point x="567" y="898" type="line"/>
    </contour>
  </outline>
</glyph>
<glyph name="Y" format="1">
  <advance width="1075"/>
  <unicode hex="0059"/>
  <outline>
    <contour>
      <point x="239" y="1456" type="line"/>
      <point x="30" y="1456" type="line"/>
      <point x="444" y="544" type="line"/>
      <point x="444" y="0" type="line"/>
      <point x="628" y="0" type="line"/>
      <point x="628" y="544" type="line"/>
      <point x="1042" y="1456" type="line"/>
      <point x="834" y="1456" type="line"/>
      <point x="536" y="725" type="line"/>
    </contour>
    <contour>
      <point x="541" y="1600" type="move" name="top"/>
    </contour>
    <contour>
      <point x="537" y="1" type="move" name="bottom"/>
    </contour>
    <contour>
      <point x="1055" y="1600" type="move" name="top_dd"/>
    </contour>
    <contour>
      <point x="1055" y="-407" type="move" name="bottom_dd"/>
    </contour>
    <contour>
      <point x="1055" y="1600" type="move" name="top0315"/>
    </contour>
    <contour>
      <point x="541" y="1600" type="move" name="parent_top"/>
    </contour>
  </outline>
</glyph>
<glyph name="Z" format="1">
  <advance width="1071"/>
  <unicode hex="005A"/>
  <outline>
    <contour>
      <point x="985" y="157" type="line"/>
      <point x="162" y="157" type="line"/>
      <point x="162" y="0" type="line"/>
      <point x="985" y="0" type="line"/>
    </contour>
    <contour>
      <point x="959" y="1316" type="line"/>
      <point x="959" y="1456" type="line"/>
      <point x="845" y="1456" type="line"/>
      <point x="92" y="144" type="line"/>
      <point x="92" y="0" type="line"/>
      <point x="205" y="0" type="line"/>
    </contour>
    <contour>
      <point x="881" y="1456" type="line"/>
      <point x="98" y="1456" type="line"/>
      <point x="98" y="1298" type="line"/>
      <point x="881" y="1298" type="line"/>
    </contour>
    <contour>
      <point x="539" y="1601" type="move" name="top"/>
    </contour>
    <contour>
      <point x="530" y="10" type="move" name="bottom"/>
    </contour>
    <contour>
      <point x="1051" y="1600" type="move" name="top_dd"/>
    </contour>
    <contour>
      <point x="1051" y="-407" type="move" name="bottom_dd"/>
    </contour>
    <contour>
      <point x="1051" y="1601" type="move" name="top0315"/>
    </contour>
    <contour>
      <point x="539" y="1601" type="move" name="parent_top"/>
    </contour>
  </outline>
</glyph>
<glyph name="bracketleft" format="2">
  <advance width="513"/>
  <unicode hex="005B"/>
  <outline>
    <contour>
      <point x="469" y="1664" type="line"/>
      <point x="138" y="1664" type="line"/>
      <point x="138" y="-312" type="line"/>
      <point x="469" y="-312" type="line"/>
      <point x="469" y="-160" type="line"/>
      <point x="315" y="-160" type="line"/>
      <point x="315" y="1512" type="line"/>
      <point x="469" y="1512" type="line"/>
    </contour>
  </outline>
</glyph>
<glyph name="backslash" format="2">
  <advance width="757"/>
  <unicode hex="005C"/>
  <guideline x="0.0" y="901.0" angle="0.0" identifier="CH2j8pRHS9"/>
  <guideline x="0.0" y="555.0" angle="0.0" identifier="ldl3BCOOnS"/>
  <outline>
    <contour>
      <point x="562" y="-125" type="line"/>
      <point x="729" y="-125" type="line"/>
      <point x="218" y="1456" type="line"/>
      <point x="52" y="1456" type="line"/>
    </contour>
  </outline>
</glyph>
<glyph name="asciicircum" format="1">
  <advance width="760"/>
  <unicode hex="005E"/>
  <outline>
    <contour>
      <point x="390" y="1242" type="line"/>
      <point x="425" y="1456" type="line"/>
      <point x="321" y="1456" type="line"/>
      <point x="69" y="729" type="line"/>
      <point x="232" y="729" type="line"/>
    </contour>
    <contour>
      <point x="528" y="729" type="line"/>
      <point x="690" y="729" type="line"/>
      <point x="440" y="1456" type="line"/>
      <point x="335" y="1456" type="line"/>
      <point x="370" y="1242" type="line"/>
    </contour>
  </outline>
</glyph>
<glyph name="underscore" format="1">
  <advance width="829"/>
  <unicode hex="005F"/>
  <outline>
    <contour>
      <point x="411" y="157" type="move" name="_bottom"/>
    </contour>
    <contour>
      <point x="805" y="0" type="line"/>
      <point x="25" y="0" type="line"/>
      <point x="25" y="-152" type="line"/>
      <point x="805" y="-152" type="line"/>
    </contour>
  </outline>
</glyph>
<glyph name="grave" format="1">
  <advance width="633"/>
  <unicode hex="0060"/>
  <outline>
    <contour>
      <point x="281" y="1536" type="line"/>
      <point x="57" y="1536" type="line"/>
      <point x="315" y="1242" type="line"/>
      <point x="474" y="1242" type="line"/>
    </contour>
    <contour>
      <point x="369" y="1290" type="move" name="_top"/>
    </contour>
    <contour>
      <point x="369" y="1641" type="move" name="mkmktop_acc"/>
    </contour>
  </outline>
</glyph>
<glyph name="c" format="1">
  <advance width="946"/>
  <unicode hex="0063"/>
  <outline>
    <contour>
      <point x="508" y="131" type="curve" smooth="yes"/>
      <point x="320" y="131"/>
      <point x="274" y="268"/>
      <point x="274" y="480" type="curve" smooth="yes"/>
      <point x="274" y="602" type="line" smooth="yes"/>
      <point x="274" y="812"/>
      <point x="322" y="950"/>
      <point x="508" y="950" type="curve"/>
      <point x="628" y="950"/>
      <point x="699" y="870"/>
      <point x="708" y="710" type="curve"/>
      <point x="874" y="710" type="line"/>
      <point x="866" y="957"/>
      <point x="728" y="1102"/>
      <point x="508" y="1102" type="curve" smooth="yes"/>
      <point x="228" y="1102"/>
      <point x="97" y="916"/>
      <point x="97" y="602" type="curve" smooth="yes"/>
      <point x="97" y="480" type="line" smooth="yes"/>
      <point x="97" y="166"/>
      <point x="227" y="-20"/>
      <point x="508" y="-20" type="curve"/>
      <point x="703" y="-20"/>
      <point x="866" y="125"/>
      <point x="874" y="342" type="curve"/>
      <point x="708" y="342" type="line"/>
      <point x="699" y="192"/>
      <point x="613" y="131"/>
    </contour>
    <contour>
      <point x="465" y="1290" type="move" name="top"/>
    </contour>
    <contour>
      <point x="465" y="-10" type="move" name="bottom"/>
    </contour>
    <contour>
      <point x="465" y="1290" type="move" name="marktop"/>
    </contour>
    <contour>
      <point x="926" y="1600" type="move" name="top_dd"/>
    </contour>
    <contour>
      <point x="926" y="-407" type="move" name="bottom_dd"/>
    </contour>
    <contour>
      <point x="926" y="1290" type="move" name="top0315"/>
    </contour>
  </outline>
</glyph>
<glyph name="d" format="1">
  <advance width="1016"/>
  <unicode hex="0064"/>
  <outline>
    <contour>
      <point x="700" y="210" type="line"/>
      <point x="715" y="0" type="line"/>
      <point x="876" y="0" type="line"/>
      <point x="876" y="1536" type="line"/>
      <point x="700" y="1536" type="line"/>
    </contour>
    <contour>
      <point x="95" y="489" type="line"/>
      <point x="95" y="147"/>
      <point x="243" y="-20"/>
      <point x="456" y="-20" type="curve" smooth="yes"/>
      <point x="680" y="-20"/>
      <point x="777" y="168"/>
      <point x="800" y="472" type="curve"/>
      <point x="800" y="607" type="line"/>
      <point x="778" y="914"/>
      <point x="681" y="1102"/>
      <point x="458" y="1102" type="curve" smooth="yes"/>
      <point x="241" y="1102"/>
      <point x="95" y="946"/>
      <point x="95" y="590" type="curve" smooth="yes"/>
    </contour>
    <contour>
      <point x="272" y="590" type="line"/>
      <point x="272" y="831"/>
      <point x="340" y="946"/>
      <point x="504" y="946" type="curve" smooth="yes"/>
      <point x="647" y="946"/>
      <point x="717" y="818"/>
      <point x="744" y="681" type="curve"/>
      <point x="744" y="397" type="line"/>
      <point x="709" y="258"/>
      <point x="650" y="137"/>
      <point x="502" y="137" type="curve" smooth="yes"/>
      <point x="340" y="137"/>
      <point x="272" y="248"/>
      <point x="272" y="489" type="curve" smooth="yes"/>
    </contour>
    <contour>
      <point x="958" y="1536" type="move" name="caron"/>
    </contour>
    <contour>
      <point x="764" y="1306" type="move" name="cross"/>
    </contour>
    <contour>
      <point x="541" y="0" type="move" name="bottom"/>
    </contour>
    <contour>
      <point x="483" y="1612" type="move" name="top"/>
    </contour>
    <contour>
      <point x="996" y="1600" type="move" name="top_dd"/>
    </contour>
    <contour>
      <point x="996" y="-407" type="move" name="bottom_dd"/>
    </contour>
    <contour>
      <point x="996" y="1612" type="move" name="top0315"/>
    </contour>
  </outline>
</glyph>
<glyph name="e" format="1">
  <advance width="960"/>
  <unicode hex="0065"/>
  <outline>
    <contour>
      <point x="520" y="-20" type="curve"/>
      <point x="707" y="-20"/>
      <point x="812" y="60"/>
      <point x="871" y="143" type="curve"/>
      <point x="778" y="254" type="line"/>
      <point x="720" y="182"/>
      <point x="649" y="131"/>
      <point x="530" y="131" type="curve" smooth="yes"/>
      <point x="366" y="131"/>
      <point x="276" y="232"/>
      <point x="276" y="463" type="curve" smooth="yes"/>
      <point x="276" y="585" type="line" smooth="yes"/>
      <point x="276" y="875"/>
      <point x="368" y="950"/>
      <point x="500" y="950" type="curve"/>
      <point x="654" y="950"/>
      <point x="693" y="832"/>
      <point x="702" y="665" type="curve"/>
      <point x="702" y="640" type="line"/>
      <point x="203" y="640" type="line"/>
      <point x="203" y="489" type="line"/>
      <point x="879" y="489" type="line"/>
      <point x="879" y="592" type="line" smooth="yes"/>
      <point x="879" y="922"/>
      <point x="771" y="1102"/>
      <point x="500" y="1102" type="curve" smooth="yes"/>
      <point x="296" y="1102"/>
      <point x="99" y="966"/>
      <point x="99" y="585" type="curve" smooth="yes"/>
      <point x="99" y="463" type="line" smooth="yes"/>
      <point x="99" y="132"/>
      <point x="260" y="-20"/>
    </contour>
    <contour>
      <point x="494" y="1290" type="move" name="top"/>
    </contour>
    <contour>
      <point x="497" y="0" type="move" name="bottom"/>
    </contour>
    <contour>
      <point x="941" y="1600" type="move" name="top_dd"/>
    </contour>
    <contour>
      <point x="941" y="-407" type="move" name="bottom_dd"/>
    </contour>
    <contour>
      <point x="783" y="654" type="move" name="rhotichook"/>
    </contour>
    <contour>
      <point x="941" y="1290" type="move" name="top0315"/>
    </contour>
    <contour>
      <point x="494" y="1290" type="move" name="parent_top"/>
    </contour>
  </outline>
</glyph>
<glyph name="f" format="1">
  <advance width="648"/>
  <unicode hex="0066"/>
  <outline>
    <contour>
      <point x="388" y="0" type="line"/>
      <point x="388" y="1196" type="line"/>
      <point x="388" y="1327"/>
      <point x="443" y="1399"/>
      <point x="539" y="1399" type="curve" smooth="yes"/>
      <point x="565" y="1399"/>
      <point x="598" y="1396"/>
      <point x="620" y="1390" type="curve"/>
      <point x="628" y="1541" type="line"/>
      <point x="594" y="1551"/>
      <point x="557" y="1557"/>
      <point x="521" y="1557" type="curve" smooth="yes"/>
      <point x="329" y="1557"/>
      <point x="211" y="1429"/>
      <point x="211" y="1196" type="curve"/>
      <point x="211" y="0" type="line"/>
    </contour>
    <contour>
      <point x="572" y="1082" type="line"/>
      <point x="70" y="1082" type="line"/>
      <point x="70" y="940" type="line"/>
      <point x="572" y="940" type="line"/>
    </contour>
    <contour>
      <point x="439" y="1754" type="move" name="top"/>
    </contour>
    <contour>
      <point x="297" y="10" type="move" name="bottom"/>
    </contour>
    <contour>
      <point x="628" y="1600" type="move" name="top_dd"/>
    </contour>
    <contour>
      <point x="628" y="-407" type="move" name="bottom_dd"/>
    </contour>
    <contour>
      <point x="628" y="1754" type="move" name="top0315"/>
    </contour>
  </outline>
</glyph>
<glyph name="h" format="1">
  <advance width="989"/>
  <unicode hex="0068"/>
  <outline>
    <contour>
      <point x="310" y="1536" type="line"/>
      <point x="133" y="1536" type="line"/>
      <point x="133" y="0" type="line"/>
      <point x="310" y="0" type="line"/>
    </contour>
    <contour>
      <point x="267" y="582" type="line"/>
      <point x="267" y="777"/>
      <point x="373" y="946"/>
      <point x="513" y="946" type="curve" smooth="yes"/>
      <point x="626" y="946"/>
      <point x="682" y="880"/>
      <point x="682" y="711" type="curve" smooth="yes"/>
      <point x="682" y="0" type="line"/>
      <point x="859" y="0" type="line"/>
      <point x="859" y="709" type="line" smooth="yes"/>
      <point x="859" y="993"/>
      <point x="745" y="1102"/>
      <point x="568" y="1102" type="curve" smooth="yes"/>
      <point x="343" y="1102"/>
      <point x="193" y="882"/>
      <point x="195" y="585" type="curve"/>
    </contour>
    <contour>
      <point x="445" y="1611" type="move" name="top"/>
    </contour>
    <contour>
      <point x="253" y="1306" type="move" name="cross"/>
    </contour>
    <contour>
      <point x="517" y="10" type="move" name="bottom"/>
    </contour>
    <contour>
      <point x="859" y="0" type="move" name="right"/>
    </contour>
    <contour>
      <point x="969" y="1600" type="move" name="top_dd"/>
    </contour>
    <contour>
      <point x="969" y="-407" type="move" name="bottom_dd"/>
    </contour>
    <contour>
      <point x="969" y="1611" type="move" name="top0315"/>
    </contour>
  </outline>
</glyph>
<glyph name="i" format="1">
  <advance width="470"/>
  <unicode hex="0069"/>
  <outline>
    <contour>
      <point x="323" y="1082" type="line"/>
      <point x="147" y="1082" type="line"/>
      <point x="147" y="0" type="line"/>
      <point x="323" y="0" type="line"/>
    </contour>
    <contour>
      <point x="137" y="1369" type="curve" smooth="yes"/>
      <point x="137" y="1311"/>
      <point x="170" y="1265"/>
      <point x="237" y="1265" type="curve"/>
      <point x="303" y="1265"/>
      <point x="338" y="1311"/>
      <point x="338" y="1369" type="curve"/>
      <point x="338" y="1429"/>
      <point x="303" y="1476"/>
      <point x="237" y="1476" type="curve"/>
      <point x="170" y="1476"/>
      <point x="137" y="1429"/>
    </contour>
    <contour>
      <point x="235" y="10" type="move" name="bottom"/>
    </contour>
    <contour>
      <point x="308" y="0" type="move" name="ogonek"/>
    </contour>
    <contour>
      <point x="236" y="1600" type="move" name="top"/>
    </contour>
    <contour>
      <point x="450" y="1600" type="move" name="top_dd"/>
    </contour>
    <contour>
      <point x="450" y="-407" type="move" name="bottom_dd"/>
    </contour>
    <contour>
      <point x="263" y="654" type="move" name="rhotichook"/>
    </contour>
    <contour>
      <point x="450" y="1600" type="move" name="top0315"/>
    </contour>
  </outline>
</glyph>
<glyph name="j" format="1">
  <advance width="459"/>
  <unicode hex="006A"/>
  <outline>
    <contour>
      <point x="137" y="1082" type="line"/>
      <point x="137" y="-129" type="line"/>
      <point x="137" y="-239"/>
      <point x="105" y="-280"/>
      <point x="47" y="-280" type="curve" smooth="yes"/>
      <point x="29" y="-280"/>
      <point x="-1" y="-277"/>
      <point x="-23" y="-271" type="curve"/>
      <point x="-23" y="-420" type="line"/>
      <point x="3" y="-430"/>
      <point x="47" y="-437"/>
      <point x="76" y="-437" type="curve" smooth="yes"/>
      <point x="237" y="-437"/>
      <point x="313" y="-328"/>
      <point x="313" y="-129" type="curve"/>
      <point x="313" y="1082" type="line"/>
    </contour>
    <contour>
      <point x="121" y="1369" type="curve" smooth="yes"/>
      <point x="121" y="1311"/>
      <point x="155" y="1265"/>
      <point x="221" y="1265" type="curve" smooth="yes"/>
      <point x="288" y="1265"/>
      <point x="322" y="1311"/>
      <point x="322" y="1369" type="curve" smooth="yes"/>
      <point x="322" y="1429"/>
      <point x="288" y="1476"/>
      <point x="221" y="1476" type="curve" smooth="yes"/>
      <point x="155" y="1476"/>
      <point x="121" y="1429"/>
    </contour>
    <contour>
      <point x="207" y="1600" type="move" name="top"/>
    </contour>
    <contour>
      <point x="180" y="-459" type="move" name="bottom"/>
    </contour>
    <contour>
      <point x="439" y="1600" type="move" name="top_dd"/>
    </contour>
    <contour>
      <point x="439" y="-407" type="move" name="bottom_dd"/>
    </contour>
    <contour>
      <point x="439" y="1600" type="move" name="top0315"/>
    </contour>
  </outline>
</glyph>
<glyph name="k" format="1">
  <advance width="923"/>
  <unicode hex="006B"/>
  <outline>
    <contour>
      <point x="311" y="1536" type="line"/>
      <point x="134" y="1536" type="line"/>
      <point x="134" y="0" type="line"/>
      <point x="311" y="0" type="line"/>
    </contour>
    <contour>
      <point x="860" y="1082" type="line"/>
      <point x="647" y="1082" type="line"/>
      <point x="389" y="726" type="line"/>
      <point x="225" y="500" type="line"/>
      <point x="237" y="303" type="line"/>
      <point x="475" y="577" type="line"/>
    </contour>
    <contour>
      <point x="698" y="0" type="line"/>
      <point x="904" y="0" type="line"/>
      <point x="485" y="681" type="line"/>
      <point x="394" y="516" type="line"/>
    </contour>
    <contour>
      <point x="466" y="71" type="move" name="bottom"/>
    </contour>
    <contour>
      <point x="215" y="1289" type="move" name="cross"/>
    </contour>
    <contour>
      <point x="482" y="1611" type="move" name="top"/>
    </contour>
    <contour>
      <point x="482" y="1611" type="move" name="marktop"/>
    </contour>
    <contour>
      <point x="903" y="1600" type="move" name="top_dd"/>
    </contour>
    <contour>
      <point x="903" y="-407" type="move" name="bottom_dd"/>
    </contour>
    <contour>
      <point x="794" y="1611" type="move" name="top0315"/>
    </contour>
  </outline>
</glyph>
<glyph name="l" format="1">
  <advance width="470"/>
  <unicode hex="006C"/>
  <outline>
    <contour>
      <point x="323" y="1536" type="line"/>
      <point x="147" y="1536" type="line"/>
      <point x="147" y="0" type="line"/>
      <point x="323" y="0" type="line"/>
    </contour>
    <contour>
      <point x="235" y="1697" type="move" name="top"/>
    </contour>
    <contour>
      <point x="235" y="10" type="move" name="bottom"/>
    </contour>
    <contour>
      <point x="430" y="1536" type="move" name="caron"/>
    </contour>
    <contour>
      <point x="425" y="776" type="move" name="dot"/>
    </contour>
    <contour>
      <point x="507" y="1540" type="move" name="marktop"/>
    </contour>
    <contour>
      <point x="450" y="1600" type="move" name="top_dd"/>
    </contour>
    <contour>
      <point x="450" y="-407" type="move" name="bottom_dd"/>
    </contour>
    <contour>
      <point x="450" y="1697" type="move" name="top0315"/>
    </contour>
  </outline>
</glyph>
<glyph name="m" format="1">
  <advance width="1542"/>
  <unicode hex="006D"/>
  <outline>
    <contour>
      <point x="310" y="867" type="line"/>
      <point x="300" y="1082" type="line"/>
      <point x="134" y="1082" type="line"/>
      <point x="134" y="0" type="line"/>
      <point x="310" y="0" type="line"/>
    </contour>
    <contour>
      <point x="274" y="582" type="line"/>
      <point x="273" y="777"/>
      <point x="325" y="946"/>
      <point x="498" y="946" type="curve" smooth="yes"/>
      <point x="611" y="946"/>
      <point x="682" y="881"/>
      <point x="682" y="712" type="curve"/>
      <point x="682" y="0" type="line"/>
      <point x="859" y="0" type="line"/>
      <point x="859" y="721" type="line"/>
      <point x="859" y="992"/>
      <point x="731" y="1102"/>
      <point x="565" y="1102" type="curve" smooth="yes"/>
      <point x="313" y="1102"/>
      <point x="190" y="882"/>
      <point x="192" y="585" type="curve"/>
    </contour>
    <contour>
      <point x="857" y="684" type="line"/>
      <point x="856" y="825"/>
      <point x="925" y="946"/>
      <point x="1047" y="946" type="curve" smooth="yes"/>
      <point x="1160" y="946"/>
      <point x="1231" y="894"/>
      <point x="1231" y="713" type="curve" smooth="yes"/>
      <point x="1231" y="0" type="line"/>
      <point x="1408" y="0" type="line"/>
      <point x="1408" y="711" type="line" smooth="yes"/>
      <point x="1408" y="984"/>
      <point x="1298" y="1102"/>
      <point x="1101" y="1102" type="curve" smooth="yes"/>
      <point x="862" y="1102"/>
      <point x="737" y="883"/>
      <point x="739" y="646" type="curve"/>
    </contour>
    <contour>
      <point x="784" y="1290" type="move" name="top"/>
    </contour>
    <contour>
      <point x="770" y="10" type="move" name="bottom"/>
    </contour>
    <contour>
      <point x="784" y="1290" type="move" name="marktop"/>
    </contour>
    <contour>
      <point x="1522" y="1600" type="move" name="top_dd"/>
    </contour>
    <contour>
      <point x="1522" y="-407" type="move" name="bottom_dd"/>
    </contour>
    <contour>
      <point x="1522" y="1290" type="move" name="top0315"/>
    </contour>
  </outline>
</glyph>
<glyph name="n" format="1">
  <advance width="992"/>
  <unicode hex="006E"/>
  <outline>
    <contour>
      <point x="310" y="851" type="line"/>
      <point x="300" y="1082" type="line"/>
      <point x="133" y="1082" type="line"/>
      <point x="133" y="0" type="line"/>
      <point x="310" y="0" type="line"/>
    </contour>
    <contour>
      <point x="267" y="582" type="line"/>
      <point x="267" y="777"/>
      <point x="373" y="946"/>
      <point x="513" y="946" type="curve" smooth="yes"/>
      <point x="626" y="946"/>
      <point x="682" y="880"/>
      <point x="682" y="711" type="curve" smooth="yes"/>
      <point x="682" y="0" type="line"/>
      <point x="859" y="0" type="line"/>
      <point x="859" y="709" type="line" smooth="yes"/>
      <point x="859" y="993"/>
      <point x="745" y="1102"/>
      <point x="568" y="1102" type="curve" smooth="yes"/>
      <point x="343" y="1102"/>
      <point x="193" y="882"/>
      <point x="195" y="585" type="curve"/>
    </contour>
    <contour>
      <point x="500" y="1290" type="move" name="top"/>
    </contour>
    <contour>
      <point x="490" y="10" type="move" name="bottom"/>
    </contour>
    <contour>
      <point x="-8" y="1539" type="move" name="caron"/>
    </contour>
    <contour>
      <point x="858" y="0" type="move" name="right"/>
    </contour>
    <contour>
      <point x="500" y="1290" type="move" name="top"/>
    </contour>
    <contour>
      <point x="972" y="1600" type="move" name="top_dd"/>
    </contour>
    <contour>
      <point x="972" y="-407" type="move" name="bottom_dd"/>
    </contour>
    <contour>
      <point x="972" y="1290" type="move" name="top0315"/>
    </contour>
  </outline>
</glyph>
<glyph name="o" format="1">
  <advance width="1028"/>
  <unicode hex="006F"/>
  <outline>
    <contour>
      <point x="96" y="489" type="line"/>
      <point x="96" y="152"/>
      <point x="280" y="-20"/>
      <point x="515" y="-20" type="curve" smooth="yes"/>
      <point x="749" y="-20"/>
      <point x="933" y="152"/>
      <point x="933" y="489" type="curve"/>
      <point x="933" y="592" type="line"/>
      <point x="933" y="929"/>
      <point x="749" y="1102"/>
      <point x="513" y="1102" type="curve" smooth="yes"/>
      <point x="280" y="1102"/>
      <point x="96" y="929"/>
      <point x="96" y="592" type="curve"/>
    </contour>
    <contour>
      <point x="273" y="592" type="line"/>
      <point x="273" y="828"/>
      <point x="376" y="950"/>
      <point x="513" y="950" type="curve" smooth="yes"/>
      <point x="652" y="950"/>
      <point x="756" y="828"/>
      <point x="756" y="592" type="curve"/>
      <point x="756" y="489" type="line"/>
      <point x="756" y="251"/>
      <point x="676" y="131"/>
      <point x="515" y="131" type="curve" smooth="yes"/>
      <point x="376" y="131"/>
      <point x="273" y="251"/>
      <point x="273" y="489" type="curve"/>
    </contour>
    <contour>
      <point x="504" y="1290" type="move" name="top"/>
    </contour>
    <contour>
      <point x="513" y="-1" type="move" name="bottom"/>
    </contour>
    <contour>
      <point x="1008" y="1600" type="move" name="top_dd"/>
    </contour>
    <contour>
      <point x="1008" y="-407" type="move" name="bottom_dd"/>
    </contour>
    <contour>
      <point x="853" y="654" type="move" name="rhotichook"/>
    </contour>
    <contour>
      <point x="1008" y="1290" type="move" name="top0315"/>
    </contour>
    <contour>
      <point x="504" y="1290" type="move" name="parent_top"/>
    </contour>
  </outline>
</glyph>
<glyph name="p" format="1">
  <advance width="1010"/>
  <unicode hex="0070"/>
  <outline>
    <contour>
      <point x="310" y="874" type="line"/>
      <point x="294" y="1082" type="line"/>
      <point x="133" y="1082" type="line"/>
      <point x="133" y="-416" type="line"/>
      <point x="310" y="-416" type="line"/>
    </contour>
    <contour>
      <point x="915" y="590" type="line"/>
      <point x="915" y="946"/>
      <point x="789" y="1102"/>
      <point x="558" y="1102" type="curve" smooth="yes"/>
      <point x="333" y="1102"/>
      <point x="230" y="914"/>
      <point x="207" y="607" type="curve"/>
      <point x="207" y="453" type="line"/>
      <point x="231" y="161"/>
      <point x="334" y="-20"/>
      <point x="560" y="-20" type="curve" smooth="yes"/>
      <point x="787" y="-20"/>
      <point x="915" y="147"/>
      <point x="915" y="489" type="curve" smooth="yes"/>
    </contour>
    <contour>
      <point x="738" y="489" type="line"/>
      <point x="738" y="248"/>
      <point x="667" y="131"/>
      <point x="505" y="131" type="curve" smooth="yes"/>
      <point x="358" y="131"/>
      <point x="298" y="249"/>
      <point x="264" y="378" type="curve"/>
      <point x="264" y="681" type="line"/>
      <point x="289" y="818"/>
      <point x="361" y="946"/>
      <point x="503" y="946" type="curve" smooth="yes"/>
      <point x="667" y="946"/>
      <point x="738" y="831"/>
      <point x="738" y="590" type="curve" smooth="yes"/>
    </contour>
    <contour>
      <point x="556" y="1280" type="move" name="top"/>
    </contour>
    <contour>
      <point x="220" y="-407" type="move" name="bottom"/>
    </contour>
    <contour>
      <point x="556" y="1280" type="move" name="marktop"/>
    </contour>
    <contour>
      <point x="990" y="1600" type="move" name="top_dd"/>
    </contour>
    <contour>
      <point x="990" y="-407" type="move" name="bottom_dd"/>
    </contour>
    <contour>
      <point x="990" y="1280" type="move" name="top0315"/>
    </contour>
    <contour>
      <point x="556" y="1280" type="move" name="parent_top"/>
    </contour>
  </outline>
</glyph>
<glyph name="q" format="1">
  <advance width="1025"/>
  <unicode hex="0071"/>
  <outline>
    <contour>
      <point x="699" y="-416" type="line"/>
      <point x="876" y="-416" type="line"/>
      <point x="876" y="1082" type="line"/>
      <point x="714" y="1082" type="line"/>
      <point x="699" y="874" type="line"/>
    </contour>
    <contour>
      <point x="95" y="489" type="line"/>
      <point x="95" y="147"/>
      <point x="233" y="-20"/>
      <point x="460" y="-20" type="curve" smooth="yes"/>
      <point x="685" y="-20"/>
      <point x="786" y="168"/>
      <point x="809" y="472" type="curve"/>
      <point x="809" y="607" type="line"/>
      <point x="787" y="914"/>
      <point x="685" y="1102"/>
      <point x="462" y="1102" type="curve" smooth="yes"/>
      <point x="231" y="1102"/>
      <point x="95" y="946"/>
      <point x="95" y="590" type="curve" smooth="yes"/>
    </contour>
    <contour>
      <point x="272" y="590" type="line"/>
      <point x="272" y="831"/>
      <point x="344" y="950"/>
      <point x="508" y="950" type="curve" smooth="yes"/>
      <point x="651" y="950"/>
      <point x="726" y="817"/>
      <point x="753" y="681" type="curve"/>
      <point x="753" y="397" type="line"/>
      <point x="718" y="256"/>
      <point x="653" y="131"/>
      <point x="506" y="131" type="curve" smooth="yes"/>
      <point x="344" y="131"/>
      <point x="272" y="248"/>
      <point x="272" y="489" type="curve" smooth="yes"/>
    </contour>
    <contour>
      <point x="471" y="1290" type="move" name="top"/>
    </contour>
    <contour>
      <point x="788" y="-407" type="move" name="bottom"/>
    </contour>
    <contour>
      <point x="471" y="1290" type="move" name="top"/>
    </contour>
    <contour>
      <point x="1005" y="1600" type="move" name="top_dd"/>
    </contour>
    <contour>
      <point x="1005" y="-407" type="move" name="bottom_dd"/>
    </contour>
    <contour>
      <point x="1005" y="1290" type="move" name="top0315"/>
    </contour>
    <contour>
      <point x="471" y="1290" type="move" name="parent_top"/>
    </contour>
  </outline>
</glyph>
<glyph name="r" format="1">
  <advance width="624"/>
  <unicode hex="0072"/>
  <outline>
    <contour>
      <point x="310" y="912" type="line"/>
      <point x="304" y="1082" type="line"/>
      <point x="133" y="1082" type="line"/>
      <point x="133" y="0" type="line"/>
      <point x="310" y="0" type="line"/>
    </contour>
    <contour>
      <point x="579" y="1088" type="line"/>
      <point x="569" y="1094"/>
      <point x="530" y="1102"/>
      <point x="509" y="1102" type="curve"/>
      <point x="318" y="1102"/>
      <point x="237" y="884"/>
      <point x="237" y="624" type="curve"/>
      <point x="283" y="654" type="line"/>
      <point x="300" y="811"/>
      <point x="367" y="924"/>
      <point x="500" y="924" type="curve"/>
      <point x="531" y="924"/>
      <point x="551" y="922"/>
      <point x="580" y="916" type="curve"/>
    </contour>
    <contour>
      <point x="362" y="1290" type="move" name="top"/>
    </contour>
    <contour>
      <point x="234" y="11" type="move" name="bottom"/>
    </contour>
    <contour>
      <point x="604" y="1600" type="move" name="top_dd"/>
    </contour>
    <contour>
      <point x="604" y="-407" type="move" name="bottom_dd"/>
    </contour>
    <contour>
      <point x="604" y="1290" type="move" name="top0315"/>
    </contour>
    <contour>
      <point x="362" y="1290" type="move" name="parent_top"/>
    </contour>
  </outline>
</glyph>
<glyph name="s" format="1">
  <advance width="934"/>
  <unicode hex="0073"/>
  <outline>
    <contour>
      <point x="658" y="277" type="curve" smooth="yes"/>
      <point x="658" y="188"/>
      <point x="595" y="132"/>
      <point x="478" y="132" type="curve" smooth="yes"/>
      <point x="388" y="132"/>
      <point x="283" y="171"/>
      <point x="277" y="324" type="curve"/>
      <point x="100" y="324" type="line"/>
      <point x="100" y="145"/>
      <point x="233" y="-20"/>
      <point x="478" y="-20" type="curve" smooth="yes"/>
      <point x="693" y="-20"/>
      <point x="835" y="101"/>
      <point x="835" y="291" type="curve"/>
      <point x="835" y="465"/>
      <point x="716" y="541"/>
      <point x="497" y="627" type="curve" smooth="yes"/>
      <point x="346" y="694"/>
      <point x="308" y="722"/>
      <point x="308" y="801" type="curve"/>
      <point x="308" y="880"/>
      <point x="355" y="950"/>
      <point x="474" y="950" type="curve" smooth="yes"/>
      <point x="586" y="950"/>
      <point x="648" y="863"/>
      <point x="648" y="774" type="curve"/>
      <point x="824" y="774" type="line"/>
      <point x="824" y="960"/>
      <point x="695" y="1102"/>
      <point x="474" y="1102" type="curve" smooth="yes"/>
      <point x="267" y="1102"/>
      <point x="131" y="967"/>
      <point x="131" y="795" type="curve"/>
      <point x="131" y="621"/>
      <point x="249" y="554"/>
      <point x="450" y="471" type="curve" smooth="yes"/>
      <point x="604" y="404"/>
      <point x="658" y="359"/>
    </contour>
    <contour>
      <point x="500" y="1290" type="move" name="top"/>
    </contour>
    <contour>
      <point x="500" y="-10" type="move" name="bottom"/>
    </contour>
    <contour>
      <point x="914" y="1600" type="move" name="top_dd"/>
    </contour>
    <contour>
      <point x="914" y="-407" type="move" name="bottom_dd"/>
    </contour>
    <contour>
      <point x="914" y="1290" type="move" name="top0315"/>
    </contour>
    <contour>
      <point x="500" y="1290" type="move" name="parent_top"/>
    </contour>
  </outline>
</glyph>
<glyph name="t" format="1">
  <advance width="606"/>
  <unicode hex="0074"/>
  <outline>
    <contour>
      <point x="528" y="1082" type="line"/>
      <point x="23" y="1082" type="line"/>
      <point x="23" y="940" type="line"/>
      <point x="528" y="940" type="line"/>
    </contour>
    <contour>
      <point x="188" y="1345" type="line"/>
      <point x="188" y="269" type="line"/>
      <point x="188" y="52"/>
      <point x="288" y="-20"/>
      <point x="403" y="-20" type="curve" smooth="yes"/>
      <point x="464" y="-20"/>
      <point x="503" y="-9"/>
      <point x="527" y="0" type="curve"/>
      <point x="528" y="151" type="line"/>
      <point x="517" y="147"/>
      <point x="482" y="139"/>
      <point x="458" y="139" type="curve" smooth="yes"/>
      <point x="410" y="139"/>
      <point x="365" y="157"/>
      <point x="365" y="268" type="curve"/>
      <point x="365" y="1345" type="line"/>
    </contour>
    <contour>
      <point x="407" y="0" type="move" name="bottom"/>
    </contour>
    <contour>
      <point x="289" y="1481" type="move" name="top"/>
    </contour>
    <contour>
      <point x="508" y="1358" type="move" name="top"/>
    </contour>
    <contour>
      <point x="586" y="1600" type="move" name="top_dd"/>
    </contour>
    <contour>
      <point x="586" y="-407" type="move" name="bottom_dd"/>
    </contour>
    <contour>
      <point x="586" y="1481" type="move" name="top0315"/>
    </contour>
    <contour>
      <point x="508" y="1358" type="move" name="parent_top"/>
    </contour>
  </outline>
</glyph>
<glyph name="u" format="1">
  <advance width="990"/>
  <unicode hex="0075"/>
  <outline>
    <contour>
      <point x="680" y="250" type="line"/>
      <point x="689" y="0" type="line"/>
      <point x="857" y="0" type="line"/>
      <point x="857" y="1082" type="line"/>
      <point x="680" y="1082" type="line"/>
    </contour>
    <contour>
      <point x="713" y="478" type="line"/>
      <point x="713" y="288"/>
      <point x="646" y="137"/>
      <point x="458" y="137" type="curve" smooth="yes"/>
      <point x="384" y="137"/>
      <point x="306" y="187"/>
      <point x="306" y="382" type="curve"/>
      <point x="306" y="1082" type="line"/>
      <point x="130" y="1082" type="line"/>
      <point x="130" y="384" type="line"/>
      <point x="130" y="96"/>
      <point x="250" y="-20"/>
      <point x="428" y="-20" type="curve" smooth="yes"/>
      <point x="691" y="-20"/>
      <point x="783" y="192"/>
      <point x="783" y="480" type="curve"/>
    </contour>
    <contour>
      <point x="495" y="1290" type="move" name="top"/>
    </contour>
    <contour>
      <point x="847" y="0" type="move" name="ogonek"/>
    </contour>
    <contour>
      <point x="446" y="0" type="move" name="bottomu"/>
    </contour>
    <contour>
      <point x="970" y="1600" type="move" name="top_dd"/>
    </contour>
    <contour>
      <point x="970" y="-407" type="move" name="bottom_dd"/>
    </contour>
    <contour>
      <point x="793" y="654" type="move" name="rhotichook"/>
    </contour>
    <contour>
      <point x="970" y="1290" type="move" name="top0315"/>
    </contour>
    <contour>
      <point x="493" y="0" type="move" name="bottom"/>
    </contour>
  </outline>
</glyph>
<glyph name="v" format="1">
  <advance width="876"/>
  <unicode hex="0076"/>
  <outline>
    <contour>
      <point x="413" y="167" type="line"/>
      <point x="387" y="0" type="line"/>
      <point x="504" y="0" type="line"/>
      <point x="825" y="1082" type="line"/>
      <point x="645" y="1082" type="line"/>
    </contour>
    <contour>
      <point x="226" y="1082" type="line"/>
      <point x="46" y="1082" type="line"/>
      <point x="371" y="0" type="line"/>
      <point x="487" y="0" type="line"/>
      <point x="468" y="162" type="line"/>
    </contour>
    <contour>
      <point x="446" y="1280" type="move" name="top"/>
    </contour>
    <contour>
      <point x="446" y="10" type="move" name="bottom"/>
    </contour>
    <contour>
      <point x="856" y="1600" type="move" name="top_dd"/>
    </contour>
    <contour>
      <point x="856" y="-407" type="move" name="bottom_dd"/>
    </contour>
    <contour>
      <point x="856" y="1280" type="move" name="top0315"/>
    </contour>
    <contour>
      <point x="446" y="1280" type="move" name="parent_top"/>
    </contour>
  </outline>
</glyph>
<glyph name="w" format="1">
  <advance width="1331"/>
  <unicode hex="0077"/>
  <outline>
    <contour>
      <point x="355" y="192" type="line"/>
      <point x="345" y="0" type="line"/>
      <point x="456" y="0" type="line"/>
      <point x="696" y="905" type="line"/>
      <point x="709" y="1082" type="line"/>
      <point x="594" y="1082" type="line"/>
    </contour>
    <contour>
      <point x="225" y="1082" type="line"/>
      <point x="50" y="1082" type="line"/>
      <point x="314" y="0" type="line"/>
      <point x="431" y="0" type="line"/>
      <point x="426" y="182" type="line"/>
    </contour>
    <contour>
      <point x="914" y="189" type="line"/>
      <point x="899" y="0" type="line"/>
      <point x="1014" y="0" type="line"/>
      <point x="1278" y="1082" type="line"/>
      <point x="1104" y="1082" type="line"/>
    </contour>
    <contour>
      <point x="734" y="1082" type="line"/>
      <point x="612" y="1082" type="line"/>
      <point x="625" y="907" type="line"/>
      <point x="873" y="0" type="line"/>
      <point x="983" y="0" type="line"/>
      <point x="967" y="207" type="line"/>
    </contour>
    <contour>
      <point x="661" y="1290" type="move" name="top"/>
    </contour>
    <contour>
      <point x="663" y="10" type="move" name="bottom"/>
    </contour>
    <contour>
      <point x="661" y="1290" type="move" name="marktop"/>
    </contour>
    <contour>
      <point x="1311" y="1600" type="move" name="top_dd"/>
    </contour>
    <contour>
      <point x="1311" y="-407" type="move" name="bottom_dd"/>
    </contour>
    <contour>
      <point x="1311" y="1290" type="move" name="top0315"/>
    </contour>
    <contour>
      <point x="661" y="1290" type="move" name="parent_top"/>
    </contour>
  </outline>
</glyph>
<glyph name="x" format="1">
  <advance width="899"/>
  <unicode hex="0078"/>
  <outline>
    <contour>
      <point x="449" y="10" type="move" name="bottom"/>
    </contour>
    <contour>
      <point x="746" y="0" type="move" name="right"/>
    </contour>
    <contour>
      <point x="447" y="553" type="move" name="cross"/>
    </contour>
    <contour>
      <point x="447" y="1280" type="move" name="top"/>
    </contour>
    <contour>
      <point x="879" y="1600" type="move" name="top_dd"/>
    </contour>
    <contour>
      <point x="879" y="-407" type="move" name="bottom_dd"/>
    </contour>
    <contour>
      <point x="879" y="1280" type="move" name="top0315"/>
    </contour>
    <contour>
      <point x="263" y="1082" type="line"/>
      <point x="61" y="1082" type="line"/>
      <point x="354" y="548" type="line"/>
      <point x="53" y="0" type="line"/>
      <point x="257" y="0" type="line"/>
      <point x="449" y="406" type="line"/>
      <point x="640" y="0" type="line"/>
      <point x="843" y="0" type="line"/>
      <point x="542" y="548" type="line"/>
      <point x="835" y="1082" type="line"/>
      <point x="630" y="1082" type="line"/>
      <point x="445" y="688" type="line"/>
    </contour>
  </outline>
</glyph>
<glyph name="y" format="1">
  <advance width="853"/>
  <unicode hex="0079"/>
  <outline>
    <contour>
      <point x="384" y="112" type="line"/>
      <point x="322" y="-98" type="line" smooth="yes"/>
      <point x="285" y="-232"/>
      <point x="231" y="-275"/>
      <point x="127" y="-275" type="curve" smooth="yes"/>
      <point x="119" y="-275"/>
      <point x="97" y="-273"/>
      <point x="89" y="-271" type="curve"/>
      <point x="89" y="-421" type="line"/>
      <point x="106" y="-427"/>
      <point x="154" y="-437"/>
      <point x="180" y="-437" type="curve" smooth="yes"/>
      <point x="345" y="-437"/>
      <point x="422" y="-274"/>
      <point x="456" y="-167" type="curve" smooth="yes"/>
      <point x="813" y="1082" type="line"/>
      <point x="625" y="1082" type="line"/>
    </contour>
    <contour>
      <point x="228" y="1082" type="line"/>
      <point x="35" y="1082" type="line"/>
      <point x="363" y="-21" type="line"/>
      <point x="489" y="47" type="line"/>
      <point x="443" y="242" type="line"/>
    </contour>
    <contour>
      <point x="445" y="1290" type="move" name="top"/>
    </contour>
    <contour>
      <point x="617" y="-158" type="move" name="bottom"/>
    </contour>
    <contour>
      <point x="445" y="1290" type="move" name="top"/>
    </contour>
    <contour>
      <point x="833" y="1600" type="move" name="top_dd"/>
    </contour>
    <contour>
      <point x="833" y="-407" type="move" name="bottom_dd"/>
    </contour>
    <contour>
      <point x="638" y="654" type="move" name="rhotichook"/>
    </contour>
    <contour>
      <point x="833" y="1290" type="move" name="top0315"/>
    </contour>
    <contour>
      <point x="445" y="1290" type="move" name="parent_top"/>
    </contour>
  </outline>
</glyph>
<glyph name="z" format="1">
  <advance width="899"/>
  <unicode hex="007A"/>
  <outline>
    <contour>
      <point x="818" y="152" type="line"/>
      <point x="163" y="152" type="line"/>
      <point x="163" y="0" type="line"/>
      <point x="818" y="0" type="line"/>
    </contour>
    <contour>
      <point x="798" y="951" type="line"/>
      <point x="798" y="1082" type="line"/>
      <point x="686" y="1082" type="line"/>
      <point x="95" y="136" type="line"/>
      <point x="95" y="0" type="line"/>
      <point x="203" y="0" type="line"/>
    </contour>
    <contour>
      <point x="721" y="1082" type="line"/>
      <point x="98" y="1082" type="line"/>
      <point x="98" y="929" type="line"/>
      <point x="721" y="929" type="line"/>
    </contour>
    <contour>
      <point x="453" y="1290" type="move" name="top"/>
    </contour>
    <contour>
      <point x="459" y="10" type="move" name="bottom"/>
    </contour>
    <contour>
      <point x="879" y="1600" type="move" name="top_dd"/>
    </contour>
    <contour>
      <point x="879" y="-407" type="move" name="bottom_dd"/>
    </contour>
    <contour>
      <point x="879" y="1290" type="move" name="top0315"/>
    </contour>
  </outline>
</glyph>
<glyph name="cent" format="2">
  <advance width="983"/>
  <unicode hex="00A2"/>
  <outline>
    <contour>
      <point x="593" y="1318" type="line"/>
      <point x="416" y="1318" type="line"/>
      <point x="416" y="1030" type="line"/>
      <point x="593" y="1030" type="line"/>
    </contour>
    <contour>
      <point x="593" y="42" type="line"/>
      <point x="416" y="42" type="line"/>
      <point x="416" y="-245" type="line"/>
      <point x="593" y="-245" type="line"/>
    </contour>
    <contour>
      <point x="515" y="132" type="curve" smooth="yes"/>
      <point x="327" y="132"/>
      <point x="281" y="330"/>
      <point x="281" y="520" type="curve" smooth="yes"/>
      <point x="281" y="562" type="line" smooth="yes"/>
      <point x="281" y="750"/>
      <point x="329" y="950"/>
      <point x="515" y="950" type="curve"/>
      <point x="635" y="950"/>
      <point x="706" y="843"/>
      <point x="714" y="710" type="curve"/>
      <point x="881" y="710" type="line"/>
      <point x="873" y="933"/>
      <point x="734" y="1102"/>
      <point x="515" y="1102" type="curve" smooth="yes"/>
      <point x="234" y="1102"/>
      <point x="104" y="852"/>
      <point x="104" y="562" type="curve" smooth="yes"/>
      <point x="104" y="520" type="line" smooth="yes"/>
      <point x="104" y="230"/>
      <point x="234" y="-20"/>
      <point x="515" y="-20" type="curve"/>
      <point x="710" y="-20"/>
      <point x="873" y="149"/>
      <point x="881" y="342" type="curve"/>
      <point x="714" y="342" type="line"/>
      <point x="706" y="220"/>
      <point x="620" y="132"/>
    </contour>
  </outline>
</glyph>
<glyph name="brokenbar" format="2">
  <advance width="492"/>
  <unicode hex="00A6"/>
  <guideline x="0.0" y="901.0" angle="0.0" identifier="7LQ3Kp7jsx"/>
  <guideline x="0.0" y="555.0" angle="0.0" identifier="R2osEEre3D"/>
  <outline>
    <contour>
      <point x="333" y="-270" type="line"/>
      <point x="333" y="522" type="line"/>
      <point x="148" y="522" type="line"/>
      <point x="148" y="-270" type="line"/>
    </contour>
    <contour>
      <point x="333" y="1456" type="line"/>
      <point x="148" y="1456" type="line"/>
      <point x="148" y="698" type="line"/>
      <point x="333" y="698" type="line"/>
    </contour>
  </outline>
</glyph>
<glyph name="ordfeminine" format="1">
  <advance width="812"/>
  <unicode hex="00AA"/>
  <outline>
    <contour>
      <point x="510" y="862" type="line"/>
      <point x="510" y="807"/>
      <point x="517" y="753"/>
      <point x="530" y="706" type="curve"/>
      <point x="686" y="706" type="line"/>
      <point x="670" y="764"/>
      <point x="664" y="822"/>
      <point x="664" y="887" type="curve" smooth="yes"/>
      <point x="664" y="1201" type="line"/>
      <point x="664" y="1384"/>
      <point x="566" y="1477"/>
      <point x="417" y="1477" type="curve" smooth="yes"/>
      <point x="259" y="1477"/>
      <point x="155" y="1379"/>
      <point x="155" y="1244" type="curve"/>
      <point x="307" y="1231" type="line"/>
      <point x="307" y="1300"/>
      <point x="349" y="1336"/>
      <point x="417" y="1336" type="curve" smooth="yes"/>
      <point x="480" y="1336"/>
      <point x="510" y="1288"/>
      <point x="510" y="1202" type="curve"/>
    </contour>
    <contour>
      <point x="547" y="1149" type="line"/>
      <point x="428" y="1149" type="line"/>
      <point x="233" y="1149"/>
      <point x="140" y="1065"/>
      <point x="140" y="918" type="curve" smooth="yes"/>
      <point x="140" y="781"/>
      <point x="215" y="692"/>
      <point x="350" y="692" type="curve" smooth="yes"/>
      <point x="464" y="692"/>
      <point x="526" y="772"/>
      <point x="551" y="837" type="curve"/>
      <point x="537" y="949" type="line"/>
      <point x="537" y="898"/>
      <point x="455" y="829"/>
      <point x="388" y="829" type="curve" smooth="yes"/>
      <point x="325" y="829"/>
      <point x="295" y="864"/>
      <point x="295" y="922" type="curve" smooth="yes"/>
      <point x="295" y="985"/>
      <point x="335" y="1038"/>
      <point x="429" y="1038" type="curve"/>
      <point x="548" y="1038" type="line"/>
    </contour>
  </outline>
</glyph>
<glyph name="logicalnot" format="2">
  <advance width="998"/>
  <unicode hex="00AC"/>
  <outline>
    <contour>
      <point x="832" y="801" type="line"/>
      <point x="128" y="801" type="line"/>
      <point x="128" y="639" type="line"/>
      <point x="832" y="639" type="line"/>
    </contour>
    <contour>
      <point x="832" y="726" type="line"/>
      <point x="655" y="726" type="line"/>
      <point x="655" y="376" type="line"/>
      <point x="832" y="376" type="line"/>
    </contour>
  </outline>
</glyph>
<glyph name="macron" format="1">
  <advance width="849"/>
  <unicode hex="00AF"/>
  <outline>
    <contour>
      <point x="722" y="1445" type="line"/>
      <point x="142" y="1445" type="line"/>
      <point x="142" y="1303" type="line"/>
      <point x="722" y="1303" type="line"/>
    </contour>
    <contour>
      <point x="427" y="1282" type="move" name="_top"/>
    </contour>
    <contour>
      <point x="427" y="1577" type="move" name="mkmktop_acc"/>
    </contour>
  </outline>
</glyph>
<glyph name="twosuperior" format="2">
  <advance width="675"/>
  <unicode hex="00B2"/>
  <outline>
    <contour>
      <point x="599.0" y="795.0" type="line"/>
      <point x="277.0" y="795.0" type="line"/>
      <point x="412.0" y="941.0" type="line" smooth="yes"/>
      <point x="515.0" y="1047.0"/>
      <point x="575.0" y="1124.0"/>
      <point x="575.0" y="1231.0" type="curve" smooth="yes"/>
      <point x="575.0" y="1376.0"/>
      <point x="484.0" y="1467.0"/>
      <point x="329.0" y="1467.0" type="curve" smooth="yes"/>
      <point x="168.0" y="1467.0"/>
      <point x="72.0" y="1349.0"/>
      <point x="72.0" y="1206.0" type="curve"/>
      <point x="221.0" y="1206.0" type="line"/>
      <point x="221.0" y="1282.0"/>
      <point x="256.0" y="1339.0"/>
      <point x="333.0" y="1339.0" type="curve" smooth="yes"/>
      <point x="391.0" y="1339.0"/>
      <point x="425.0" y="1293.0"/>
      <point x="425.0" y="1229.0" type="curve" smooth="yes"/>
      <point x="425.0" y="1185.0"/>
      <point x="402.0" y="1129.0"/>
      <point x="329.0" y="1046.0" type="curve" smooth="yes"/>
      <point x="87.0" y="775.0" type="line"/>
      <point x="87.0" y="667.0" type="line"/>
      <point x="599.0" y="667.0" type="line"/>
    </contour>
  </outline>
</glyph>
<glyph name="threesuperior" format="2">
  <advance width="675"/>
  <unicode hex="00B3"/>
  <outline>
    <contour>
      <point x="242.0" y="1126.0" type="line"/>
      <point x="242.0" y="1048.0" type="line"/>
      <point x="341.0" y="1048.0" type="line"/>
      <point x="490.0" y="1048.0"/>
      <point x="574.0" y="1137.0"/>
      <point x="574.0" y="1243.0" type="curve"/>
      <point x="574.0" y="1389.0"/>
      <point x="471.0" y="1467.0"/>
      <point x="322.0" y="1467.0" type="curve" smooth="yes"/>
      <point x="185.0" y="1467.0"/>
      <point x="78.0" y="1382.0"/>
      <point x="78.0" y="1246.0" type="curve"/>
      <point x="227.0" y="1246.0" type="line"/>
      <point x="227.0" y="1303.0"/>
      <point x="268.0" y="1339.0"/>
      <point x="325.0" y="1339.0" type="curve" smooth="yes"/>
      <point x="395.0" y="1339.0"/>
      <point x="425.0" y="1294.0"/>
      <point x="425.0" y="1235.0" type="curve"/>
      <point x="425.0" y="1171.0"/>
      <point x="389.0" y="1126.0"/>
      <point x="315.0" y="1126.0" type="curve" smooth="yes"/>
    </contour>
    <contour>
      <point x="242.0" y="1011.0" type="line"/>
      <point x="315.0" y="1011.0" type="line" smooth="yes"/>
      <point x="391.0" y="1011.0"/>
      <point x="436.0" y="979.0"/>
      <point x="436.0" y="895.0" type="curve" smooth="yes"/>
      <point x="436.0" y="829.0"/>
      <point x="398.0" y="784.0"/>
      <point x="327.0" y="784.0" type="curve" smooth="yes"/>
      <point x="261.0" y="784.0"/>
      <point x="219.0" y="830.0"/>
      <point x="219.0" y="890.0" type="curve"/>
      <point x="70.0" y="890.0" type="line"/>
      <point x="70.0" y="727.0"/>
      <point x="193.0" y="656.0"/>
      <point x="322.0" y="656.0" type="curve" smooth="yes"/>
      <point x="471.0" y="656.0"/>
      <point x="585.0" y="740.0"/>
      <point x="585.0" y="887.0" type="curve" smooth="yes"/>
      <point x="585.0" y="1015.0"/>
      <point x="511.0" y="1089.0"/>
      <point x="341.0" y="1089.0" type="curve" smooth="yes"/>
      <point x="242.0" y="1089.0" type="line"/>
    </contour>
  </outline>
</glyph>
<glyph name="mu" format="1">
  <advance width="1021"/>
  <unicode hex="00B5"/>
  <outline>
    <contour>
      <point x="697" y="1082" type="line"/>
      <point x="697" y="250" type="line"/>
      <point x="715" y="0" type="line"/>
      <point x="874" y="0" type="line"/>
      <point x="874" y="1082" type="line"/>
    </contour>
    <contour>
      <point x="730" y="503" type="line"/>
      <point x="730" y="286"/>
      <point x="683" y="131"/>
      <point x="495" y="131" type="curve" smooth="yes"/>
      <point x="398" y="131"/>
      <point x="323" y="185"/>
      <point x="323" y="460" type="curve"/>
      <point x="213" y="460" type="line"/>
      <point x="253" y="171" type="line"/>
      <point x="303" y="35"/>
      <point x="376" y="-21"/>
      <point x="502" y="-21" type="curve" smooth="yes"/>
      <point x="704" y="-21"/>
      <point x="791" y="202"/>
      <point x="791" y="505" type="curve"/>
    </contour>
    <contour>
      <point x="147" y="1082" type="line"/>
      <point x="147" y="-416" type="line"/>
      <point x="323" y="-416" type="line"/>
      <point x="323" y="1082" type="line"/>
    </contour>
  </outline>
</glyph>
<glyph name="periodcentered" format="1">
  <advance width="499"/>
  <unicode hex="00B7"/>
  <outline>
    <contour>
      <point x="139" y="729" type="curve" smooth="yes"/>
      <point x="139" y="668"/>
      <point x="174" y="620"/>
      <point x="244" y="620" type="curve" smooth="yes"/>
      <point x="315" y="620"/>
      <point x="351" y="668"/>
      <point x="351" y="729" type="curve" smooth="yes"/>
      <point x="351" y="792"/>
      <point x="315" y="841"/>
      <point x="244" y="841" type="curve" smooth="yes"/>
      <point x="174" y="841"/>
      <point x="139" y="792"/>
    </contour>
  </outline>
</glyph>
<glyph name="cedilla" format="2">
  <advance width="470"/>
  <unicode hex="00B8"/>
  <outline>
    <contour>
      <point x="148" y="0" type="line"/>
      <point x="120" y="-135" type="line"/>
      <point x="213" y="-144"/>
      <point x="251" y="-163"/>
      <point x="251" y="-229" type="curve" smooth="yes"/>
      <point x="251" y="-300"/>
      <point x="198" y="-328"/>
      <point x="123" y="-328" type="curve"/>
      <point x="129" y="-435" type="line"/>
      <point x="299" y="-435"/>
      <point x="386" y="-351"/>
      <point x="386" y="-226" type="curve" smooth="yes"/>
      <point x="386" y="-110"/>
      <point x="324" y="-66"/>
      <point x="262" y="-53" type="curve"/>
      <point x="272" y="0" type="line"/>
    </contour>
  </outline>
</glyph>
<glyph name="onesuperior" format="1">
  <advance width="675"/>
  <unicode hex="00B9"/>
  <outline>
    <contour>
      <point x="446.0" y="1456.0" type="line"/>
      <point x="429.0" y="1456.0" type="line"/>
      <point x="122.0" y="1340.0" type="line"/>
      <point x="122.0" y="1211.0" type="line"/>
      <point x="298.0" y="1268.0" type="line"/>
      <point x="298.0" y="667.0" type="line"/>
      <point x="446.0" y="667.0" type="line"/>
    </contour>
  </outline>
</glyph>
<glyph name="ordmasculine" format="2">
  <advance width="826"/>
  <unicode hex="00BA"/>
  <guideline x="0.0" y="1975.0" angle="0.0" identifier="30IeZ4hL4i"/>
  <outline>
    <contour>
      <point x="119" y="1043" type="line"/>
      <point x="119" y="837"/>
      <point x="233" y="691"/>
      <point x="414" y="691" type="curve" smooth="yes"/>
      <point x="594" y="691"/>
      <point x="706" y="837"/>
      <point x="706" y="1043" type="curve"/>
      <point x="706" y="1124" type="line"/>
      <point x="706" y="1330"/>
      <point x="594" y="1477"/>
      <point x="412" y="1477" type="curve" smooth="yes"/>
      <point x="233" y="1477"/>
      <point x="119" y="1330"/>
      <point x="119" y="1124" type="curve"/>
    </contour>
    <contour>
      <point x="273" y="1124" type="line"/>
      <point x="273" y="1243"/>
      <point x="319" y="1336"/>
      <point x="412" y="1336" type="curve" smooth="yes"/>
      <point x="506" y="1336"/>
      <point x="552" y="1243"/>
      <point x="552" y="1124" type="curve"/>
      <point x="552" y="1043" type="line"/>
      <point x="552" y="921"/>
      <point x="506" y="830"/>
      <point x="414" y="830" type="curve" smooth="yes"/>
      <point x="319" y="830"/>
      <point x="273" y="921"/>
      <point x="273" y="1043" type="curve"/>
    </contour>
  </outline>
</glyph>
<glyph name="Atilde" format="1">
  <advance width="1181"/>
  <unicode hex="00C3"/>
  <outline>
    <component base="A"/>
    <component base="tilde" xOffset="162" yOffset="315"/>
    <contour>
      <point x="594" y="1601" type="move" name="parent_top"/>
    </contour>
    <contour>
      <point x="604" y="0" type="move" name="bottom"/>
    </contour>
    <contour>
      <point x="1161" y="1600" type="move" name="top_dd"/>
    </contour>
    <contour>
      <point x="1161" y="-407" type="move" name="bottom_dd"/>
    </contour>
    <contour>
      <point x="1161" y="1601" type="move" name="top0315"/>
    </contour>
    <contour>
      <point x="594" y="1913" type="move" name="top"/>
    </contour>
  </outline>
</glyph>
<glyph name="Adieresis" format="1">
  <advance width="1181"/>
  <unicode hex="00C4"/>
  <outline>
    <component base="A"/>
    <component base="dieresis" xOffset="171" yOffset="311"/>
    <contour>
      <point x="594" y="1601" type="move" name="parent_top"/>
    </contour>
    <contour>
      <point x="604" y="0" type="move" name="bottom"/>
    </contour>
    <contour>
      <point x="1161" y="1600" type="move" name="top_dd"/>
    </contour>
    <contour>
      <point x="1161" y="-407" type="move" name="bottom_dd"/>
    </contour>
    <contour>
      <point x="1161" y="1601" type="move" name="top0315"/>
    </contour>
    <contour>
      <point x="594" y="1888" type="move" name="top"/>
    </contour>
  </outline>
</glyph>
<glyph name="Aring" format="1">
  <advance width="1181"/>
  <unicode hex="00C5"/>
  <outline>
    <component base="A"/>
    <component base="ring" xOffset="258" yOffset="322"/>
    <contour>
      <point x="594" y="1601" type="move" name="parent_top"/>
    </contour>
    <contour>
      <point x="604" y="0" type="move" name="bottom"/>
    </contour>
    <contour>
      <point x="1161" y="1600" type="move" name="top_dd"/>
    </contour>
    <contour>
      <point x="1161" y="-407" type="move" name="bottom_dd"/>
    </contour>
    <contour>
      <point x="1161" y="1601" type="move" name="top0315"/>
    </contour>
    <contour>
      <point x="594" y="2015" type="move" name="top"/>
    </contour>
  </outline>
</glyph>
<glyph name="Ntilde" format="1">
  <advance width="1269"/>
  <unicode hex="00D1"/>
  <outline>
    <component base="N"/>
    <component base="tilde" xOffset="198" yOffset="315"/>
    <contour>
      <point x="630" y="1601" type="move" name="parent_top"/>
    </contour>
    <contour>
      <point x="624" y="10" type="move" name="bottom"/>
    </contour>
    <contour>
      <point x="1249" y="1600" type="move" name="top_dd"/>
    </contour>
    <contour>
      <point x="1249" y="-407" type="move" name="bottom_dd"/>
    </contour>
    <contour>
      <point x="1249" y="1601" type="move" name="top0315"/>
    </contour>
    <contour>
      <point x="630" y="1913" type="move" name="top"/>
    </contour>
  </outline>
</glyph>
<glyph name="Oslash" format="1">
  <advance width="1231"/>
  <unicode hex="00D8"/>
  <outline>
    <contour>
      <point x="1131" y="1516" type="line"/>
      <point x="1001" y="1516" type="line"/>
      <point x="156" y="-93" type="line"/>
      <point x="288" y="-93" type="line"/>
    </contour>
    <contour>
      <point x="1113" y="774" type="line"/>
      <point x="1113" y="1210"/>
      <point x="916" y="1476"/>
      <point x="615" y="1476" type="curve" smooth="yes"/>
      <point x="323" y="1476"/>
      <point x="117" y="1210"/>
      <point x="117" y="774" type="curve"/>
      <point x="117" y="682" type="line"/>
      <point x="117" y="245"/>
      <point x="325" y="-20"/>
      <point x="616" y="-20" type="curve" smooth="yes"/>
      <point x="917" y="-20"/>
      <point x="1113" y="245"/>
      <point x="1113" y="682" type="curve"/>
    </contour>
    <contour>
      <point x="930" y="682" type="line"/>
      <point x="930" y="333"/>
      <point x="817" y="143"/>
      <point x="616" y="143" type="curve" smooth="yes"/>
      <point x="428" y="143"/>
      <point x="299" y="333"/>
      <point x="299" y="682" type="curve" smooth="yes"/>
      <point x="299" y="776" type="line" smooth="yes"/>
      <point x="299" y="1122"/>
      <point x="426" y="1312"/>
      <point x="615" y="1312" type="curve" smooth="yes"/>
      <point x="814" y="1312"/>
      <point x="930" y="1122"/>
      <point x="930" y="776" type="curve"/>
    </contour>
    <contour>
      <point x="621" y="1674" type="move" name="top"/>
    </contour>
    <contour>
      <point x="1211" y="1600" type="move" name="top_dd"/>
    </contour>
    <contour>
      <point x="1211" y="1674" type="move" name="top0315"/>
    </contour>
    <contour>
      <point x="621" y="1674" type="move" name="parent_top"/>
    </contour>
  </outline>
</glyph>
<glyph name="Ucircumflex" format="1">
  <advance width="1150"/>
  <unicode hex="00DB"/>
  <outline>
    <component base="U"/>
    <component base="circumflex" xOffset="149" yOffset="311"/>
    <contour>
      <point x="576" y="1601" type="move" name="parent_top"/>
    </contour>
    <contour>
      <point x="577" y="0" type="move" name="bottom"/>
    </contour>
    <contour>
      <point x="1130" y="1600" type="move" name="top_dd"/>
    </contour>
    <contour>
      <point x="1130" y="-407" type="move" name="bottom_dd"/>
    </contour>
    <contour>
      <point x="1130" y="1601" type="move" name="top0315"/>
    </contour>
    <contour>
      <point x="576" y="1948" type="move" name="top"/>
    </contour>
  </outline>
</glyph>
<glyph name="acircumflex" format="1">
  <advance width="981"/>
  <unicode hex="00E2"/>
  <outline>
    <component base="a"/>
    <component base="circumflex" xOffset="82"/>
    <contour>
      <point x="509" y="1290" type="move" name="parent_top"/>
    </contour>
    <contour>
      <point x="440" y="0" type="move" name="bottom"/>
    </contour>
    <contour>
      <point x="961" y="1600" type="move" name="top_dd"/>
    </contour>
    <contour>
      <point x="961" y="-407" type="move" name="bottom_dd"/>
    </contour>
    <contour>
      <point x="961" y="1290" type="move" name="top0315"/>
    </contour>
    <contour>
      <point x="509" y="1637" type="move" name="top"/>
    </contour>
  </outline>
</glyph>
<glyph name="atilde" format="1">
  <advance width="981"/>
  <unicode hex="00E3"/>
  <outline>
    <component base="a"/>
    <component base="tilde" xOffset="77" yOffset="4"/>
    <contour>
      <point x="509" y="1290" type="move" name="parent_top"/>
    </contour>
    <contour>
      <point x="440" y="0" type="move" name="bottom"/>
    </contour>
    <contour>
      <point x="961" y="1600" type="move" name="top_dd"/>
    </contour>
    <contour>
      <point x="961" y="-407" type="move" name="bottom_dd"/>
    </contour>
    <contour>
      <point x="961" y="1290" type="move" name="top0315"/>
    </contour>
    <contour>
      <point x="509" y="1602" type="move" name="top"/>
    </contour>
  </outline>
</glyph>
<glyph name="ccedilla" format="1">
  <advance width="946"/>
  <unicode hex="00E7"/>
  <outline>
    <component base="c"/>
    <component base="cedilla" xOffset="260" yOffset="-10"/>
    <contour>
      <point x="465" y="1290" type="move" name="parent_top"/>
    </contour>
    <contour>
      <point x="926" y="1600" type="move" name="top_dd"/>
    </contour>
    <contour>
      <point x="926" y="-407" type="move" name="bottom_dd"/>
    </contour>
    <contour>
      <point x="926" y="1290" type="move" name="top0315"/>
    </contour>
    <contour>
      <point x="465" y="1290" type="move" name="top"/>
    </contour>
    <contour>
      <point x="465" y="-450" type="move" name="bottom"/>
    </contour>
  </outline>
</glyph>
<glyph name="igrave" format="1">
  <advance width="482"/>
  <unicode hex="00EC"/>
  <outline>
    <component base="dotlessi"/>
    <component base="grave" xOffset="-130" yOffset="-2"/>
    <contour>
      <point x="239" y="1288" type="move" name="parent_top"/>
    </contour>
    <contour>
      <point x="235" y="10" type="move" name="bottom"/>
    </contour>
    <contour>
      <point x="462" y="1288" type="move" name="top0315"/>
    </contour>
    <contour>
      <point x="239" y="1639" type="move" name="top"/>
    </contour>
  </outline>
</glyph>
<glyph name="icircumflex" format="1">
  <advance width="482"/>
  <unicode hex="00EE"/>
  <outline>
    <component base="dotlessi"/>
    <component base="circumflex" xOffset="-188" yOffset="-2"/>
    <contour>
      <point x="239" y="1288" type="move" name="parent_top"/>
    </contour>
    <contour>
      <point x="235" y="10" type="move" name="bottom"/>
    </contour>
    <contour>
      <point x="462" y="1288" type="move" name="top0315"/>
    </contour>
    <contour>
      <point x="239" y="1635" type="move" name="top"/>
    </contour>
  </outline>
</glyph>
<glyph name="eth" format="2">
  <advance width="1052"/>
  <unicode hex="00F0"/>
  <outline>
    <contour>
      <point x="221" y="1421" type="line"/>
      <point x="503" y="1332"/>
      <point x="746" y="1103"/>
      <point x="746" y="635" type="curve" smooth="yes"/>
      <point x="746" y="535" type="line" smooth="yes"/>
      <point x="746" y="305"/>
      <point x="662" y="132"/>
      <point x="525" y="132" type="curve" smooth="yes"/>
      <point x="377" y="132"/>
      <point x="295" y="303"/>
      <point x="295" y="468" type="curve"/>
      <point x="295" y="688"/>
      <point x="388" y="826"/>
      <point x="542" y="826" type="curve"/>
      <point x="689" y="826"/>
      <point x="763" y="703"/>
      <point x="763" y="614" type="curve"/>
      <point x="828" y="613" type="line"/>
      <point x="828" y="794"/>
      <point x="688" y="978"/>
      <point x="498" y="978" type="curve"/>
      <point x="283" y="978"/>
      <point x="119" y="776"/>
      <point x="119" y="468" type="curve"/>
      <point x="119" y="196"/>
      <point x="284" y="-20"/>
      <point x="521" y="-20" type="curve" smooth="yes"/>
      <point x="754" y="-20"/>
      <point x="923" y="206"/>
      <point x="923" y="535" type="curve"/>
      <point x="923" y="633" type="line"/>
      <point x="923" y="1136"/>
      <point x="652" y="1480"/>
      <point x="275" y="1581" type="curve"/>
    </contour>
    <contour>
      <point x="850" y="1417" type="line"/>
      <point x="781" y="1516" type="line"/>
      <point x="320" y="1151" type="line"/>
      <point x="389" y="1051" type="line"/>
    </contour>
  </outline>
</glyph>
<glyph name="ntilde" format="1">
  <advance width="992"/>
  <unicode hex="00F1"/>
  <outline>
    <component base="n"/>
    <component base="tilde" xOffset="68" yOffset="4"/>
    <contour>
      <point x="500" y="1290" type="move" name="parent_top"/>
    </contour>
    <contour>
      <point x="490" y="10" type="move" name="bottom"/>
    </contour>
    <contour>
      <point x="972" y="1600" type="move" name="top_dd"/>
    </contour>
    <contour>
      <point x="972" y="-407" type="move" name="bottom_dd"/>
    </contour>
    <contour>
      <point x="972" y="1290" type="move" name="top0315"/>
    </contour>
    <contour>
      <point x="500" y="1602" type="move" name="top"/>
    </contour>
  </outline>
</glyph>
<glyph name="divide" format="2">
  <advance width="1024"/>
  <unicode hex="00F7"/>
  <outline>
    <contour>
      <point x="918" y="784" type="line"/>
      <point x="80" y="784" type="line"/>
      <point x="80" y="600" type="line"/>
      <point x="918" y="600" type="line"/>
    </contour>
    <contour>
      <point x="397" y="1098" type="curve" smooth="yes"/>
      <point x="397" y="1037"/>
      <point x="432" y="989"/>
      <point x="502" y="989" type="curve" smooth="yes"/>
      <point x="573" y="989"/>
      <point x="609" y="1037"/>
      <point x="609" y="1098" type="curve" smooth="yes"/>
      <point x="609" y="1162"/>
      <point x="573" y="1210"/>
      <point x="502" y="1210" type="curve" smooth="yes"/>
      <point x="432" y="1210"/>
      <point x="397" y="1162"/>
    </contour>
    <contour>
      <point x="397" y="282" type="curve" smooth="yes"/>
      <point x="397" y="220"/>
      <point x="432" y="172"/>
      <point x="502" y="172" type="curve" smooth="yes"/>
      <point x="573" y="172"/>
      <point x="609" y="220"/>
      <point x="609" y="282" type="curve" smooth="yes"/>
      <point x="609" y="345"/>
      <point x="573" y="394"/>
      <point x="502" y="394" type="curve" smooth="yes"/>
      <point x="432" y="394"/>
      <point x="397" y="345"/>
    </contour>
  </outline>
</glyph>
<glyph name="ucircumflex" format="1">
  <advance width="990"/>
  <unicode hex="00FB"/>
  <outline>
    <component base="u"/>
    <component base="circumflex" xOffset="68"/>
    <contour>
      <point x="495" y="1290" type="move" name="parent_top"/>
    </contour>
    <contour>
      <point x="970" y="1600" type="move" name="top_dd"/>
    </contour>
    <contour>
      <point x="970" y="-407" type="move" name="bottom_dd"/>
    </contour>
    <contour>
      <point x="970" y="1290" type="move" name="top0315"/>
    </contour>
    <contour>
      <point x="493" y="0" type="move" name="bottom"/>
    </contour>
    <contour>
      <point x="495" y="1637" type="move" name="top"/>
    </contour>
  </outline>
</glyph>
<glyph name="yacute" format="1">
  <advance width="853"/>
  <unicode hex="00FD"/>
  <outline>
    <contour>
      <point x="445" y="1290" type="move" name="parent_top"/>
    </contour>
    <contour>
      <point x="617" y="-158" type="move" name="bottom"/>
    </contour>
    <contour>
      <point x="833" y="1600" type="move" name="top_dd"/>
    </contour>
    <contour>
      <point x="833" y="-407" type="move" name="bottom_dd"/>
    </contour>
    <contour>
      <point x="833" y="1290" type="move" name="top0315"/>
    </contour>
    <contour>
      <point x="445" y="1641" type="move" name="top"/>
    </contour>
    <component base="y"/>
    <component base="acute" xOffset="220"/>
  </outline>
</glyph>
<glyph name="ydieresis" format="1">
  <advance width="853"/>
  <unicode hex="00FF"/>
  <outline>
    <contour>
      <point x="445" y="1290" type="move" name="parent_top"/>
    </contour>
    <contour>
      <point x="617" y="-158" type="move" name="bottom"/>
    </contour>
    <contour>
      <point x="833" y="1600" type="move" name="top_dd"/>
    </contour>
    <contour>
      <point x="833" y="-407" type="move" name="bottom_dd"/>
    </contour>
    <contour>
      <point x="833" y="1290" type="move" name="top0315"/>
    </contour>
    <contour>
      <point x="445" y="1577" type="move" name="top"/>
    </contour>
    <component base="y"/>
    <component base="dieresis" xOffset="22"/>
  </outline>
</glyph>
<glyph name="amacron" format="1">
  <advance width="981"/>
  <unicode hex="0101"/>
  <outline>
    <contour>
      <point x="509" y="1290" type="move" name="parent_top"/>
    </contour>
    <contour>
      <point x="440" y="0" type="move" name="bottom"/>
    </contour>
    <contour>
      <point x="961" y="1600" type="move" name="top_dd"/>
    </contour>
    <contour>
      <point x="961" y="-407" type="move" name="bottom_dd"/>
    </contour>
    <contour>
      <point x="961" y="1290" type="move" name="top0315"/>
    </contour>
    <contour>
      <point x="509" y="1585" type="move" name="top"/>
    </contour>
    <component base="a"/>
    <component base="macron" xOffset="82" yOffset="8"/>
  </outline>
</glyph>
<glyph name="Aogonek" format="1">
  <advance width="1181"/>
  <unicode hex="0104"/>
  <outline>
    <contour>
      <point x="629" y="1327" type="line"/>
      <point x="630" y="1456" type="line"/>
      <point x="512" y="1456" type="line"/>
      <point x="43" y="0" type="line"/>
      <point x="231" y="0" type="line"/>
    </contour>
    <contour>
      <point x="951" y="0" type="line"/>
      <point x="1139" y="0" type="line"/>
      <point x="670" y="1456" type="line"/>
      <point x="551" y="1456" type="line"/>
      <point x="553" y="1327" type="line"/>
    </contour>
    <contour>
      <point x="951" y="539" type="line"/>
      <point x="249" y="539" type="line"/>
      <point x="249" y="381" type="line"/>
      <point x="951" y="381" type="line"/>
    </contour>
    <contour>
      <point x="1035" y="57" type="line"/>
      <point x="869" y="-27"/>
      <point x="809" y="-136"/>
      <point x="809" y="-243" type="curve" smooth="yes"/>
      <point x="809" y="-368"/>
      <point x="884" y="-434"/>
      <point x="977" y="-434" type="curve" smooth="yes"/>
      <point x="1047" y="-434"/>
      <point x="1089" y="-410"/>
      <point x="1117" y="-390" type="curve"/>
      <point x="1107" y="-268" type="line"/>
      <point x="1090" y="-279"/>
      <point x="1060" y="-295"/>
      <point x="1024" y="-295" type="curve" smooth="yes"/>
      <point x="978" y="-295"/>
      <point x="961" y="-266"/>
      <point x="961" y="-222" type="curve" smooth="yes"/>
      <point x="961" y="-135"/>
      <point x="1031" y="-64"/>
      <point x="1102" y="0" type="curve"/>
    </contour>
    <contour>
      <point x="594" y="1601" type="move" name="parent_top"/>
    </contour>
    <contour>
      <point x="604" y="0" type="move" name="bottom"/>
    </contour>
    <contour>
      <point x="1161" y="1600" type="move" name="top_dd"/>
    </contour>
    <contour>
      <point x="1161" y="-407" type="move" name="bottom_dd"/>
    </contour>
    <contour>
      <point x="1161" y="1601" type="move" name="top0315"/>
    </contour>
    <contour>
      <point x="594" y="1601" type="move" name="top"/>
    </contour>
  </outline>
</glyph>
<glyph name="Cacute" format="1">
  <advance width="1161"/>
  <unicode hex="0106"/>
  <outline>
    <contour>
      <point x="591" y="1633" type="move" name="parent_top"/>
    </contour>
    <contour>
      <point x="591" y="-10" type="move" name="bottom"/>
    </contour>
    <contour>
      <point x="1141" y="1600" type="move" name="top_dd"/>
    </contour>
    <contour>
      <point x="1141" y="-407" type="move" name="bottom_dd"/>
    </contour>
    <contour>
      <point x="1141" y="1633" type="move" name="top0315"/>
    </contour>
    <contour>
      <point x="591" y="1984" type="move" name="top"/>
    </contour>
    <component base="C"/>
    <component base="acute" xOffset="366" yOffset="343"/>
  </outline>
</glyph>
<glyph name="ccircumflex" format="1">
  <advance width="946"/>
  <unicode hex="0109"/>
  <outline>
    <component base="c"/>
    <component base="circumflex" xOffset="38"/>
    <contour>
      <point x="465" y="1290" type="move" name="parent_top"/>
    </contour>
    <contour>
      <point x="465" y="-10" type="move" name="bottom"/>
    </contour>
    <contour>
      <point x="926" y="1600" type="move" name="top_dd"/>
    </contour>
    <contour>
      <point x="926" y="-407" type="move" name="bottom_dd"/>
    </contour>
    <contour>
      <point x="926" y="1290" type="move" name="top0315"/>
    </contour>
    <contour>
      <point x="465" y="1637" type="move" name="top"/>
    </contour>
  </outline>
</glyph>
<glyph name="uni010A" format="1">
  <advance width="1161"/>
  <unicode hex="010A"/>
  <outline>
    <component base="C"/>
    <component base="dotaccent" xOffset="340" yOffset="343"/>
    <contour>
      <point x="591" y="1633" type="move" name="parent_top"/>
    </contour>
    <contour>
      <point x="591" y="-10" type="move" name="bottom"/>
    </contour>
    <contour>
      <point x="1141" y="1600" type="move" name="top_dd"/>
    </contour>
    <contour>
      <point x="1141" y="-407" type="move" name="bottom_dd"/>
    </contour>
    <contour>
      <point x="1141" y="1633" type="move" name="top0315"/>
    </contour>
    <contour>
      <point x="590" y="1915" type="move" name="top"/>
    </contour>
  </outline>
</glyph>
<glyph name="uni010B" format="1">
  <advance width="946"/>
  <unicode hex="010B"/>
  <outline>
    <contour>
      <point x="465" y="1290" type="move" name="parent_top"/>
    </contour>
    <contour>
      <point x="465" y="-10" type="move" name="bottom"/>
    </contour>
    <contour>
      <point x="926" y="1600" type="move" name="top_dd"/>
    </contour>
    <contour>
      <point x="926" y="-407" type="move" name="bottom_dd"/>
    </contour>
    <contour>
      <point x="926" y="1290" type="move" name="top0315"/>
    </contour>
    <contour>
      <point x="464" y="1572" type="move" name="top"/>
    </contour>
    <component base="c"/>
    <component base="dotaccent" xOffset="214"/>
  </outline>
</glyph>
<glyph name="Ccaron" format="1">
  <advance width="1161"/>
  <unicode hex="010C"/>
  <outline>
    <contour>
      <point x="591" y="1633" type="move" name="parent_top"/>
    </contour>
    <contour>
      <point x="591" y="-10" type="move" name="bottom"/>
    </contour>
    <contour>
      <point x="1141" y="1600" type="move" name="top_dd"/>
    </contour>
    <contour>
      <point x="1141" y="-407" type="move" name="bottom_dd"/>
    </contour>
    <contour>
      <point x="1141" y="1633" type="move" name="top0315"/>
    </contour>
    <contour>
      <point x="591" y="1970" type="move" name="top"/>
    </contour>
    <component base="C"/>
    <component base="caron" xOffset="184" yOffset="343"/>
  </outline>
</glyph>
<glyph name="ccaron" format="1">
  <advance width="946"/>
  <unicode hex="010D"/>
  <outline>
    <component base="c"/>
    <component base="caron" xOffset="58"/>
    <contour>
      <point x="465" y="1290" type="move" name="parent_top"/>
    </contour>
    <contour>
      <point x="465" y="-10" type="move" name="bottom"/>
    </contour>
    <contour>
      <point x="926" y="1600" type="move" name="top_dd"/>
    </contour>
    <contour>
      <point x="926" y="-407" type="move" name="bottom_dd"/>
    </contour>
    <contour>
      <point x="926" y="1290" type="move" name="top0315"/>
    </contour>
    <contour>
      <point x="465" y="1627" type="move" name="top"/>
    </contour>
  </outline>
</glyph>
<glyph name="Dcaron" format="1">
  <advance width="1169"/>
  <unicode hex="010E"/>
  <outline>
    <component base="D"/>
    <component base="caron" xOffset="127" yOffset="322"/>
    <contour>
      <point x="534" y="1612" type="move" name="parent_top"/>
    </contour>
    <contour>
      <point x="538" y="10" type="move" name="bottom"/>
    </contour>
    <contour>
      <point x="1149" y="1600" type="move" name="top_dd"/>
    </contour>
    <contour>
      <point x="1149" y="-407" type="move" name="bottom_dd"/>
    </contour>
    <contour>
      <point x="1149" y="1612" type="move" name="top0315"/>
    </contour>
    <contour>
      <point x="534" y="1949" type="move" name="top"/>
    </contour>
  </outline>
</glyph>
<glyph name="Dcroat" format="1">
  <advance width="1199"/>
  <unicode hex="0110"/>
  <outline>
    <contour>
      <point x="534" y="1612" type="move" name="parent_top"/>
    </contour>
    <contour>
      <point x="538" y="10" type="move" name="bottom"/>
    </contour>
    <contour>
      <point x="1179" y="1600" type="move" name="top_dd"/>
    </contour>
    <contour>
      <point x="1179" y="-407" type="move" name="bottom_dd"/>
    </contour>
    <contour>
      <point x="1179" y="1612" type="move" name="top0315"/>
    </contour>
    <contour>
      <point x="534" y="1612" type="move" name="top"/>
    </contour>
    <contour>
      <point x="517" y="0" type="line"/>
      <point x="865" y="0"/>
      <point x="1072" y="207"/>
      <point x="1072" y="604" type="curve"/>
      <point x="1072" y="851" type="line"/>
      <point x="1072" y="1248"/>
      <point x="862" y="1456"/>
      <point x="534" y="1456" type="curve"/>
      <point x="264" y="1456" type="line"/>
      <point x="264" y="1298" type="line"/>
      <point x="534" y="1298" type="line"/>
      <point x="774" y="1298"/>
      <point x="890" y="1161"/>
      <point x="890" y="853" type="curve"/>
      <point x="890" y="604" type="line" smooth="yes"/>
      <point x="890" y="309"/>
      <point x="778" y="157"/>
      <point x="517" y="157" type="curve"/>
      <point x="271" y="157" type="line"/>
      <point x="269" y="0" type="line"/>
    </contour>
    <contour>
      <point x="371" y="1456" type="line"/>
      <point x="187" y="1456" type="line"/>
      <point x="187" y="0" type="line"/>
      <point x="371" y="0" type="line"/>
    </contour>
    <contour>
      <point x="590" y="817" type="line"/>
      <point x="48" y="817" type="line"/>
      <point x="48" y="665" type="line"/>
      <point x="590" y="665" type="line"/>
    </contour>
  </outline>
</glyph>
<glyph name="dcroat" format="1">
  <advance width="1084"/>
  <unicode hex="0111"/>
  <outline>
    <contour>
      <point x="700" y="210" type="line"/>
      <point x="715" y="0" type="line"/>
      <point x="876" y="0" type="line"/>
      <point x="876" y="1536" type="line"/>
      <point x="700" y="1536" type="line"/>
    </contour>
    <contour>
      <point x="95" y="529" type="line"/>
      <point x="95" y="213"/>
      <point x="243" y="-20"/>
      <point x="456" y="-20" type="curve" smooth="yes"/>
      <point x="692" y="-20"/>
      <point x="803" y="177"/>
      <point x="827" y="494" type="curve"/>
      <point x="827" y="586" type="line"/>
      <point x="804" y="905"/>
      <point x="692" y="1102"/>
      <point x="458" y="1102" type="curve" smooth="yes"/>
      <point x="241" y="1102"/>
      <point x="95" y="880"/>
      <point x="95" y="550" type="curve" smooth="yes"/>
    </contour>
    <contour>
      <point x="272" y="550" type="line"/>
      <point x="272" y="765"/>
      <point x="340" y="946"/>
      <point x="504" y="946" type="curve" smooth="yes"/>
      <point x="647" y="946"/>
      <point x="717" y="806"/>
      <point x="744" y="659" type="curve"/>
      <point x="744" y="418" type="line"/>
      <point x="709" y="268"/>
      <point x="650" y="137"/>
      <point x="502" y="137" type="curve" smooth="yes"/>
      <point x="340" y="137"/>
      <point x="272" y="314"/>
      <point x="272" y="529" type="curve" smooth="yes"/>
    </contour>
    <contour>
      <point x="1039" y="1385" type="line"/>
      <point x="496" y="1385" type="line"/>
      <point x="496" y="1233" type="line"/>
      <point x="1039" y="1233" type="line"/>
    </contour>
    <contour>
      <point x="541" y="0" type="move" name="bottom"/>
    </contour>
    <contour>
      <point x="483" y="1611" type="move" name="top"/>
    </contour>
    <contour>
      <point x="996" y="1600" type="move" name="top_dd"/>
    </contour>
    <contour>
      <point x="996" y="-407" type="move" name="bottom_dd"/>
    </contour>
    <contour>
      <point x="541" y="0" type="move" name="bottom"/>
    </contour>
    <contour>
      <point x="1064" y="1611" type="move" name="top0315"/>
    </contour>
    <contour>
      <point x="768" y="1310" type="move" name="parenthesses.w2"/>
    </contour>
    <contour>
      <point x="768" y="1310" type="move" name="parenthesses.w2"/>
    </contour>
    <contour>
      <point x="483" y="1611" type="move" name="parent_top"/>
    </contour>
  </outline>
</glyph>
<glyph name="ebreve" format="1">
  <advance width="960"/>
  <unicode hex="0115"/>
  <outline>
    <contour>
      <point x="494" y="1290" type="move" name="parent_top"/>
    </contour>
    <contour>
      <point x="497" y="0" type="move" name="bottom"/>
    </contour>
    <contour>
      <point x="941" y="1600" type="move" name="top_dd"/>
    </contour>
    <contour>
      <point x="941" y="-407" type="move" name="bottom_dd"/>
    </contour>
    <contour>
      <point x="941" y="1290" type="move" name="top0315"/>
    </contour>
    <contour>
      <point x="494" y="1606" type="move" name="top"/>
    </contour>
    <component base="e"/>
    <component base="breve" xOffset="65"/>
  </outline>
</glyph>
<glyph name="Eogonek" format="2">
  <advance width="1018"/>
  <unicode hex="0118"/>
  <anchor x="540" y="1612" name="parent_top"/>
  <anchor x="540" y="10" name="bottom"/>
  <anchor x="998" y="1600" name="top_dd"/>
  <anchor x="998" y="-407" name="bottom_dd"/>
  <anchor x="998" y="1612" name="top0315"/>
  <anchor x="540" y="1612" name="top"/>
  <outline>
    <contour>
      <point x="940" y="157" type="line"/>
      <point x="308" y="157" type="line"/>
      <point x="308" y="0" type="line"/>
      <point x="940" y="0" type="line"/>
    </contour>
    <contour>
      <point x="341" y="1456" type="line"/>
      <point x="157" y="1456" type="line"/>
      <point x="157" y="0" type="line"/>
      <point x="341" y="0" type="line"/>
    </contour>
    <contour>
      <point x="855" y="830" type="line"/>
      <point x="308" y="830" type="line"/>
      <point x="308" y="673" type="line"/>
      <point x="855" y="673" type="line"/>
    </contour>
    <contour>
      <point x="930" y="1456" type="line"/>
      <point x="308" y="1456" type="line"/>
      <point x="308" y="1298" type="line"/>
      <point x="930" y="1298" type="line"/>
    </contour>
    <contour>
      <point x="810" y="57" type="line"/>
      <point x="644" y="-27"/>
      <point x="584" y="-136"/>
      <point x="584" y="-243" type="curve" smooth="yes"/>
      <point x="584" y="-368"/>
      <point x="659" y="-434"/>
      <point x="752" y="-434" type="curve" smooth="yes"/>
      <point x="822" y="-434"/>
      <point x="864" y="-410"/>
      <point x="892" y="-390" type="curve"/>
      <point x="882" y="-268" type="line"/>
      <point x="865" y="-279"/>
      <point x="835" y="-295"/>
      <point x="799" y="-295" type="curve" smooth="yes"/>
      <point x="753" y="-295"/>
      <point x="736" y="-266"/>
      <point x="736" y="-222" type="curve" smooth="yes"/>
      <point x="736" y="-135"/>
      <point x="806" y="-64"/>
      <point x="877" y="0" type="curve"/>
    </contour>
  </outline>
</glyph>
<glyph name="eogonek" format="1">
  <advance width="960"/>
  <unicode hex="0119"/>
  <outline>
    <contour>
      <point x="520" y="-20" type="curve"/>
      <point x="707" y="-20"/>
      <point x="812" y="60"/>
      <point x="871" y="143" type="curve"/>
      <point x="778" y="254" type="line"/>
      <point x="720" y="182"/>
      <point x="649" y="131"/>
      <point x="530" y="131" type="curve" smooth="yes"/>
      <point x="366" y="131"/>
      <point x="276" y="232"/>
      <point x="276" y="463" type="curve" smooth="yes"/>
      <point x="276" y="585" type="line" smooth="yes"/>
      <point x="276" y="875"/>
      <point x="368" y="950"/>
      <point x="500" y="950" type="curve"/>
      <point x="654" y="950"/>
      <point x="693" y="832"/>
      <point x="702" y="665" type="curve"/>
      <point x="702" y="640" type="line"/>
      <point x="203" y="640" type="line"/>
      <point x="203" y="489" type="line"/>
      <point x="879" y="489" type="line"/>
      <point x="879" y="592" type="line" smooth="yes"/>
      <point x="879" y="922"/>
      <point x="771" y="1102"/>
      <point x="500" y="1102" type="curve" smooth="yes"/>
      <point x="296" y="1102"/>
      <point x="99" y="966"/>
      <point x="99" y="585" type="curve" smooth="yes"/>
      <point x="99" y="463" type="line" smooth="yes"/>
      <point x="99" y="132"/>
      <point x="260" y="-20"/>
    </contour>
    <contour>
      <point x="632" y="83" type="line"/>
      <point x="466" y="-1"/>
      <point x="406" y="-110"/>
      <point x="406" y="-217" type="curve" smooth="yes"/>
      <point x="406" y="-342"/>
      <point x="481" y="-408"/>
      <point x="574" y="-408" type="curve" smooth="yes"/>
      <point x="644" y="-408"/>
      <point x="686" y="-384"/>
      <point x="714" y="-364" type="curve"/>
      <point x="704" y="-242" type="line"/>
      <point x="687" y="-253"/>
      <point x="657" y="-269"/>
      <point x="621" y="-269" type="curve" smooth="yes"/>
      <point x="575" y="-269"/>
      <point x="558" y="-240"/>
      <point x="558" y="-196" type="curve" smooth="yes"/>
      <point x="558" y="-109"/>
      <point x="628" y="-38"/>
      <point x="699" y="26" type="curve"/>
    </contour>
    <contour>
      <point x="494" y="1290" type="move" name="parent_top"/>
    </contour>
    <contour>
      <point x="497" y="0" type="move" name="bottom"/>
    </contour>
    <contour>
      <point x="941" y="1600" type="move" name="top_dd"/>
    </contour>
    <contour>
      <point x="941" y="-407" type="move" name="bottom_dd"/>
    </contour>
    <contour>
      <point x="941" y="1290" type="move" name="top0315"/>
    </contour>
    <contour>
      <point x="494" y="1290" type="move" name="top"/>
    </contour>
  </outline>
</glyph>
<glyph name="Gbreve" format="1">
  <advance width="1210"/>
  <unicode hex="011E"/>
  <outline>
    <component base="G"/>
    <component base="breve" xOffset="150" yOffset="343"/>
    <contour>
      <point x="579" y="1633" type="move" name="parent_top"/>
    </contour>
    <contour>
      <point x="633" y="-9" type="move" name="bottom"/>
    </contour>
    <contour>
      <point x="1190" y="1600" type="move" name="top_dd"/>
    </contour>
    <contour>
      <point x="1190" y="-407" type="move" name="bottom_dd"/>
    </contour>
    <contour>
      <point x="1190" y="1633" type="move" name="top0315"/>
    </contour>
    <contour>
      <point x="579" y="1949" type="move" name="top"/>
    </contour>
  </outline>
</glyph>
<glyph name="uni0120" format="1">
  <advance width="1210"/>
  <unicode hex="0120"/>
  <outline>
    <contour>
      <point x="579" y="1633" type="move" name="parent_top"/>
    </contour>
    <contour>
      <point x="633" y="-9" type="move" name="bottom"/>
    </contour>
    <contour>
      <point x="1190" y="1600" type="move" name="top_dd"/>
    </contour>
    <contour>
      <point x="1190" y="-407" type="move" name="bottom_dd"/>
    </contour>
    <contour>
      <point x="1190" y="1633" type="move" name="top0315"/>
    </contour>
    <contour>
      <point x="578" y="1915" type="move" name="top"/>
    </contour>
    <component base="G"/>
    <component base="dotaccent" xOffset="328" yOffset="343"/>
  </outline>
</glyph>
<glyph name="uni0121" format="1">
  <advance width="1010"/>
  <unicode hex="0121"/>
  <outline>
    <component base="g"/>
    <component base="dotaccent" xOffset="234"/>
    <contour>
      <point x="485" y="1290" type="move" name="parent_top"/>
    </contour>
    <contour>
      <point x="485" y="-447" type="move" name="bottom"/>
    </contour>
    <contour>
      <point x="990" y="1600" type="move" name="top_dd"/>
    </contour>
    <contour>
      <point x="990" y="-407" type="move" name="bottom_dd"/>
    </contour>
    <contour>
      <point x="990" y="1290" type="move" name="top0315"/>
    </contour>
    <contour>
      <point x="484" y="1572" type="move" name="top"/>
    </contour>
  </outline>
</glyph>
<glyph name="Gcommaaccent" format="1">
  <advance width="1210"/>
  <unicode hex="0122"/>
  <outline>
    <component base="G"/>
    <component base="commaaccent" xOffset="396" yOffset="-363"/>
    <contour>
      <point x="579" y="1633" type="move" name="parent_top"/>
    </contour>
    <contour>
      <point x="1190" y="1600" type="move" name="top_dd"/>
    </contour>
    <contour>
      <point x="1190" y="-407" type="move" name="bottom_dd"/>
    </contour>
    <contour>
      <point x="1190" y="1633" type="move" name="top0315"/>
    </contour>
    <contour>
      <point x="579" y="1633" type="move" name="top"/>
    </contour>
    <contour>
      <point x="633" y="-525" type="move" name="bottom"/>
    </contour>
  </outline>
</glyph>
<glyph name="Hbar" format="1">
  <advance width="1253"/>
  <unicode hex="0126"/>
  <outline>
    <contour>
      <point x="1220" y="1167" type="line"/>
      <point x="47" y="1167" type="line"/>
      <point x="47" y="1024" type="line"/>
      <point x="1220" y="1024" type="line"/>
    </contour>
    <contour>
      <point x="947" y="830" type="line"/>
      <point x="317" y="830" type="line"/>
      <point x="317" y="673" type="line"/>
      <point x="947" y="673" type="line"/>
    </contour>
    <contour>
      <point x="342" y="1456" type="line"/>
      <point x="158" y="1456" type="line"/>
      <point x="158" y="0" type="line"/>
      <point x="342" y="0" type="line"/>
    </contour>
    <contour>
      <point x="1111" y="1456" type="line"/>
      <point x="927" y="1456" type="line"/>
      <point x="927" y="0" type="line"/>
      <point x="1111" y="0" type="line"/>
    </contour>
    <contour>
      <point x="634" y="1612" type="move" name="top"/>
    </contour>
    <contour>
      <point x="634" y="10" type="move" name="bottom"/>
    </contour>
    <contour>
      <point x="1233" y="1612" type="move" name="top0315"/>
    </contour>
    <contour>
      <point x="634" y="1612" type="move" name="parent_top"/>
    </contour>
  </outline>
</glyph>
<glyph name="hbar" format="2">
  <advance width="1019"/>
  <unicode hex="0127"/>
  <anchor x="445" y="1611" name="parent_top"/>
  <anchor x="517" y="10" name="bottom"/>
  <anchor x="999" y="1600" name="top_dd"/>
  <anchor x="999" y="-407" name="bottom_dd"/>
  <anchor x="999" y="1611" name="top0315"/>
  <anchor x="445" y="1611" name="top"/>
  <outline>
    <contour>
      <point x="340" y="1536" type="line"/>
      <point x="163" y="1536" type="line"/>
      <point x="163" y="0" type="line"/>
      <point x="340" y="0" type="line"/>
    </contour>
    <contour>
      <point x="297" y="582" type="line"/>
      <point x="297" y="777"/>
      <point x="403" y="946"/>
      <point x="543" y="946" type="curve" smooth="yes"/>
      <point x="656" y="946"/>
      <point x="712" y="880"/>
      <point x="712" y="711" type="curve" smooth="yes"/>
      <point x="712" y="0" type="line"/>
      <point x="889" y="0" type="line"/>
      <point x="889" y="709" type="line" smooth="yes"/>
      <point x="889" y="993"/>
      <point x="775" y="1102"/>
      <point x="598" y="1102" type="curve" smooth="yes"/>
      <point x="373" y="1102"/>
      <point x="223" y="882"/>
      <point x="225" y="585" type="curve"/>
    </contour>
    <contour>
      <point x="558" y="1385" type="line"/>
      <point x="16" y="1385" type="line"/>
      <point x="16" y="1233" type="line"/>
      <point x="558" y="1233" type="line"/>
    </contour>
  </outline>
</glyph>
<glyph name="Itilde" format="1">
  <advance width="512"/>
  <unicode hex="0128"/>
  <outline>
    <contour>
      <point x="256" y="1612" type="move" name="parent_top"/>
    </contour>
    <contour>
      <point x="256" y="9" type="move" name="bottom"/>
    </contour>
    <contour>
      <point x="492" y="1600" type="move" name="top_dd"/>
    </contour>
    <contour>
      <point x="492" y="-407" type="move" name="bottom_dd"/>
    </contour>
    <contour>
      <point x="492" y="1612" type="move" name="top0315"/>
    </contour>
    <contour>
      <point x="256" y="1924" type="move" name="top"/>
    </contour>
    <component base="I"/>
    <component base="tilde" xOffset="-176" yOffset="326"/>
  </outline>
</glyph>
<glyph name="itilde" format="1">
  <advance width="482"/>
  <unicode hex="0129"/>
  <outline>
    <contour>
      <point x="239" y="1288" type="move" name="parent_top"/>
    </contour>
    <contour>
      <point x="235" y="10" type="move" name="bottom"/>
    </contour>
    <contour>
      <point x="462" y="1288" type="move" name="top0315"/>
    </contour>
    <contour>
      <point x="239" y="1600" type="move" name="top"/>
    </contour>
    <component base="dotlessi"/>
    <component base="tilde" xOffset="-193" yOffset="2"/>
  </outline>
</glyph>
<glyph name="imacron" format="1">
  <advance width="482"/>
  <unicode hex="012B"/>
  <outline>
    <component base="dotlessi"/>
    <component base="macron" xOffset="-188" yOffset="6"/>
    <contour>
      <point x="239" y="1288" type="move" name="parent_top"/>
    </contour>
    <contour>
      <point x="235" y="10" type="move" name="bottom"/>
    </contour>
    <contour>
      <point x="462" y="1288" type="move" name="top0315"/>
    </contour>
    <contour>
      <point x="239" y="1583" type="move" name="top"/>
    </contour>
  </outline>
</glyph>
<glyph name="ibreve" format="1">
  <advance width="482"/>
  <unicode hex="012D"/>
  <outline>
    <component base="dotlessi"/>
    <component base="breve" xOffset="-190" yOffset="-2"/>
    <contour>
      <point x="239" y="1288" type="move" name="parent_top"/>
    </contour>
    <contour>
      <point x="235" y="10" type="move" name="bottom"/>
    </contour>
    <contour>
      <point x="462" y="1288" type="move" name="top0315"/>
    </contour>
    <contour>
      <point x="239" y="1604" type="move" name="top"/>
    </contour>
  </outline>
</glyph>
<glyph name="iogonek" format="1">
  <advance width="470"/>
  <unicode hex="012F"/>
  <outline>
    <contour>
      <point x="235" y="10" type="move" name="bottom"/>
    </contour>
    <contour>
      <point x="236" y="1600" type="move" name="parent_top"/>
    </contour>
    <contour>
      <point x="450" y="1600" type="move" name="top_dd"/>
    </contour>
    <contour>
      <point x="450" y="-407" type="move" name="bottom_dd"/>
    </contour>
    <contour>
      <point x="450" y="1600" type="move" name="top0315"/>
    </contour>
    <contour>
      <point x="236" y="1600" type="move" name="top"/>
    </contour>
    <component base="i"/>
    <component base="ogonek" xOffset="-44"/>
  </outline>
</glyph>
<glyph name="dotlessi" format="1">
  <advance width="482"/>
  <unicode hex="0131"/>
  <outline>
    <contour>
      <point x="239" y="1288" type="move" name="top"/>
    </contour>
    <contour>
      <point x="235" y="10" type="move" name="bottom"/>
    </contour>
    <contour>
      <point x="263" y="654" type="move" name="rhotichook"/>
    </contour>
    <contour>
      <point x="462" y="1288" type="move" name="top0315"/>
    </contour>
    <contour>
      <point x="324" y="1082" type="line"/>
      <point x="147" y="1082" type="line"/>
      <point x="147" y="0" type="line"/>
      <point x="324" y="0" type="line"/>
    </contour>
  </outline>
</glyph>
<glyph name="Jcircumflex" format="1">
  <advance width="990"/>
  <unicode hex="0134"/>
  <outline>
    <contour>
      <point x="727" y="1599" type="move" name="parent_top"/>
    </contour>
    <contour>
      <point x="450" y="-10" type="move" name="bottom"/>
    </contour>
    <contour>
      <point x="970" y="1600" type="move" name="top_dd"/>
    </contour>
    <contour>
      <point x="970" y="-407" type="move" name="bottom_dd"/>
    </contour>
    <contour>
      <point x="970" y="1599" type="move" name="top0315"/>
    </contour>
    <contour>
      <point x="727" y="1946" type="move" name="top"/>
    </contour>
    <component base="J"/>
    <component base="circumflex" xOffset="300" yOffset="309"/>
  </outline>
</glyph>
<glyph name="jcircumflex" format="1">
  <advance width="488"/>
  <unicode hex="0135"/>
  <outline>
    <component base="uni0237"/>
    <component base="circumflex" xOffset="-175" yOffset="-41"/>
    <contour>
      <point x="252" y="1249" type="move" name="parent_top"/>
    </contour>
    <contour>
      <point x="468" y="1249" type="move" name="top0315"/>
    </contour>
    <contour>
      <point x="252" y="1596" type="move" name="top"/>
    </contour>
  </outline>
</glyph>
<glyph name="kcommaaccent" format="1">
  <advance width="923"/>
  <unicode hex="0137"/>
  <outline>
    <component base="k"/>
    <component base="commaaccent" xOffset="229" yOffset="-283"/>
    <contour>
      <point x="482" y="1611" type="move" name="parent_top"/>
    </contour>
    <contour>
      <point x="903" y="1600" type="move" name="top_dd"/>
    </contour>
    <contour>
      <point x="903" y="-407" type="move" name="bottom_dd"/>
    </contour>
    <contour>
      <point x="794" y="1611" type="move" name="top0315"/>
    </contour>
    <contour>
      <point x="482" y="1611" type="move" name="top"/>
    </contour>
    <contour>
      <point x="466" y="-445" type="move" name="bottom"/>
    </contour>
  </outline>
</glyph>
<glyph name="kgreenlandic" format="1">
  <advance width="1006"/>
  <unicode hex="0138"/>
  <outline>
    <contour>
      <point x="521" y="1290" type="move" name="top"/>
    </contour>
    <contour>
      <point x="521" y="10" type="move" name="bottom"/>
    </contour>
    <contour>
      <point x="986" y="1290" type="move" name="top0315"/>
    </contour>
    <contour>
      <point x="324" y="1082" type="line"/>
      <point x="147" y="1082" type="line"/>
      <point x="147" y="0" type="line"/>
      <point x="324" y="0" type="line"/>
    </contour>
    <contour>
      <point x="918" y="1082" type="line"/>
      <point x="705" y="1082" type="line"/>
      <point x="387" y="624" type="line"/>
      <point x="237" y="624" type="line"/>
      <point x="265" y="462" type="line"/>
      <point x="468" y="462" type="line"/>
    </contour>
    <contour>
      <point x="721" y="0" type="line"/>
      <point x="944" y="0" type="line"/>
      <point x="494" y="624" type="line"/>
      <point x="381" y="490" type="line"/>
    </contour>
  </outline>
</glyph>
<glyph name="Lacute" format="1">
  <advance width="974"/>
  <unicode hex="0139"/>
  <outline>
    <contour>
      <point x="246" y="1596" type="move" name="parent_top"/>
    </contour>
    <contour>
      <point x="540" y="10" type="move" name="bottom"/>
    </contour>
    <contour>
      <point x="954" y="1600" type="move" name="top_dd"/>
    </contour>
    <contour>
      <point x="954" y="-407" type="move" name="bottom_dd"/>
    </contour>
    <contour>
      <point x="954" y="1596" type="move" name="top0315"/>
    </contour>
    <contour>
      <point x="246" y="1947" type="move" name="top"/>
    </contour>
    <component base="L"/>
    <component base="acute" xOffset="21" yOffset="306"/>
  </outline>
</glyph>
<glyph name="lacute" format="1">
  <advance width="470"/>
  <unicode hex="013A"/>
  <outline>
    <contour>
      <point x="235" y="1697" type="move" name="parent_top"/>
    </contour>
    <contour>
      <point x="235" y="10" type="move" name="bottom"/>
    </contour>
    <contour>
      <point x="450" y="1600" type="move" name="top_dd"/>
    </contour>
    <contour>
      <point x="450" y="-407" type="move" name="bottom_dd"/>
    </contour>
    <contour>
      <point x="450" y="1697" type="move" name="top0315"/>
    </contour>
    <contour>
      <point x="235" y="2048" type="move" name="top"/>
    </contour>
    <component base="l"/>
    <component base="acute" xOffset="10" yOffset="407"/>
  </outline>
</glyph>
<glyph name="lcommaaccent" format="1">
  <advance width="470"/>
  <unicode hex="013C"/>
  <outline>
    <contour>
      <point x="235" y="1697" type="move" name="parent_top"/>
    </contour>
    <contour>
      <point x="450" y="1600" type="move" name="top_dd"/>
    </contour>
    <contour>
      <point x="450" y="-407" type="move" name="bottom_dd"/>
    </contour>
    <contour>
      <point x="450" y="1697" type="move" name="top0315"/>
    </contour>
    <contour>
      <point x="235" y="1697" type="move" name="top"/>
    </contour>
    <contour>
      <point x="235" y="-506" type="move" name="bottom"/>
    </contour>
    <component base="l"/>
    <component base="commaaccent" xOffset="-2" yOffset="-344"/>
  </outline>
</glyph>
<glyph name="Lcaron" format="1">
  <advance width="974"/>
  <unicode hex="013D"/>
  <outline>
    <contour>
      <point x="246" y="1596" type="move" name="parent_top"/>
    </contour>
    <contour>
      <point x="540" y="10" type="move" name="bottom"/>
    </contour>
    <contour>
      <point x="954" y="1600" type="move" name="top_dd"/>
    </contour>
    <contour>
      <point x="954" y="-407" type="move" name="bottom_dd"/>
    </contour>
    <contour>
      <point x="954" y="1596" type="move" name="top0315"/>
    </contour>
    <contour>
      <point x="246" y="1596" type="move" name="top"/>
    </contour>
    <component base="L"/>
    <component base="commaaccent" xOffset="408" yOffset="1218"/>
  </outline>
</glyph>
<glyph name="Ldot" format="1">
  <advance width="974"/>
  <unicode hex="013F"/>
  <outline>
    <component base="L"/>
    <component base="dotaccent" xOffset="368" yOffset="-572"/>
    <contour>
      <point x="246" y="1596" type="move" name="parent_top"/>
    </contour>
    <contour>
      <point x="540" y="10" type="move" name="bottom"/>
    </contour>
    <contour>
      <point x="954" y="1600" type="move" name="top_dd"/>
    </contour>
    <contour>
      <point x="954" y="-407" type="move" name="bottom_dd"/>
    </contour>
    <contour>
      <point x="954" y="1596" type="move" name="top0315"/>
    </contour>
    <contour>
      <point x="246" y="1596" type="move" name="top"/>
    </contour>
  </outline>
</glyph>
<glyph name="Lslash" format="1">
  <advance width="974"/>
  <unicode hex="0141"/>
  <outline>
    <contour>
      <point x="548" y="928" type="line"/>
      <point x="54" y="741" type="line"/>
      <point x="54" y="616" type="line"/>
      <point x="548" y="803" type="line"/>
    </contour>
    <contour>
      <point x="913" y="157" type="line"/>
      <point x="309" y="157" type="line"/>
      <point x="309" y="0" type="line"/>
      <point x="913" y="0" type="line"/>
    </contour>
    <contour>
      <point x="342" y="1456" type="line"/>
      <point x="158" y="1456" type="line"/>
      <point x="158" y="0" type="line"/>
      <point x="342" y="0" type="line"/>
    </contour>
    <contour>
      <point x="247" y="1596" type="move" name="top"/>
    </contour>
    <contour>
      <point x="541" y="10" type="move" name="bottom"/>
    </contour>
    <contour>
      <point x="954" y="1596" type="move" name="top0315"/>
    </contour>
    <contour>
      <point x="247" y="1596" type="move" name="parent_top"/>
    </contour>
  </outline>
</glyph>
<glyph name="lslash" format="1">
  <advance width="513"/>
  <unicode hex="0142"/>
  <outline>
    <contour>
      <point x="465" y="930" type="line"/>
      <point x="52" y="743" type="line"/>
      <point x="52" y="621" type="line"/>
      <point x="465" y="808" type="line"/>
    </contour>
    <contour>
      <point x="339" y="1536" type="line"/>
      <point x="162" y="1536" type="line"/>
      <point x="162" y="0" type="line"/>
      <point x="339" y="0" type="line"/>
    </contour>
    <contour>
      <point x="258" y="1697" type="move" name="top"/>
    </contour>
    <contour>
      <point x="258" y="10" type="move" name="bottom"/>
    </contour>
    <contour>
      <point x="493" y="1697" type="move" name="top0315"/>
    </contour>
    <contour>
      <point x="258" y="1697" type="move" name="parent_top"/>
    </contour>
  </outline>
</glyph>
<glyph name="Ncommaaccent" format="1">
  <advance width="1269"/>
  <unicode hex="0145"/>
  <outline>
    <component base="N"/>
    <component base="commaaccent" xOffset="387" yOffset="-344"/>
    <contour>
      <point x="630" y="1601" type="move" name="parent_top"/>
    </contour>
    <contour>
      <point x="1249" y="1600" type="move" name="top_dd"/>
    </contour>
    <contour>
      <point x="1249" y="-407" type="move" name="bottom_dd"/>
    </contour>
    <contour>
      <point x="1249" y="1601" type="move" name="top0315"/>
    </contour>
    <contour>
      <point x="630" y="1601" type="move" name="top"/>
    </contour>
    <contour>
      <point x="624" y="-506" type="move" name="bottom"/>
    </contour>
  </outline>
</glyph>
<glyph name="napostrophe" format="1">
  <advance width="992"/>
  <unicode hex="0149"/>
  <outline>
    <contour>
      <point x="500" y="1290" type="move" name="parent_top"/>
    </contour>
    <contour>
      <point x="490" y="10" type="move" name="bottom"/>
    </contour>
    <contour>
      <point x="972" y="1600" type="move" name="top_dd"/>
    </contour>
    <contour>
      <point x="972" y="-407" type="move" name="bottom_dd"/>
    </contour>
    <contour>
      <point x="972" y="1290" type="move" name="top0315"/>
    </contour>
    <contour>
      <point x="500" y="1290" type="move" name="top"/>
    </contour>
    <component base="n"/>
    <component base="commaaccent" xOffset="-133" yOffset="1302"/>
  </outline>
</glyph>
<glyph name="eng" format="1">
  <advance width="1021"/>
  <unicode hex="014B"/>
  <outline>
    <contour>
      <point x="315" y="851" type="line"/>
      <point x="297" y="1082" type="line"/>
      <point x="138" y="1082" type="line"/>
      <point x="138" y="0" type="line"/>
      <point x="315" y="0" type="line"/>
    </contour>
    <contour>
      <point x="260" y="576" type="line"/>
      <point x="260" y="779"/>
      <point x="338" y="946"/>
      <point x="511" y="946" type="curve" smooth="yes"/>
      <point x="636" y="946"/>
      <point x="700" y="879"/>
      <point x="700" y="679" type="curve" smooth="yes"/>
      <point x="700" y="-89" type="line" smooth="yes"/>
      <point x="700" y="-212"/>
      <point x="662" y="-275"/>
      <point x="599" y="-275" type="curve" smooth="yes"/>
      <point x="587" y="-275"/>
      <point x="536" y="-271"/>
      <point x="518" y="-263" type="curve"/>
      <point x="506" y="-420" type="line"/>
      <point x="539" y="-433"/>
      <point x="566" y="-437"/>
      <point x="599" y="-437" type="curve" smooth="yes"/>
      <point x="772" y="-437"/>
      <point x="876" y="-314"/>
      <point x="876" y="-89" type="curve" smooth="yes"/>
      <point x="876" y="682" type="line" smooth="yes"/>
      <point x="876" y="979"/>
      <point x="755" y="1102"/>
      <point x="567" y="1102" type="curve" smooth="yes"/>
      <point x="357" y="1102"/>
      <point x="225" y="880"/>
      <point x="225" y="574" type="curve"/>
    </contour>
    <contour>
      <point x="500" y="1290" type="move" name="top"/>
    </contour>
    <contour>
      <point x="490" y="10" type="move" name="bottom"/>
    </contour>
    <contour>
      <point x="698" y="-304" type="move" name="parenthesses.w1"/>
    </contour>
    <contour>
      <point x="490" y="10" type="move" name="markbottom"/>
    </contour>
    <contour>
      <point x="1001" y="1290" type="move" name="top0315"/>
    </contour>
    <contour>
      <point x="698" y="-304" type="move" name="markparenthesses.w1"/>
    </contour>
    <contour>
      <point x="500" y="1290" type="move" name="parent_top"/>
    </contour>
  </outline>
</glyph>
<glyph name="Omacron" format="1">
  <advance width="1231"/>
  <unicode hex="014C"/>
  <outline>
    <component base="O"/>
    <component base="macron" xOffset="191" yOffset="321"/>
    <contour>
      <point x="618" y="1603" type="move" name="parent_top"/>
    </contour>
    <contour>
      <point x="618" y="0" type="move" name="bottom"/>
    </contour>
    <contour>
      <point x="1211" y="1600" type="move" name="top_dd"/>
    </contour>
    <contour>
      <point x="1211" y="-407" type="move" name="bottom_dd"/>
    </contour>
    <contour>
      <point x="1211" y="1603" type="move" name="top0315"/>
    </contour>
    <contour>
      <point x="618" y="1898" type="move" name="top"/>
    </contour>
  </outline>
</glyph>
<glyph name="Obreve" format="1">
  <advance width="1231"/>
  <unicode hex="014E"/>
  <outline>
    <component base="O"/>
    <component base="breve" xOffset="189" yOffset="313"/>
    <contour>
      <point x="618" y="1603" type="move" name="parent_top"/>
    </contour>
    <contour>
      <point x="618" y="0" type="move" name="bottom"/>
    </contour>
    <contour>
      <point x="1211" y="1600" type="move" name="top_dd"/>
    </contour>
    <contour>
      <point x="1211" y="-407" type="move" name="bottom_dd"/>
    </contour>
    <contour>
      <point x="1211" y="1603" type="move" name="top0315"/>
    </contour>
    <contour>
      <point x="618" y="1919" type="move" name="top"/>
    </contour>
  </outline>
</glyph>
<glyph name="OE" format="1">
  <advance width="1693"/>
  <unicode hex="0152"/>
  <outline>
    <contour>
      <point x="579" y="1477" type="curve" smooth="yes"/>
      <point x="298" y="1477"/>
      <point x="107" y="1233"/>
      <point x="107" y="880" type="curve"/>
      <point x="107" y="576" type="line"/>
      <point x="107" y="223"/>
      <point x="299" y="-21"/>
      <point x="581" y="-21" type="curve" smooth="yes"/>
      <point x="665" y="-21"/>
      <point x="746" y="-10"/>
      <point x="820" y="0" type="curve"/>
      <point x="820" y="158" type="line"/>
      <point x="748" y="142"/>
      <point x="667" y="131"/>
      <point x="581" y="131" type="curve" smooth="yes"/>
      <point x="400" y="131"/>
      <point x="284" y="285"/>
      <point x="284" y="576" type="curve"/>
      <point x="284" y="882" type="line"/>
      <point x="284" y="1172"/>
      <point x="398" y="1325"/>
      <point x="579" y="1325" type="curve" smooth="yes"/>
      <point x="665" y="1325"/>
      <point x="748" y="1314"/>
      <point x="820" y="1298" type="curve"/>
      <point x="820" y="1456" type="line"/>
      <point x="746" y="1467"/>
      <point x="663" y="1477"/>
    </contour>
    <contour>
      <point x="1533" y="157" type="line"/>
      <point x="901" y="157" type="line"/>
      <point x="901" y="0" type="line"/>
      <point x="1533" y="0" type="line"/>
    </contour>
    <contour>
      <point x="934" y="1456" type="line"/>
      <point x="750" y="1456" type="line"/>
      <point x="750" y="0" type="line"/>
      <point x="934" y="0" type="line"/>
    </contour>
    <contour>
      <point x="1447" y="830" type="line"/>
      <point x="901" y="830" type="line"/>
      <point x="901" y="673" type="line"/>
      <point x="1447" y="673" type="line"/>
    </contour>
    <contour>
      <point x="1523" y="1456" type="line"/>
      <point x="901" y="1456" type="line"/>
      <point x="901" y="1298" type="line"/>
      <point x="1523" y="1298" type="line"/>
    </contour>
    <contour>
      <point x="820" y="1603" type="move" name="top"/>
    </contour>
    <contour>
      <point x="820" y="0" type="move" name="bottom"/>
    </contour>
    <contour>
      <point x="1673" y="1600" type="move" name="top_dd"/>
    </contour>
    <contour>
      <point x="1673" y="-407" type="move" name="bottom_dd"/>
    </contour>
    <contour>
      <point x="1673" y="1603" type="move" name="top0315"/>
    </contour>
  </outline>
</glyph>
<glyph name="racute" format="1">
  <advance width="624"/>
  <unicode hex="0155"/>
  <outline>
    <contour>
      <point x="362" y="1290" type="move" name="parent_top"/>
    </contour>
    <contour>
      <point x="234" y="11" type="move" name="bottom"/>
    </contour>
    <contour>
      <point x="604" y="1600" type="move" name="top_dd"/>
    </contour>
    <contour>
      <point x="604" y="-407" type="move" name="bottom_dd"/>
    </contour>
    <contour>
      <point x="604" y="1290" type="move" name="top0315"/>
    </contour>
    <contour>
      <point x="362" y="1641" type="move" name="top"/>
    </contour>
    <component base="r"/>
    <component base="acute" xOffset="137"/>
  </outline>
</glyph>
<glyph name="rcommaaccent" format="1">
  <advance width="624"/>
  <unicode hex="0157"/>
  <outline>
    <contour>
      <point x="362" y="1290" type="move" name="parent_top"/>
    </contour>
    <contour>
      <point x="604" y="1600" type="move" name="top_dd"/>
    </contour>
    <contour>
      <point x="604" y="-407" type="move" name="bottom_dd"/>
    </contour>
    <contour>
      <point x="604" y="1290" type="move" name="top0315"/>
    </contour>
    <contour>
      <point x="362" y="1290" type="move" name="top"/>
    </contour>
    <contour>
      <point x="234" y="-505" type="move" name="bottom"/>
    </contour>
    <component base="r"/>
    <component base="commaaccent" xOffset="-3" yOffset="-343"/>
  </outline>
</glyph>
<glyph name="Rcaron" format="1">
  <advance width="1087"/>
  <unicode hex="0158"/>
  <outline>
    <contour>
      <point x="533" y="1601" type="move" name="parent_top"/>
    </contour>
    <contour>
      <point x="534" y="10" type="move" name="bottom"/>
    </contour>
    <contour>
      <point x="1067" y="1600" type="move" name="top_dd"/>
    </contour>
    <contour>
      <point x="1067" y="-407" type="move" name="bottom_dd"/>
    </contour>
    <contour>
      <point x="1067" y="1601" type="move" name="top0315"/>
    </contour>
    <contour>
      <point x="533" y="1938" type="move" name="top"/>
    </contour>
    <component base="R"/>
    <component base="caron" xOffset="126" yOffset="311"/>
  </outline>
</glyph>
<glyph name="rcaron" format="1">
  <advance width="624"/>
  <unicode hex="0159"/>
  <outline>
    <contour>
      <point x="362" y="1290" type="move" name="parent_top"/>
    </contour>
    <contour>
      <point x="234" y="11" type="move" name="bottom"/>
    </contour>
    <contour>
      <point x="604" y="1600" type="move" name="top_dd"/>
    </contour>
    <contour>
      <point x="604" y="-407" type="move" name="bottom_dd"/>
    </contour>
    <contour>
      <point x="604" y="1290" type="move" name="top0315"/>
    </contour>
    <contour>
      <point x="362" y="1627" type="move" name="top"/>
    </contour>
    <component base="r"/>
    <component base="caron" xOffset="-45"/>
  </outline>
</glyph>
<glyph name="sacute" format="1">
  <advance width="934"/>
  <unicode hex="015B"/>
  <outline>
    <component base="s"/>
    <component base="acute" xOffset="275"/>
    <contour>
      <point x="500" y="1290" type="move" name="parent_top"/>
    </contour>
    <contour>
      <point x="500" y="-10" type="move" name="bottom"/>
    </contour>
    <contour>
      <point x="914" y="1600" type="move" name="top_dd"/>
    </contour>
    <contour>
      <point x="914" y="-407" type="move" name="bottom_dd"/>
    </contour>
    <contour>
      <point x="914" y="1290" type="move" name="top0315"/>
    </contour>
    <contour>
      <point x="500" y="1641" type="move" name="top"/>
    </contour>
  </outline>
</glyph>
<glyph name="Scircumflex" format="1">
  <advance width="1062"/>
  <unicode hex="015C"/>
  <outline>
    <component base="S"/>
    <component base="circumflex" xOffset="114" yOffset="313"/>
    <contour>
      <point x="541" y="1603" type="move" name="parent_top"/>
    </contour>
    <contour>
      <point x="547" y="-1" type="move" name="bottom"/>
    </contour>
    <contour>
      <point x="1042" y="1600" type="move" name="top_dd"/>
    </contour>
    <contour>
      <point x="1042" y="-407" type="move" name="bottom_dd"/>
    </contour>
    <contour>
      <point x="1042" y="1603" type="move" name="top0315"/>
    </contour>
    <contour>
      <point x="541" y="1950" type="move" name="top"/>
    </contour>
  </outline>
</glyph>
<glyph name="scircumflex" format="1">
  <advance width="934"/>
  <unicode hex="015D"/>
  <outline>
    <contour>
      <point x="500" y="1290" type="move" name="parent_top"/>
    </contour>
    <contour>
      <point x="500" y="-10" type="move" name="bottom"/>
    </contour>
    <contour>
      <point x="914" y="1600" type="move" name="top_dd"/>
    </contour>
    <contour>
      <point x="914" y="-407" type="move" name="bottom_dd"/>
    </contour>
    <contour>
      <point x="914" y="1290" type="move" name="top0315"/>
    </contour>
    <contour>
      <point x="500" y="1637" type="move" name="top"/>
    </contour>
    <component base="s"/>
    <component base="circumflex" xOffset="73"/>
  </outline>
</glyph>
<glyph name="Scedilla" format="1">
  <advance width="1062"/>
  <unicode hex="015E"/>
  <outline>
    <component base="S"/>
    <component base="cedilla" xOffset="342" yOffset="-1"/>
    <contour>
      <point x="541" y="1603" type="move" name="parent_top"/>
    </contour>
    <contour>
      <point x="1042" y="1600" type="move" name="top_dd"/>
    </contour>
    <contour>
      <point x="1042" y="-407" type="move" name="bottom_dd"/>
    </contour>
    <contour>
      <point x="1042" y="1603" type="move" name="top0315"/>
    </contour>
    <contour>
      <point x="541" y="1603" type="move" name="top"/>
    </contour>
    <contour>
      <point x="547" y="-441" type="move" name="bottom"/>
    </contour>
  </outline>
</glyph>
<glyph name="scedilla" format="1">
  <advance width="934"/>
  <unicode hex="015F"/>
  <outline>
    <contour>
      <point x="500" y="1290" type="move" name="parent_top"/>
    </contour>
    <contour>
      <point x="914" y="1600" type="move" name="top_dd"/>
    </contour>
    <contour>
      <point x="914" y="-407" type="move" name="bottom_dd"/>
    </contour>
    <contour>
      <point x="914" y="1290" type="move" name="top0315"/>
    </contour>
    <contour>
      <point x="500" y="1290" type="move" name="top"/>
    </contour>
    <contour>
      <point x="500" y="-450" type="move" name="bottom"/>
    </contour>
    <component base="s"/>
    <component base="cedilla" xOffset="295" yOffset="-10"/>
  </outline>
</glyph>
<glyph name="uni0163" format="1">
  <advance width="606"/>
  <unicode hex="0163"/>
  <outline>
    <component base="t"/>
    <component base="cedilla" xOffset="202"/>
    <contour>
      <point x="289" y="1481" type="move" name="parent_top"/>
    </contour>
    <contour>
      <point x="586" y="1600" type="move" name="top_dd"/>
    </contour>
    <contour>
      <point x="586" y="-407" type="move" name="bottom_dd"/>
    </contour>
    <contour>
      <point x="586" y="1481" type="move" name="top0315"/>
    </contour>
    <contour>
      <point x="289" y="1481" type="move" name="top"/>
    </contour>
    <contour>
      <point x="407" y="-440" type="move" name="bottom"/>
    </contour>
  </outline>
</glyph>
<glyph name="tcaron" format="1">
  <advance width="646"/>
  <unicode hex="0165"/>
  <outline>
    <component base="t"/>
    <component base="commaaccent" xOffset="358" yOffset="1419"/>
    <contour>
      <point x="407" y="0" type="move" name="bottom"/>
    </contour>
    <contour>
      <point x="289" y="1481" type="move" name="parent_top"/>
    </contour>
    <contour>
      <point x="626" y="1600" type="move" name="top_dd"/>
    </contour>
    <contour>
      <point x="626" y="-407" type="move" name="bottom_dd"/>
    </contour>
    <contour>
      <point x="626" y="1481" type="move" name="top0315"/>
    </contour>
    <contour>
      <point x="289" y="1481" type="move" name="top"/>
    </contour>
  </outline>
</glyph>
<glyph name="Tbar" format="1">
  <advance width="1066"/>
  <unicode hex="0166"/>
  <outline>
    <contour>
      <point x="625" y="1456" type="line"/>
      <point x="443" y="1456" type="line"/>
      <point x="443" y="0" type="line"/>
      <point x="625" y="0" type="line"/>
    </contour>
    <contour>
      <point x="1008" y="1456" type="line"/>
      <point x="61" y="1456" type="line"/>
      <point x="61" y="1298" type="line"/>
      <point x="1008" y="1298" type="line"/>
    </contour>
    <contour>
      <point x="816" y="974" type="line"/>
      <point x="274" y="974" type="line"/>
      <point x="274" y="822" type="line"/>
      <point x="816" y="822" type="line"/>
    </contour>
    <contour>
      <point x="534" y="1600" type="move" name="parent_top"/>
    </contour>
    <contour>
      <point x="536" y="0" type="move" name="bottom"/>
    </contour>
    <contour>
      <point x="1046" y="1600" type="move" name="top_dd"/>
    </contour>
    <contour>
      <point x="1046" y="-407" type="move" name="bottom_dd"/>
    </contour>
    <contour>
      <point x="1046" y="1600" type="move" name="top0315"/>
    </contour>
    <contour>
      <point x="534" y="1600" type="move" name="top"/>
    </contour>
  </outline>
</glyph>
<glyph name="tbar" format="2">
  <advance width="606"/>
  <unicode hex="0167"/>
  <anchor x="407" y="0" name="bottom"/>
  <anchor x="289" y="1481" name="parent_top"/>
  <anchor x="586" y="1600" name="top_dd"/>
  <anchor x="586" y="-407" name="bottom_dd"/>
  <anchor x="586" y="1481" name="top0315"/>
  <anchor x="289" y="1481" name="top"/>
  <outline>
    <contour>
      <point x="528" y="1082" type="line"/>
      <point x="23" y="1082" type="line"/>
      <point x="23" y="940" type="line"/>
      <point x="528" y="940" type="line"/>
    </contour>
    <contour>
      <point x="188" y="1345" type="line"/>
      <point x="188" y="269" type="line"/>
      <point x="188" y="52"/>
      <point x="288" y="-20"/>
      <point x="403" y="-20" type="curve" smooth="yes"/>
      <point x="464" y="-20"/>
      <point x="503" y="-9"/>
      <point x="527" y="0" type="curve"/>
      <point x="528" y="151" type="line"/>
      <point x="517" y="147"/>
      <point x="482" y="139"/>
      <point x="458" y="139" type="curve" smooth="yes"/>
      <point x="410" y="139"/>
      <point x="365" y="157"/>
      <point x="365" y="268" type="curve"/>
      <point x="365" y="1345" type="line"/>
    </contour>
    <contour>
      <point x="544" y="754" type="line"/>
      <point x="2" y="754" type="line"/>
      <point x="2" y="602" type="line"/>
      <point x="544" y="602" type="line"/>
    </contour>
  </outline>
</glyph>
<glyph name="Utilde" format="1">
  <advance width="1150"/>
  <unicode hex="0168"/>
  <outline>
    <component base="U"/>
    <component base="tilde" xOffset="144" yOffset="315"/>
    <contour>
      <point x="576" y="1601" type="move" name="parent_top"/>
    </contour>
    <contour>
      <point x="577" y="0" type="move" name="bottom"/>
    </contour>
    <contour>
      <point x="1130" y="1600" type="move" name="top_dd"/>
    </contour>
    <contour>
      <point x="1130" y="-407" type="move" name="bottom_dd"/>
    </contour>
    <contour>
      <point x="1130" y="1601" type="move" name="top0315"/>
    </contour>
    <contour>
      <point x="576" y="1913" type="move" name="top"/>
    </contour>
  </outline>
</glyph>
<glyph name="utilde" format="1">
  <advance width="990"/>
  <unicode hex="0169"/>
  <outline>
    <component base="u"/>
    <component base="tilde" xOffset="63" yOffset="4"/>
    <contour>
      <point x="495" y="1290" type="move" name="parent_top"/>
    </contour>
    <contour>
      <point x="970" y="1600" type="move" name="top_dd"/>
    </contour>
    <contour>
      <point x="970" y="-407" type="move" name="bottom_dd"/>
    </contour>
    <contour>
      <point x="970" y="1290" type="move" name="top0315"/>
    </contour>
    <contour>
      <point x="493" y="0" type="move" name="bottom"/>
    </contour>
    <contour>
      <point x="495" y="1602" type="move" name="top"/>
    </contour>
  </outline>
</glyph>
<glyph name="Ubreve" format="1">
  <advance width="1150"/>
  <unicode hex="016C"/>
  <outline>
    <component base="U"/>
    <component base="breve" xOffset="147" yOffset="311"/>
    <contour>
      <point x="576" y="1601" type="move" name="parent_top"/>
    </contour>
    <contour>
      <point x="577" y="0" type="move" name="bottom"/>
    </contour>
    <contour>
      <point x="1130" y="1600" type="move" name="top_dd"/>
    </contour>
    <contour>
      <point x="1130" y="-407" type="move" name="bottom_dd"/>
    </contour>
    <contour>
      <point x="1130" y="1601" type="move" name="top0315"/>
    </contour>
    <contour>
      <point x="576" y="1917" type="move" name="top"/>
    </contour>
  </outline>
</glyph>
<glyph name="Uhungarumlaut" format="1">
  <advance width="1150"/>
  <unicode hex="0170"/>
  <outline>
    <contour>
      <point x="576" y="1601" type="move" name="parent_top"/>
    </contour>
    <contour>
      <point x="577" y="0" type="move" name="bottom"/>
    </contour>
    <contour>
      <point x="1130" y="1600" type="move" name="top_dd"/>
    </contour>
    <contour>
      <point x="1130" y="-407" type="move" name="bottom_dd"/>
    </contour>
    <contour>
      <point x="1130" y="1601" type="move" name="top0315"/>
    </contour>
    <contour>
      <point x="576" y="1925" type="move" name="top"/>
    </contour>
    <component base="U"/>
    <component base="hungarumlaut" xOffset="265" yOffset="311"/>
  </outline>
</glyph>
<glyph name="Uogonek" format="1">
  <advance width="1150"/>
  <unicode hex="0172"/>
  <outline>
    <contour>
      <point x="842" y="1456" type="line"/>
      <point x="842" y="431" type="line" smooth="yes"/>
      <point x="842" y="203"/>
      <point x="738" y="137"/>
      <point x="577" y="137" type="curve" smooth="yes"/>
      <point x="417" y="137"/>
      <point x="313" y="203"/>
      <point x="313" y="431" type="curve" smooth="yes"/>
      <point x="313" y="1456" type="line"/>
      <point x="130" y="1456" type="line"/>
      <point x="130" y="431" type="line"/>
      <point x="130" y="103"/>
      <point x="325" y="-20"/>
      <point x="577" y="-20" type="curve" smooth="yes"/>
      <point x="813" y="-20"/>
      <point x="1026" y="103"/>
      <point x="1026" y="431" type="curve"/>
      <point x="1026" y="1456" type="line"/>
    </contour>
    <contour>
      <point x="744" y="101" type="line"/>
      <point x="578" y="17"/>
      <point x="518" y="-92"/>
      <point x="518" y="-199" type="curve" smooth="yes"/>
      <point x="518" y="-324"/>
      <point x="593" y="-390"/>
      <point x="686" y="-390" type="curve" smooth="yes"/>
      <point x="756" y="-390"/>
      <point x="798" y="-366"/>
      <point x="826" y="-346" type="curve"/>
      <point x="816" y="-224" type="line"/>
      <point x="799" y="-235"/>
      <point x="769" y="-251"/>
      <point x="733" y="-251" type="curve" smooth="yes"/>
      <point x="687" y="-251"/>
      <point x="670" y="-222"/>
      <point x="670" y="-178" type="curve" smooth="yes"/>
      <point x="670" y="-91"/>
      <point x="740" y="-20"/>
      <point x="811" y="44" type="curve"/>
    </contour>
    <contour>
      <point x="576" y="1601" type="move" name="parent_top"/>
    </contour>
    <contour>
      <point x="577" y="0" type="move" name="bottom"/>
    </contour>
    <contour>
      <point x="1130" y="1600" type="move" name="top_dd"/>
    </contour>
    <contour>
      <point x="1130" y="-407" type="move" name="bottom_dd"/>
    </contour>
    <contour>
      <point x="1130" y="1601" type="move" name="top0315"/>
    </contour>
    <contour>
      <point x="576" y="1601" type="move" name="top"/>
    </contour>
  </outline>
</glyph>
<glyph name="uogonek" format="1">
  <advance width="990"/>
  <unicode hex="0173"/>
  <outline>
    <contour>
      <point x="495" y="1290" type="move" name="parent_top"/>
    </contour>
    <contour>
      <point x="970" y="1600" type="move" name="top_dd"/>
    </contour>
    <contour>
      <point x="970" y="-407" type="move" name="bottom_dd"/>
    </contour>
    <contour>
      <point x="970" y="1290" type="move" name="top0315"/>
    </contour>
    <contour>
      <point x="493" y="0" type="move" name="bottom"/>
    </contour>
    <contour>
      <point x="495" y="1290" type="move" name="top"/>
    </contour>
    <contour>
      <point x="680" y="250" type="line"/>
      <point x="689" y="0" type="line"/>
      <point x="857" y="0" type="line"/>
      <point x="857" y="1082" type="line"/>
      <point x="680" y="1082" type="line"/>
    </contour>
    <contour>
      <point x="713" y="478" type="line"/>
      <point x="713" y="288"/>
      <point x="646" y="137"/>
      <point x="458" y="137" type="curve" smooth="yes"/>
      <point x="384" y="137"/>
      <point x="306" y="187"/>
      <point x="306" y="382" type="curve"/>
      <point x="306" y="1082" type="line"/>
      <point x="130" y="1082" type="line"/>
      <point x="130" y="384" type="line"/>
      <point x="130" y="96"/>
      <point x="250" y="-20"/>
      <point x="428" y="-20" type="curve" smooth="yes"/>
      <point x="691" y="-20"/>
      <point x="783" y="192"/>
      <point x="783" y="480" type="curve"/>
    </contour>
    <contour>
      <point x="780" y="57" type="line"/>
      <point x="614" y="-27"/>
      <point x="554" y="-136"/>
      <point x="554" y="-243" type="curve" smooth="yes"/>
      <point x="554" y="-368"/>
      <point x="629" y="-434"/>
      <point x="722" y="-434" type="curve" smooth="yes"/>
      <point x="792" y="-434"/>
      <point x="834" y="-410"/>
      <point x="862" y="-390" type="curve"/>
      <point x="852" y="-268" type="line"/>
      <point x="835" y="-279"/>
      <point x="805" y="-295"/>
      <point x="769" y="-295" type="curve" smooth="yes"/>
      <point x="723" y="-295"/>
      <point x="706" y="-266"/>
      <point x="706" y="-222" type="curve" smooth="yes"/>
      <point x="706" y="-135"/>
      <point x="776" y="-64"/>
      <point x="847" y="0" type="curve"/>
    </contour>
  </outline>
</glyph>
<glyph name="ycircumflex" format="1">
  <advance width="853"/>
  <unicode hex="0177"/>
  <outline>
    <component base="y"/>
    <component base="circumflex" xOffset="18"/>
    <contour>
      <point x="445" y="1290" type="move" name="parent_top"/>
    </contour>
    <contour>
      <point x="617" y="-158" type="move" name="bottom"/>
    </contour>
    <contour>
      <point x="833" y="1600" type="move" name="top_dd"/>
    </contour>
    <contour>
      <point x="833" y="-407" type="move" name="bottom_dd"/>
    </contour>
    <contour>
      <point x="833" y="1290" type="move" name="top0315"/>
    </contour>
    <contour>
      <point x="445" y="1637" type="move" name="top"/>
    </contour>
  </outline>
</glyph>
<glyph name="Ydieresis" format="1">
  <advance width="1075"/>
  <unicode hex="0178"/>
  <outline>
    <component base="Y"/>
    <component base="dieresis" xOffset="118" yOffset="310"/>
    <contour>
      <point x="541" y="1600" type="move" name="parent_top"/>
    </contour>
    <contour>
      <point x="537" y="1" type="move" name="bottom"/>
    </contour>
    <contour>
      <point x="1055" y="1600" type="move" name="top_dd"/>
    </contour>
    <contour>
      <point x="1055" y="-407" type="move" name="bottom_dd"/>
    </contour>
    <contour>
      <point x="1055" y="1600" type="move" name="top0315"/>
    </contour>
    <contour>
      <point x="541" y="1887" type="move" name="top"/>
    </contour>
  </outline>
</glyph>
<glyph name="Zdotaccent" format="1">
  <advance width="1071"/>
  <unicode hex="017B"/>
  <outline>
    <component base="Z"/>
    <component base="dotaccent" xOffset="288" yOffset="311"/>
    <contour>
      <point x="539" y="1601" type="move" name="parent_top"/>
    </contour>
    <contour>
      <point x="530" y="10" type="move" name="bottom"/>
    </contour>
    <contour>
      <point x="1051" y="1600" type="move" name="top_dd"/>
    </contour>
    <contour>
      <point x="1051" y="-407" type="move" name="bottom_dd"/>
    </contour>
    <contour>
      <point x="1051" y="1601" type="move" name="top0315"/>
    </contour>
    <contour>
      <point x="538" y="1883" type="move" name="top"/>
    </contour>
  </outline>
</glyph>
<glyph name="longs" format="1">
  <advance width="481"/>
  <unicode hex="017F"/>
  <outline>
    <contour>
      <point x="329" y="0" type="line"/>
      <point x="329" y="1196" type="line" smooth="yes"/>
      <point x="329" y="1327"/>
      <point x="379" y="1405"/>
      <point x="475" y="1405" type="curve" smooth="yes"/>
      <point x="505" y="1405"/>
      <point x="529" y="1400"/>
      <point x="547" y="1394" type="curve"/>
      <point x="569" y="1536" type="line"/>
      <point x="527" y="1548"/>
      <point x="488" y="1557"/>
      <point x="446" y="1557" type="curve" smooth="yes"/>
      <point x="264" y="1557"/>
      <point x="153" y="1429"/>
      <point x="153" y="1196" type="curve" smooth="yes"/>
      <point x="153" y="0" type="line"/>
    </contour>
    <contour>
      <point x="388" y="1754" type="move" name="top"/>
    </contour>
    <contour>
      <point x="236" y="10" type="move" name="bottom"/>
    </contour>
    <contour>
      <point x="461" y="1754" type="move" name="top0315"/>
    </contour>
    <contour>
      <point x="388" y="1754" type="move" name="parent_top"/>
    </contour>
  </outline>
</glyph>
<glyph name="bbar" format="1">
  <advance width="1092"/>
  <unicode hex="0180"/>
  <outline>
    <component base="b" xOffset="81"/>
    <component base="crossbar" xOffset="-102" yOffset="575"/>
    <contour>
      <point x="525" y="-10" type="move" name="bottom"/>
    </contour>
    <contour>
      <point x="561" y="1611" type="move" name="top"/>
    </contour>
    <contour>
      <point x="316" y="1303" type="move" name="parenthesses.w2"/>
    </contour>
    <contour>
      <point x="1072" y="1611" type="move" name="top0315"/>
    </contour>
    <contour>
      <point x="525" y="-10" type="move" name="bottom"/>
    </contour>
  </outline>
</glyph>
<glyph name="Bhook" format="2">
  <advance width="1295"/>
  <unicode hex="0181"/>
  <outline>
    <contour>
      <point x="490" y="1298" type="line" name="hr00"/>
      <point x="490" y="1456" type="line"/>
      <point x="338" y="1456" type="line" smooth="yes"/>
      <point x="149" y="1456"/>
      <point x="46" y="1363"/>
      <point x="46" y="1173" type="curve" smooth="yes"/>
      <point x="46" y="1138"/>
      <point x="52" y="1089"/>
      <point x="60" y="1057" type="curve"/>
      <point x="201" y="1058" type="line"/>
      <point x="196" y="1078"/>
      <point x="195" y="1106"/>
      <point x="195" y="1125" type="curve" smooth="yes"/>
      <point x="195" y="1238"/>
      <point x="232" y="1298"/>
      <point x="338" y="1298" type="curve" smooth="yes"/>
    </contour>
    <contour>
      <point x="775" y="681" type="line"/>
      <point x="830" y="728" type="line"/>
      <point x="1018" y="753"/>
      <point x="1149" y="888"/>
      <point x="1149" y="1068" type="curve"/>
      <point x="1149" y="1339"/>
      <point x="1000" y="1456"/>
      <point x="750" y="1456" type="curve"/>
      <point x="335" y="1456" type="line"/>
      <point x="335" y="0" type="line"/>
      <point x="518" y="0" type="line"/>
      <point x="518" y="1298" type="line"/>
      <point x="750" y="1298" type="line"/>
      <point x="896" y="1298"/>
      <point x="965" y="1230"/>
      <point x="965" y="1070" type="curve"/>
      <point x="965" y="923"/>
      <point x="876" y="836"/>
      <point x="752" y="836" type="curve"/>
      <point x="478" y="836" type="line"/>
      <point x="479" y="681" type="line"/>
    </contour>
    <contour>
      <point x="768" y="0" type="line"/>
      <point x="1016" y="0"/>
      <point x="1177" y="148"/>
      <point x="1177" y="420" type="curve" smooth="yes"/>
      <point x="1177" y="608"/>
      <point x="1081" y="761"/>
      <point x="901" y="780" type="curve"/>
      <point x="860" y="836" type="line"/>
      <point x="540" y="836" type="line"/>
      <point x="538" y="681" type="line"/>
      <point x="775" y="681" type="line" smooth="yes"/>
      <point x="930" y="681"/>
      <point x="993" y="580"/>
      <point x="993" y="418" type="curve" smooth="yes"/>
      <point x="993" y="258"/>
      <point x="911" y="157"/>
      <point x="768" y="157" type="curve" smooth="yes"/>
      <point x="510" y="157" type="line"/>
      <point x="403" y="0" type="line"/>
    </contour>
  </outline>
</glyph>
<glyph name="btopbar" format="2">
  <advance width="1010"/>
  <unicode hex="0183"/>
  <outline>
    <contour>
      <point x="717" y="1536" type="line"/>
      <point x="258" y="1536" type="line"/>
      <point x="258" y="1384" type="line"/>
      <point x="717" y="1384" type="line"/>
    </contour>
    <contour>
      <point x="133" y="1536" type="line"/>
      <point x="133" y="0" type="line"/>
      <point x="295" y="0" type="line"/>
      <point x="310" y="210" type="line"/>
      <point x="310" y="1536" type="line"/>
    </contour>
    <contour>
      <point x="917" y="550" type="line"/>
      <point x="917" y="880"/>
      <point x="790" y="1102"/>
      <point x="560" y="1102" type="curve" smooth="yes"/>
      <point x="324" y="1102"/>
      <point x="214" y="905"/>
      <point x="190" y="586" type="curve"/>
      <point x="190" y="494" type="line"/>
      <point x="215" y="177"/>
      <point x="325" y="-20"/>
      <point x="561" y="-20" type="curve" smooth="yes"/>
      <point x="788" y="-20"/>
      <point x="917" y="213"/>
      <point x="917" y="529" type="curve" smooth="yes"/>
    </contour>
    <contour>
      <point x="740" y="529" type="line"/>
      <point x="740" y="314"/>
      <point x="677" y="137"/>
      <point x="515" y="137" type="curve" smooth="yes"/>
      <point x="368" y="137"/>
      <point x="300" y="277"/>
      <point x="274" y="418" type="curve"/>
      <point x="274" y="659" type="line"/>
      <point x="299" y="806"/>
      <point x="371" y="946"/>
      <point x="514" y="946" type="curve" smooth="yes"/>
      <point x="685" y="946"/>
      <point x="740" y="765"/>
      <point x="740" y="550" type="curve" smooth="yes"/>
    </contour>
  </outline>
</glyph>
<glyph name="Tonesix" format="1">
  <advance width="1222"/>
  <unicode hex="0184"/>
  <outline>
    <contour>
      <point x="244" y="1456" type="line"/>
      <point x="244" y="1456"/>
      <point x="104" y="1249"/>
      <point x="104" y="1249" type="curve"/>
      <point x="104" y="1249"/>
      <point x="104" y="1173"/>
      <point x="104" y="1173" type="curve"/>
      <point x="104" y="1173"/>
      <point x="244" y="967"/>
      <point x="244" y="967" type="curve"/>
      <point x="285" y="967" type="line"/>
      <point x="286" y="1456" type="line"/>
    </contour>
    <contour>
      <point x="389" y="863" type="line"/>
      <point x="389" y="705" type="line"/>
      <point x="720" y="705" type="line"/>
      <point x="886" y="705"/>
      <point x="955" y="583"/>
      <point x="955" y="437" type="curve"/>
      <point x="955" y="290"/>
      <point x="886" y="157"/>
      <point x="720" y="157" type="curve"/>
      <point x="428" y="157" type="line"/>
      <point x="428" y="1456" type="line"/>
      <point x="244" y="1456" type="line"/>
      <point x="244" y="0" type="line"/>
      <point x="720" y="0" type="line"/>
      <point x="989" y="0"/>
      <point x="1139" y="179"/>
      <point x="1139" y="435" type="curve"/>
      <point x="1139" y="693"/>
      <point x="989" y="863"/>
      <point x="720" y="863" type="curve"/>
    </contour>
  </outline>
</glyph>
<glyph name="tonesix" format="2">
  <advance width="1124"/>
  <unicode hex="0185"/>
  <outline>
    <contour>
      <point x="246" y="1536" type="line"/>
      <point x="246" y="1536"/>
      <point x="106" y="1329"/>
      <point x="106" y="1329" type="curve"/>
      <point x="106" y="1253" type="line"/>
      <point x="106" y="1253"/>
      <point x="246" y="1047"/>
      <point x="246" y="1047" type="curve"/>
      <point x="287" y="1047" type="line"/>
      <point x="287" y="1536" type="line"/>
    </contour>
    <contour>
      <point x="246" y="1536" type="line"/>
      <point x="246" y="0" type="line"/>
      <point x="407" y="0" type="line"/>
      <point x="422" y="210" type="line"/>
      <point x="422" y="1536" type="line"/>
    </contour>
    <contour>
      <point x="1029" y="550" type="line"/>
      <point x="1029" y="880"/>
      <point x="903" y="1102"/>
      <point x="672" y="1102" type="curve" smooth="yes"/>
      <point x="437" y="1102"/>
      <point x="326" y="905"/>
      <point x="302" y="586" type="curve"/>
      <point x="302" y="494" type="line"/>
      <point x="327" y="177"/>
      <point x="437" y="-20"/>
      <point x="674" y="-20" type="curve" smooth="yes"/>
      <point x="901" y="-20"/>
      <point x="1029" y="213"/>
      <point x="1029" y="529" type="curve" smooth="yes"/>
    </contour>
    <contour>
      <point x="853" y="529" type="line"/>
      <point x="853" y="314"/>
      <point x="789" y="137"/>
      <point x="628" y="137" type="curve" smooth="yes"/>
      <point x="481" y="137"/>
      <point x="412" y="277"/>
      <point x="387" y="418" type="curve"/>
      <point x="387" y="659" type="line"/>
      <point x="412" y="806"/>
      <point x="483" y="946"/>
      <point x="626" y="946" type="curve" smooth="yes"/>
      <point x="797" y="946"/>
      <point x="853" y="765"/>
      <point x="853" y="550" type="curve" smooth="yes"/>
    </contour>
  </outline>
</glyph>
